<?xml version="1.0" encoding="utf-8"?>
<!-- Generator: Adobe Illustrator 19.1.0, SVG Export Plug-In . SVG Version: 6.00 Build 0)  -->
<svg version="1.1" id="Layer_1" xmlns="http://www.w3.org/2000/svg" xmlns:xlink="http://www.w3.org/1999/xlink" x="0px" y="0px"
	 viewBox="0 0 609.9 647.3" style="enable-background:new 0 0 609.9 647.3;" xml:space="preserve">
<style type="text/css">
	.st0{opacity:0.1;}
	.st1{fill:#E6E7E8;}
	.st2{fill:#A6A8AB;}
	.st3{fill:#CBE2F1;}
	.st4{fill:#808184;}
	.st5{fill:none;stroke:#808184;stroke-miterlimit:10;}
	.st6{fill:#929497;}
</style>
<g id="XMLID_1_" class="st0">
	<polygon class="st1" points="167.6,449 83.8,497.4 0,449 0,352.3 83.8,303.9 167.6,352.3 	"/>
	<polygon class="st2" points="345.3,449 261.5,497.4 177.7,449 177.7,352.3 261.5,303.9 345.3,352.3 	"/>
	<polygon class="st3" points="435.6,598.9 351.8,647.3 268,598.9 268,502.2 351.8,453.8 435.6,502.2 	"/>
	<polygon class="st4" points="257.4,297.3 173.7,345.6 89.9,297.3 89.9,200.5 173.7,152.1 257.4,200.5 	"/>
	<polygon class="st5" points="345.3,145.7 261.5,194.1 177.7,145.7 177.7,48.9 261.5,0.6 345.3,48.9 	"/>
	<polygon class="st2" points="521.4,145.7 437.6,194.1 353.9,145.7 353.9,48.9 437.6,0.6 521.4,48.9 	"/>
	<polygon class="st6" points="609.9,295.2 526.1,343.6 442.3,295.2 442.3,198.5 526.1,150.1 609.9,198.5 	"/>
</g>
</svg>
