<?xml version="1.0" encoding="utf-8"?>
<!-- Generator: Adobe Illustrator 19.1.0, SVG Export Plug-In . SVG Version: 6.00 Build 0)  -->
<svg version="1.1" id="Layer_1" xmlns="http://www.w3.org/2000/svg" xmlns:xlink="http://www.w3.org/1999/xlink" x="0px" y="0px"
	 viewBox="0 0 609.9 646.7" style="enable-background:new 0 0 609.9 646.7;" xml:space="preserve">
<style type="text/css">
	.st0{opacity:0.3;}
	.st1{fill:#FCDEDB;}
	.st2{fill:#E8F0D8;}
	.st3{fill:#CAE0EF;}
	.st4{fill:#F9E7D1;}
</style>
<g class="st0">
	<polygon class="st1" points="167.6,448.5 83.8,496.8 0,448.5 0,351.7 83.8,303.3 167.6,351.7 	"/>
	<polygon class="st2" points="345.3,448.5 261.5,496.8 177.7,448.5 177.7,351.7 261.5,303.3 345.3,351.7 	"/>
	<polygon class="st3" points="435.6,598.3 351.8,646.7 268,598.3 268,501.6 351.8,453.2 435.6,501.6 	"/>
	<polygon class="st4" points="257.4,296.7 173.7,345.1 89.9,296.7 89.9,199.9 173.7,151.6 257.4,199.9 	"/>
	<polygon class="st3" points="345.3,145.1 261.5,193.5 177.7,145.1 177.7,48.4 261.5,0 345.3,48.4 	"/>
	<polygon class="st4" points="521.4,145.1 437.6,193.5 353.9,145.1 353.9,48.4 437.6,0 521.4,48.4 	"/>
	<polygon class="st2" points="609.9,294.6 526.1,343 442.3,294.6 442.3,197.9 526.1,149.5 609.9,197.9 	"/>
</g>
</svg>
