<?xml version="1.0" encoding="utf-8"?>
<!-- Generator: Adobe Illustrator 19.1.0, SVG Export Plug-In . SVG Version: 6.00 Build 0)  -->
<svg version="1.1" id="Layer_1" xmlns="http://www.w3.org/2000/svg" xmlns:xlink="http://www.w3.org/1999/xlink" x="0px" y="0px"
	 viewBox="0 0 119.3 137.8" style="enable-background:new 0 0 119.3 137.8;" xml:space="preserve">
<style type="text/css">
	.st0{fill:#F05C4E;}
</style>
<g>
	<g>
		<g>
			<g>
				<path class="st0" d="M119.3,103.3V34.4L59.7,0L0,34.4v68.9l59.7,34.4L119.3,103.3z M10.1,97.5V40.3l49.6-28.6l49.6,28.6v57.3
					l-49.6,28.6L10.1,97.5z"/>
			</g>
		</g>
		<g>
			<path class="st0" d="M58,103.7c-7.5-0.9-16.1-3.6-25.8-8.1c-0.8-0.4-1.3-1.3-1-2.2c0.1-0.3,6.8-26.9,6.2-56.2
				c0-0.6,0.3-1.2,0.7-1.5c0.5-0.4,1.1-0.5,1.7-0.3c0.1,0,12.9,3.6,25.9,5.2c9,1.1,16,1,20.7-0.3c0.6-0.2,1.2,0,1.7,0.4
				c0.5,0.4,0.7,1,0.7,1.6l-3.6,49.5c0,0.2,0,0.3-0.1,0.5C84.8,92.7,79.9,106.3,58,103.7 M35.2,92.7c8.7,3.9,16.5,6.3,23.2,7.1
				c17.6,2.1,22.2-7.2,22.9-8.7l3.4-46.7c-5,0.8-11.5,0.8-19.6-0.2c-9.9-1.2-19.6-3.5-24-4.6C41.4,64.4,36.6,86.7,35.2,92.7"/>
			<path class="st0" d="M65.4,103.5c-1.9-0.2-3.9-0.7-5.9-1.3c-0.5-0.2-0.9-0.6-0.9-1.2c0-0.5,0.3-1,0.8-1.2c0.3-0.1,8-3,8.8-14.1
				c0-0.6,0.5-1.1,1.2-1.2c0.1,0,2.5-0.2,5.4,0.2c5.7,0.7,9.1,3,9.9,6.6c0,0.2,0,0.4,0,0.6C84.7,92,81,105.4,65.4,103.5 M63.2,100.6
				c0.9,0.2,1.7,0.3,2.5,0.4c12.3,1.5,15.9-7.7,16.4-9.5c-1.3-4.4-8.8-4.6-11.5-4.5C69.8,94.6,66,98.6,63.2,100.6"/>
			<path class="st0" d="M65.9,52.5c-9.6-1.2-20.4-4.1-21.1-4.3c-0.3-0.1-0.5-0.4-0.4-0.8c0.1-0.3,0.4-0.6,0.8-0.5
				c0.3,0.1,26.5,7.3,33.3,3.8c0.3-0.2,0.7,0,0.9,0.3c0.2,0.3,0,0.7-0.3,0.8C76.4,53.3,71.3,53.2,65.9,52.5"/>
			<path class="st0" d="M66,60.4c-9.6-1.2-20.4-4.1-21.1-4.3c-0.3-0.1-0.5-0.4-0.4-0.8c0.1-0.3,0.4-0.6,0.8-0.4
				c0.3,0.1,26.5,7.3,33.3,3.8c0.3-0.2,0.7,0,0.8,0.3c0.2,0.3,0,0.7-0.3,0.9C76.5,61.2,71.4,61.1,66,60.4"/>
			<path class="st0" d="M65,68.4c-9.6-1.2-20.4-4.1-21.1-4.3c-0.3-0.1-0.5-0.5-0.4-0.8c0.1-0.3,0.4-0.6,0.8-0.4
				c0.3,0.1,26.5,7.3,33.3,3.8c0.3-0.2,0.7,0,0.9,0.3c0.2,0.3,0,0.7-0.3,0.9C75.5,69.2,70.5,69.1,65,68.4"/>
			<path class="st0" d="M64.3,76c-9.6-1.2-20.4-4.1-21.1-4.3c-0.3-0.1-0.5-0.4-0.4-0.8c0.1-0.3,0.4-0.6,0.8-0.4
				c0.3,0.1,26.5,7.3,33.3,3.8c0.3-0.2,0.7,0,0.8,0.3c0.2,0.3,0,0.7-0.3,0.9C74.8,76.7,69.8,76.7,64.3,76"/>
			<path class="st0" d="M63.7,83.6c-9.6-1.2-20.4-4.1-21.1-4.3c-0.3-0.1-0.5-0.4-0.4-0.8c0.1-0.3,0.4-0.6,0.8-0.4
				c0.3,0.1,26.4,7.3,33.3,3.8c0.3-0.2,0.7,0,0.8,0.3c0.2,0.3,0,0.7-0.3,0.9C74.2,84.3,69.1,84.2,63.7,83.6"/>
			<path class="st0" d="M67.8,90.5c-10.3-0.3-26.1-4.7-26.3-4.7c-0.4-0.1-0.7,0.1-0.8,0.4c-0.1,0.3,0.1,0.7,0.4,0.8
				c0.7,0.2,11.5,3.1,21.1,4.3c1.8,0.2,3.5,0.3,5.1,0.4L67.8,90.5z"/>
		</g>
	</g>
</g>
</svg>
