<?xml version="1.0" encoding="utf-8"?>
<!-- Generator: Adobe Illustrator 19.1.0, SVG Export Plug-In . SVG Version: 6.00 Build 0)  -->
<svg version="1.1" id="Layer_1" xmlns="http://www.w3.org/2000/svg" xmlns:xlink="http://www.w3.org/1999/xlink" x="0px" y="0px"
	 viewBox="0 0 119.3 137.8" style="enable-background:new 0 0 119.3 137.8;" xml:space="preserve">
<style type="text/css">
	.st0{fill:#1D92D0;}
</style>
<g>
	<polygon class="st0" points="56.6,113.2 20.7,70.7 32.6,60.6 57.4,90 109,37.2 116.5,51.5 	"/>
	<path class="st0" d="M38,63.5l3.2,3.7l2.4-6.3l3.6,9.1l2.4,0c0,0,0,0,0,0l5.7,0l4-12.4l4.3,12.3l5.7-0.1c0,0,0,0,0,0l2.5,0l3.4-9.1
		l2.3,5.7l3.3-3.4c-1.8-6.4-1.2-12.1-1.2-12.1l8.3-7.9l-2.2-1.9l-6.5,5.7l-2,0c1.3-0.8,2.1-2.1,2.1-3.7c0-2.4-2-4.3-4.3-4.2
		c-2.4,0-4.3,2-4.3,4.3c0,1.6,0.9,3,2.2,3.7l-2,0L65,42l9.3-8.8L71.8,31l-7.7,6.8l-2.4,0c1.5-0.9,2.5-2.5,2.5-4.4
		c0-2.8-2.3-5.1-5.1-5c-2.8,0-5.1,2.3-5,5.1c0,1.9,1.1,3.5,2.6,4.4l-2.4,0l-7.8-6.6l-2.5,2.3l9.5,8.6l-5.7,5l-2,0
		c1.3-0.8,2.1-2.1,2.1-3.7c0-2.4-2-4.3-4.3-4.2c-2.4,0-4.3,2-4.2,4.3c0,1.6,0.9,3,2.2,3.7l-2,0l-6.6-5.6l-2.1,2l8.5,7.7
		C39,51.3,39.7,57.1,38,63.5 M64.4,45.4l6.1,5.6c0,0,1.1,8.6-2.5,16.6c-3.2-6.5-3.6-13.4-3.6-17.1h0C64.4,48.2,64.4,46.6,64.4,45.4
		 M47.9,51.2l6-5.7c0,1.2,0.1,2.8,0.1,5h0c0.1,3.8-0.2,10.6-3.3,17.2C47,59.8,47.9,51.2,47.9,51.2"/>
	<g>
		<g>
			<path class="st0" d="M119.3,103.4V34.5L59.7,0L0,34.5v68.9l59.7,34.5L119.3,103.4z M10.1,97.5V40.3l49.6-28.6l49.6,28.6v57.3
				l-49.6,28.6L10.1,97.5z"/>
		</g>
	</g>
</g>
</svg>
