<?xml version="1.0" encoding="utf-8"?>
<!-- Generator: Adobe Illustrator 19.1.0, SVG Export Plug-In . SVG Version: 6.00 Build 0)  -->
<svg version="1.1" id="Layer_1" xmlns="http://www.w3.org/2000/svg" xmlns:xlink="http://www.w3.org/1999/xlink" x="0px" y="0px"
	 viewBox="0 0 119.3 137.8" style="enable-background:new 0 0 119.3 137.8;" xml:space="preserve">
<style type="text/css">
	.st0{fill:#87C258;}
</style>
<g>
	<g>
		<g>
			<g>
				<path class="st0" d="M119.3,103.3V34.4L59.7,0L0,34.4v68.9l59.7,34.4L119.3,103.3z M10.1,97.5V40.3l49.6-28.6l49.6,28.6v57.3
					l-49.6,28.6L10.1,97.5z"/>
			</g>
		</g>
		<g>
			<rect x="31.9" y="75.6" class="st0" width="11" height="21.4"/>
			<rect x="46.2" y="63.8" class="st0" width="11" height="33.2"/>
			<rect x="60.5" y="69.9" class="st0" width="11" height="27.1"/>
			<rect x="74.8" y="57.4" class="st0" width="11" height="39.6"/>
			<polygon class="st0" points="88.5,46.2 93.3,37.3 83.5,39.5 			"/>
			<polygon class="st0" points="20.5,73.1 19.4,71.7 53.1,45.4 67.6,55.8 86.2,41.6 87.2,43 67.6,58 53.1,47.6 			"/>
			<polygon class="st0" points="94.9,97.5 16.5,97.5 16.5,96.6 94.1,96.6 94.1,52.6 94.9,52.6 			"/>
		</g>
	</g>
</g>
</svg>
