<?xml version="1.0" encoding="utf-8"?>
<!-- Generator: Adobe Illustrator 19.1.0, SVG Export Plug-In . SVG Version: 6.00 Build 0)  -->
<svg version="1.1" id="Layer_1" xmlns="http://www.w3.org/2000/svg" xmlns:xlink="http://www.w3.org/1999/xlink" x="0px" y="0px"
	 viewBox="0 0 374 116.7" style="enable-background:new 0 0 374 116.7;" xml:space="preserve">
<style type="text/css">
	.st0{fill:#FFFFFF;}
	.st1{fill:#8AC342;}
	.st2{fill-rule:evenodd;clip-rule:evenodd;fill:#F05E4E;}
	.st3{fill-rule:evenodd;clip-rule:evenodd;fill:#F8B42C;}
	.st4{fill:#F49022;}
	.st5{fill:#1D92D0;}
</style>
<g>
	<polygon class="st0" points="140.5,105.3 16.1,111.5 12.1,31.9 136.5,25.6 	"/>
	<g>
		<g>
			<path class="st1" d="M175.7,66.2c0,0.2,0,0.4,0,0.7c0,0.2-0.1,0.4-0.3,0.5c-0.1,0.1-0.3,0.2-0.5,0.2c-0.2,0-0.5,0.1-0.8,0.1
				c-0.3,0-0.6,0-0.8,0c-0.3,0-0.5,0-0.7,0h-8.8c-0.2,0-0.3,0-0.5,0c-0.2,0-0.3,0-0.4,0.1c-0.2,0.1-0.3,0.2-0.4,0.3
				c0,0.1-0.1,0.1-0.1,0.3c-0.1,0.1-0.1,0.3,0,0.4c0,0.1,0.1,0.3,0.1,0.4c0,0.1,0,0.3,0.1,0.4c0.2,0.6,0.4,1.1,0.7,1.4
				c0.3,0.4,0.7,0.7,1.1,1c0.2,0.1,0.4,0.2,0.6,0.2c0.2,0,0.4,0.1,0.6,0.2c0.2,0.1,0.5,0.1,0.8,0.1c0.3,0,0.6,0,0.9,0h0.3
				c0.2,0,0.5-0.1,0.7-0.2c0.2-0.1,0.4-0.1,0.6-0.2c0.2-0.1,0.5-0.3,0.8-0.5c0.3-0.2,0.5-0.4,0.7-0.6c0.1-0.2,0.3-0.3,0.4-0.5
				c0.1-0.2,0.3-0.3,0.5-0.3c0.2-0.1,0.5-0.2,0.9-0.2c0.4,0,0.7,0,1,0c0.1,0,0.3,0,0.5,0c0.2,0,0.3,0,0.4,0.1h0.4
				c0.2,0,0.4,0.1,0.5,0.2c0.1,0.1,0.2,0.2,0.2,0.3c0,0.2,0,0.3-0.1,0.4c-0.1,0.3-0.3,0.6-0.4,0.9c-0.1,0.3-0.3,0.5-0.5,0.8
				c-0.5,0.8-1.1,1.4-1.8,1.9c-0.7,0.5-1.5,0.9-2.5,1.2c-0.3,0.1-0.5,0.2-0.8,0.2c-0.3,0-0.5,0.1-0.8,0.1c-0.1,0-0.2,0-0.3,0
				c-0.1,0-0.2,0-0.3,0H167c-0.1,0.1-0.3,0.1-0.4,0.1c-0.2,0-0.3,0-0.4-0.1c-0.2,0-0.4,0-0.5,0c-0.1,0-0.3,0-0.5,0
				c-0.1-0.1-0.3-0.1-0.4-0.1c-0.1,0-0.3,0-0.4-0.1c-0.3-0.1-0.5-0.1-0.8-0.2c-0.3-0.1-0.5-0.1-0.7-0.3c-0.3-0.1-0.5-0.2-0.7-0.3
				c-0.2-0.1-0.4-0.2-0.6-0.3c-0.8-0.5-1.5-1-2.1-1.7c-0.6-0.6-1.1-1.4-1.5-2.2c-0.1-0.3-0.2-0.5-0.3-0.8c-0.1-0.3-0.2-0.6-0.3-0.9
				c0-0.1,0-0.2,0-0.3c0-0.1,0-0.2,0-0.3c-0.1-0.3-0.2-0.6-0.2-1c0-0.3,0-0.7-0.1-1c0-0.1,0-0.3,0-0.4c0-0.1,0-0.3,0-0.4v-0.4
				l0.1-0.9c0.1-0.4,0.2-0.8,0.3-1.2c0.1-0.4,0.2-0.8,0.3-1.1c1-2.5,2.8-4.3,5.3-5.3c0.3-0.1,0.7-0.2,1-0.3c0.4-0.1,0.7-0.1,1.1-0.2
				c0.2,0,0.4,0,0.5,0c0.2,0,0.3,0,0.5,0c1.2,0,2.3,0.1,3.2,0.4c0.9,0.3,1.7,0.7,2.4,1.2c0.2,0.1,0.4,0.3,0.6,0.5
				c0.2,0.2,0.4,0.4,0.6,0.6c0.1,0.1,0.2,0.2,0.3,0.3c0.2,0.3,0.4,0.5,0.5,0.8c0.2,0.3,0.3,0.6,0.5,0.8c0.1,0.2,0.2,0.4,0.3,0.7
				c0.1,0.2,0.2,0.5,0.3,0.7c0.1,0.3,0.2,0.6,0.3,1c0.1,0.3,0.2,0.7,0.3,1c0,0.2,0.1,0.4,0.1,0.6c0,0.2,0,0.4,0.1,0.6V66.2z
				 M170.2,64c0.2-0.2,0.2-0.5,0.1-0.9c-0.1-0.3-0.2-0.6-0.3-0.8c-0.3-0.7-0.8-1.2-1.3-1.5c-0.6-0.4-1.3-0.5-2.3-0.6
				c-0.1,0-0.2,0.1-0.3,0c-0.1,0-0.2,0-0.3,0c-0.1,0-0.3,0.1-0.4,0.1c-0.1,0-0.3,0-0.4,0.1c-1.1,0.3-1.9,1-2.4,2
				c0,0.1-0.1,0.2-0.2,0.4c-0.1,0.2-0.1,0.3-0.1,0.5c0,0.2,0,0.3,0,0.5c0,0.1,0.1,0.3,0.2,0.4c0.2,0.1,0.5,0.2,0.8,0.2
				c0.3,0,0.7,0,1,0h4c0.3,0,0.7,0,1.1,0C169.8,64.3,170.1,64.2,170.2,64z"/>
			<path class="st1" d="M177.6,57h2.6c0.3,0,0.5,0,0.8,0c0.2,0,0.4,0.1,0.6,0.2c0.3,0.2,0.5,0.5,0.6,0.9c0.1,0.4,0.2,0.8,0.3,1.2
				c0.3,0.8,0.5,1.6,0.8,2.4c0.2,0.8,0.5,1.7,0.8,2.5c0.2,0.6,0.4,1.2,0.6,1.8c0.2,0.6,0.4,1.2,0.6,1.7c0.1,0.2,0.2,0.4,0.2,0.7
				c0.1,0.2,0.3,0.4,0.5,0.4c0-0.1,0.1-0.1,0.1-0.1c0,0,0.1,0,0.1-0.1c0.1-0.1,0.1-0.2,0.2-0.4c0.1-0.1,0.1-0.3,0.1-0.4
				c0.1-0.3,0.2-0.5,0.3-0.8c0.1-0.3,0.1-0.6,0.2-0.8c0.3-1,0.7-2,1-3.1c0.3-1,0.6-2,1-3.1c0.1-0.3,0.2-0.6,0.3-0.9
				c0.1-0.3,0.2-0.6,0.3-0.9c0-0.2,0.1-0.4,0.2-0.6c0.1-0.2,0.2-0.4,0.3-0.5c0.1,0,0.2-0.1,0.5-0.2c0.1-0.1,0.3-0.1,0.5-0.1
				c0.2,0,0.3,0,0.5,0h1.8c0.3,0,0.5,0,0.7,0c0.2,0,0.4,0.1,0.5,0.2c0.1,0.1,0.2,0.3,0.2,0.5c0,0.2-0.1,0.4-0.1,0.6
				c-0.1,0.3-0.2,0.7-0.4,1.1c-0.1,0.4-0.2,0.7-0.4,1.1c-0.1,0.2-0.1,0.3-0.2,0.5c0,0.2-0.1,0.3-0.1,0.5c-0.1,0.3-0.2,0.5-0.3,0.8
				c-0.1,0.3-0.2,0.5-0.3,0.8c0,0.1,0,0.2-0.1,0.2c0,0.1,0,0.2-0.1,0.2c-0.1,0.4-0.3,0.7-0.4,1.1c-0.1,0.4-0.2,0.7-0.3,1.1
				c-0.3,0.7-0.5,1.5-0.8,2.2c-0.2,0.8-0.5,1.5-0.8,2.2c-0.1,0.3-0.2,0.7-0.3,1c-0.1,0.3-0.2,0.7-0.3,1c0,0.1-0.1,0.2-0.1,0.3
				c0,0.1-0.1,0.2-0.1,0.3c-0.1,0.3-0.2,0.5-0.3,0.8c-0.1,0.3-0.2,0.6-0.3,0.8c-0.1,0.3-0.2,0.5-0.3,0.7c-0.1,0.2-0.3,0.4-0.5,0.5
				c-0.2,0.1-0.4,0.1-0.6,0.1c-0.2,0-0.4,0-0.7,0h-2.4c-0.3,0-0.5,0-0.8,0c-0.3,0-0.5,0-0.7-0.1c-0.2-0.1-0.3-0.3-0.4-0.5
				c-0.1-0.2-0.1-0.4-0.2-0.6c-0.1-0.3-0.2-0.6-0.3-0.9c-0.1-0.3-0.2-0.6-0.3-0.9c0-0.1-0.1-0.2-0.1-0.3c0-0.1,0-0.2-0.1-0.3
				c-0.1-0.3-0.2-0.6-0.3-0.9c-0.1-0.3-0.2-0.6-0.3-0.9c0-0.1-0.1-0.2-0.1-0.3c0-0.1-0.1-0.2-0.1-0.3c-0.1-0.2-0.2-0.4-0.2-0.7
				c-0.1-0.2-0.1-0.4-0.2-0.7c0-0.1-0.1-0.2-0.1-0.2c0-0.1,0-0.2-0.1-0.2c-0.1-0.2-0.2-0.4-0.2-0.7c-0.1-0.2-0.1-0.4-0.2-0.7
				c-0.2-0.6-0.4-1.1-0.6-1.7c-0.2-0.6-0.4-1.2-0.6-1.8c-0.3-0.6-0.5-1.3-0.7-2c-0.2-0.7-0.4-1.3-0.6-2l-0.3-1c0-0.1,0-0.2-0.1-0.3
				c0-0.1,0-0.2,0.1-0.3c0.1-0.2,0.2-0.3,0.5-0.4C177.5,57,177.6,57,177.6,57z"/>
			<path class="st1" d="M214.5,66.2c0,0.2,0,0.4,0,0.7c-0.1,0.2-0.1,0.4-0.3,0.5c-0.1,0.1-0.3,0.2-0.5,0.2c-0.2,0-0.5,0.1-0.8,0.1
				c-0.3,0-0.6,0-0.8,0c-0.3,0-0.5,0-0.7,0h-8.8c-0.2,0-0.3,0-0.5,0c-0.2,0-0.3,0-0.4,0.1c-0.2,0.1-0.3,0.2-0.4,0.3
				c0,0.1-0.1,0.1-0.1,0.3c0,0.1-0.1,0.3,0,0.4c0,0.1,0.1,0.3,0.1,0.4c0,0.1,0,0.3,0.1,0.4c0.2,0.6,0.4,1.1,0.7,1.4
				c0.3,0.4,0.7,0.7,1.1,1c0.2,0.1,0.4,0.2,0.6,0.2c0.2,0,0.4,0.1,0.6,0.2c0.2,0.1,0.5,0.1,0.8,0.1c0.3,0,0.6,0,0.9,0h0.3
				c0.2,0,0.5-0.1,0.7-0.2c0.2-0.1,0.4-0.1,0.6-0.2c0.2-0.1,0.5-0.3,0.8-0.5c0.3-0.2,0.5-0.4,0.7-0.6c0.1-0.2,0.2-0.3,0.4-0.5
				c0.1-0.2,0.3-0.3,0.5-0.3c0.2-0.1,0.6-0.2,0.9-0.2c0.4,0,0.7,0,1,0c0.1,0,0.3,0,0.5,0c0.2,0,0.3,0,0.4,0.1h0.4
				c0.2,0,0.4,0.1,0.5,0.2c0.1,0.1,0.2,0.2,0.2,0.3c0,0.2,0,0.3-0.1,0.4c-0.1,0.3-0.3,0.6-0.4,0.9c-0.1,0.3-0.3,0.5-0.5,0.8
				c-0.5,0.8-1.1,1.4-1.8,1.9c-0.7,0.5-1.5,0.9-2.5,1.2c-0.3,0.1-0.5,0.2-0.8,0.2c-0.3,0-0.5,0.1-0.8,0.1c-0.1,0-0.2,0-0.3,0
				c-0.1,0-0.2,0-0.3,0h-0.4c-0.1,0.1-0.3,0.1-0.4,0.1c-0.2,0-0.3,0-0.4-0.1c-0.2,0-0.4,0-0.5,0c-0.1,0-0.3,0-0.5,0
				c-0.1-0.1-0.3-0.1-0.4-0.1c-0.1,0-0.3,0-0.4-0.1c-0.3-0.1-0.5-0.1-0.8-0.2c-0.3-0.1-0.5-0.1-0.7-0.3c-0.3-0.1-0.5-0.2-0.7-0.3
				c-0.2-0.1-0.4-0.2-0.6-0.3c-0.8-0.5-1.5-1-2.1-1.7c-0.6-0.6-1.1-1.4-1.5-2.2c-0.1-0.3-0.2-0.5-0.3-0.8c-0.1-0.3-0.2-0.6-0.3-0.9
				c0-0.1,0-0.2,0-0.3c0-0.1,0-0.2,0-0.3c-0.1-0.3-0.2-0.6-0.2-1c0-0.3-0.1-0.7-0.1-1c0-0.1,0-0.3,0-0.4c0-0.1,0-0.3,0-0.4v-0.4
				l0.1-0.9c0.1-0.4,0.2-0.8,0.3-1.2c0.1-0.4,0.2-0.8,0.3-1.1c1-2.5,2.8-4.3,5.3-5.3c0.3-0.1,0.7-0.2,1-0.3c0.4-0.1,0.7-0.1,1.1-0.2
				c0.2,0,0.4,0,0.5,0c0.2,0,0.4,0,0.5,0c1.2,0,2.3,0.1,3.2,0.4c0.9,0.3,1.7,0.7,2.4,1.2c0.2,0.1,0.4,0.3,0.6,0.5
				c0.2,0.2,0.4,0.4,0.6,0.6c0.1,0.1,0.2,0.2,0.3,0.3c0.2,0.3,0.4,0.5,0.5,0.8c0.2,0.3,0.4,0.6,0.6,0.8c0.1,0.2,0.2,0.4,0.3,0.7
				c0.1,0.2,0.2,0.5,0.3,0.7c0.1,0.3,0.2,0.6,0.3,1c0.1,0.3,0.2,0.7,0.3,1c0,0.2,0.1,0.4,0.1,0.6c0,0.2,0,0.4,0.1,0.6V66.2z M209,64
				c0.2-0.2,0.2-0.5,0-0.9c-0.1-0.3-0.2-0.6-0.3-0.8c-0.3-0.7-0.8-1.2-1.3-1.5c-0.6-0.4-1.3-0.5-2.3-0.6c-0.1,0-0.2,0.1-0.3,0
				c-0.1,0-0.2,0-0.3,0c-0.1,0-0.3,0.1-0.4,0.1c-0.1,0-0.3,0-0.4,0.1c-1.1,0.3-1.8,1-2.3,2c-0.1,0.1-0.1,0.2-0.2,0.4
				c-0.1,0.2-0.1,0.3-0.1,0.5c0,0.2,0,0.3,0,0.5c0,0.1,0.1,0.3,0.2,0.4c0.2,0.1,0.5,0.2,0.8,0.2c0.3,0,0.7,0,1,0h4
				c0.3,0,0.7,0,1.1,0C208.6,64.3,208.9,64.2,209,64z"/>
			<path class="st1" d="M227.7,56.5c0.3,0,0.5,0,0.7,0.1c0.2,0.1,0.4,0.2,0.5,0.3c0.2,0.2,0.2,0.5,0.2,1c0,0.5,0,0.9,0,1.3
				c0,0.3,0,0.6,0,0.9c0,0.3,0,0.6-0.1,0.8c-0.1,0.2-0.2,0.3-0.4,0.3c-0.2,0.1-0.4,0.1-0.6,0.1c-0.2,0-0.5,0-0.7,0
				c-0.3,0-0.5,0-0.7,0c-0.2,0.1-0.3,0.1-0.5,0.1c-0.2,0-0.3,0-0.5,0.1c-0.4,0.1-0.8,0.3-1.2,0.5c-0.4,0.2-0.7,0.5-0.9,0.8
				c-0.1,0.2-0.2,0.4-0.4,0.6c-0.1,0.2-0.3,0.4-0.4,0.6c-0.1,0.2-0.1,0.4-0.2,0.6c-0.1,0.2-0.1,0.4-0.2,0.6
				c-0.1,0.2-0.1,0.3-0.1,0.5c0,0.2,0,0.4-0.1,0.5c0,0.1,0,0.2,0,0.3c0,0.1,0,0.2,0,0.2v0.6c0,0.2-0.1,0.4,0,0.6c0,0.2,0,0.4,0,0.6
				v2.3v3.1c0,0.3,0,0.6,0,0.9c0,0.3-0.1,0.5-0.2,0.7c0,0.1-0.1,0.1-0.2,0.2c-0.1,0-0.2,0.1-0.3,0.1h-0.2c-0.1,0-0.3,0-0.4,0
				c-0.1,0-0.3,0-0.4,0h-1.6c-0.1,0-0.3,0-0.5,0c-0.2,0-0.3,0-0.5,0c-0.1,0-0.2-0.1-0.4-0.1c-0.1,0-0.2-0.1-0.3-0.2
				c-0.1-0.1-0.2-0.3-0.2-0.5c0-0.2,0-0.5,0-0.7v-2.5V61.4v-2.7c0-0.2,0-0.5,0-0.7c0-0.2,0.1-0.4,0.1-0.6c0.1-0.2,0.3-0.3,0.5-0.4
				c0.2,0,0.5-0.1,0.9-0.1h1.8c0.3,0,0.5,0,0.8,0.1c0.2,0,0.4,0.2,0.5,0.3c0.1,0.1,0.1,0.3,0.1,0.5c0,0.2,0,0.4,0.1,0.6
				c0,0.2,0.1,0.4,0.1,0.6c0.1,0.2,0.2,0.3,0.3,0.3c0.1,0,0.1-0.1,0.2-0.1c0,0,0.1,0,0.1-0.1c0.1-0.1,0.3-0.3,0.4-0.4
				c0.1-0.2,0.3-0.3,0.4-0.4c0.1-0.1,0.2-0.2,0.3-0.2c0.1-0.1,0.2-0.2,0.3-0.2c0.2-0.1,0.4-0.3,0.7-0.4c0.2-0.1,0.5-0.3,0.7-0.4
				c0.2-0.1,0.5-0.2,0.7-0.3c0.3-0.1,0.5-0.1,0.8-0.2c0.1,0,0.2,0,0.4,0C227.6,56.6,227.7,56.6,227.7,56.5z"/>
			<path class="st1" d="M230.5,56.9h2.8c0.2,0,0.5,0,0.7,0c0.2,0,0.4,0.1,0.6,0.1c0.3,0.2,0.5,0.5,0.6,0.9c0.1,0.4,0.2,0.8,0.3,1.1
				c0.1,0.3,0.2,0.6,0.3,0.9c0.1,0.3,0.2,0.6,0.3,0.9c0.2,0.6,0.4,1.1,0.5,1.7c0.2,0.5,0.3,1.1,0.5,1.6l0.8,2.3
				c0.1,0.2,0.1,0.4,0.2,0.7c0.1,0.2,0.1,0.5,0.2,0.7c0.1,0.2,0.1,0.4,0.2,0.7c0.1,0.2,0.3,0.4,0.5,0.3c0.1-0.1,0.1-0.1,0.1-0.1
				c0,0,0.1,0,0.1-0.1c0.1-0.1,0.1-0.2,0.2-0.4c0.1-0.1,0.1-0.2,0.1-0.4c0.1-0.3,0.2-0.6,0.3-0.9c0.1-0.3,0.2-0.6,0.3-0.9
				c0.3-1,0.7-2,1-3c0.3-1,0.6-2,1-3c0.1-0.3,0.2-0.7,0.3-1c0.1-0.3,0.2-0.6,0.3-1c0.1-0.2,0.1-0.4,0.2-0.6c0.1-0.2,0.2-0.3,0.3-0.5
				c0.1-0.1,0.3-0.2,0.5-0.2c0.2,0,0.5,0,0.7,0h2.2c0.2,0,0.5,0,0.7,0c0.2,0,0.4,0.1,0.5,0.2c0.1,0.2,0.2,0.4,0.1,0.6
				c-0.1,0.2-0.1,0.4-0.2,0.6c-0.1,0.2-0.1,0.4-0.2,0.6c-0.3,0.8-0.7,1.7-1,2.6c-0.3,0.9-0.6,1.7-1,2.6c-0.1,0.4-0.3,0.7-0.4,1.1
				c-0.1,0.4-0.3,0.7-0.4,1.1c-0.1,0.3-0.2,0.7-0.4,1c-0.1,0.3-0.2,0.6-0.4,1c-0.5,1.2-0.9,2.4-1.4,3.6c-0.4,1.2-0.9,2.4-1.4,3.6
				c-0.1,0.2-0.1,0.3-0.2,0.5c0,0.1-0.1,0.3-0.2,0.4c-0.2,0.5-0.4,0.9-0.5,1.3c-0.2,0.4-0.4,0.8-0.5,1.2c-0.2,0.4-0.4,0.8-0.7,1.1
				c-0.3,0.3-0.6,0.6-1,0.9c-0.3,0.2-0.7,0.4-1,0.5c-0.4,0.1-0.8,0.3-1.2,0.4c-0.2,0-0.4,0.1-0.6,0.1c-0.2,0-0.4,0-0.6,0.1h-0.9
				c-0.2,0-0.4,0-0.7,0c-0.3,0-0.5,0-0.8,0c-0.3,0-0.5-0.1-0.7-0.1c-0.2,0-0.4-0.1-0.5-0.2c-0.1-0.1-0.2-0.2-0.2-0.3
				c0-0.1-0.1-0.3-0.1-0.5v-0.9c0-0.4,0-0.8,0-1.3c0-0.5,0.1-0.7,0.4-0.9c0.1,0,0.3-0.1,0.5-0.1c0.2,0,0.4,0,0.5,0.1h0.9h0.4
				c0.1,0,0.2,0,0.3,0c0.1,0,0.2,0,0.3-0.1c0.8-0.2,1.2-0.7,1.5-1.5c0-0.1,0.1-0.2,0.1-0.4c0-0.2,0-0.4,0-0.5
				c-0.1-0.1-0.1-0.2-0.1-0.4c0-0.1,0-0.2-0.1-0.4c-0.1-0.5-0.3-1-0.5-1.4c-0.2-0.5-0.3-0.9-0.5-1.4c-0.2-0.5-0.4-0.9-0.5-1.4
				c-0.2-0.5-0.3-0.9-0.5-1.4c-0.1-0.3-0.2-0.6-0.3-0.9c-0.1-0.3-0.2-0.6-0.3-0.9c-0.4-0.9-0.7-1.9-1.1-2.8c-0.3-1-0.7-1.9-1.1-2.8
				c0-0.1-0.1-0.2-0.1-0.2c0-0.1,0-0.1-0.1-0.2c-0.2-0.4-0.4-0.9-0.5-1.3c-0.1-0.4-0.3-0.9-0.5-1.3c-0.1-0.1-0.1-0.4-0.2-0.6
				c-0.1-0.3-0.1-0.5-0.1-0.7c0.1-0.2,0.2-0.3,0.5-0.4c0,0,0.1,0,0.1,0C230.4,57,230.5,57,230.5,56.9z"/>
		</g>
		<g>
			<g>
				<path class="st2" d="M105.4,69.2l-8.5-6.5l1.8-2l6.6,4.7l1.9-0.2c-1.2-0.6-2.2-1.8-2.3-3.3c-0.2-2.2,1.4-4.2,3.6-4.4
					c2.2-0.2,4.2,1.4,4.4,3.6c0.1,1.5-0.6,2.8-1.7,3.6l1.9-0.2l5.6-5.8l2.2,1.6l-7.1,8c0,0-0.3,9.7,5.2,17.2l-4.4,0.4l-4-8.2
					l-2.5,8.8l-4.4,0.4C107.5,78.7,105.4,69.2,105.4,69.2z"/>
				<path class="st3" d="M76.1,71.9l-8.5-6.5l1.8-2l6.6,4.7l1.9-0.2c-1.3-0.6-2.2-1.8-2.3-3.3c-0.2-2.2,1.4-4.2,3.6-4.4
					c2.2-0.2,4.2,1.4,4.4,3.6c0.1,1.5-0.5,2.8-1.7,3.6l1.9-0.2l5.6-5.8l2.2,1.6l-7.1,8c0,0-0.3,9.7,5.1,17.2l-4.4,0.4l-4.1-8.2
					l-2.5,8.8l-4.4,0.4C78.1,81.4,76.1,71.9,76.1,71.9z"/>
			</g>
			<path class="st4" d="M99.7,69.2c-0.6-6.5-0.5-7.4-0.5-7.4l8.5-9.4l-2.6-1.9l-6.6,6.9l-2.2,0.2c1.3-0.9,2.1-2.6,2-4.3
				c-0.2-2.6-2.5-4.5-5.2-4.3c-2.6,0.2-4.5,2.5-4.3,5.2c0.2,1.7,1.3,3.2,2.7,3.9l-2.2,0.2l-7.8-5.6L79.2,55l10,7.8
				c0,0,0.2,0.8,0.8,7.3h0c0.4,3.9,0.7,11.5-2.7,18.5l5.3-0.5l2.8-11.9l4.9,11.2l5.3-0.5C101.1,80.7,100,73.1,99.7,69.2L99.7,69.2z"
				/>
		</g>
		<g>
			<g>
				<path class="st5" d="M169.5,18.5c2.4-0.1,4.5,0.4,6.1,1.3c1.6,0.9,2.9,2.1,3.8,3.6c0.5,0.8,0.8,1.7,1.1,2.7
					c0,0.2,0.1,0.4,0.1,0.6c0,0.3,0,0.4-0.2,0.6c-0.1,0.2-0.3,0.3-0.5,0.3c-0.2,0-0.5,0-0.7,0H177c-0.3,0-0.5,0-0.7,0
					c-0.2,0-0.4-0.1-0.6-0.2c-0.2-0.1-0.4-0.3-0.4-0.6c-0.1-0.3-0.2-0.5-0.3-0.8c-0.2-0.3-0.4-0.7-0.7-1c-0.2-0.3-0.5-0.6-0.9-0.8
					c-0.5-0.3-1-0.6-1.7-0.8c-0.1-0.1-0.3-0.1-0.4-0.1c-0.1,0-0.3,0-0.4-0.1c-0.1,0-0.2,0-0.3,0c-0.3,0-0.7-0.1-1.1,0
					c-0.4,0-0.8,0.1-1,0.1c-0.2,0.1-0.3,0.1-0.5,0.1c-0.1,0-0.3,0.1-0.4,0.1c-0.6,0.3-1.2,0.6-1.7,0.9c-0.5,0.4-0.9,0.8-1.3,1.4
					c-0.3,0.5-0.6,1-0.8,1.5c-0.2,0.5-0.4,1.1-0.5,1.7c-0.1,0.3-0.1,0.5-0.1,0.8c0,0.3-0.1,0.5-0.1,0.8v0.5c0,0.1-0.1,0.3-0.1,0.5
					c0,0.2,0,0.3,0,0.5c0,0.4,0,0.8,0,1.2c0,0.4,0.1,0.8,0.2,1.2c0,0.1,0,0.2,0,0.3c0,0.1,0,0.2,0,0.3c0.3,1.2,0.8,2.3,1.4,3.1
					c0.6,0.9,1.4,1.5,2.5,2c0.2,0.1,0.4,0.2,0.7,0.3c0.2,0.1,0.5,0.1,0.7,0.2c0.1,0,0.3,0,0.4,0c0.1,0,0.3,0,0.4,0.1
					c0.1,0,0.3,0.1,0.5,0.1c0.2,0,0.4,0,0.6-0.1c0.1,0,0.2,0,0.3,0c0.1,0,0.2,0,0.3,0c0.1,0,0.2,0,0.3,0c0.1,0,0.2,0,0.3-0.1
					c0.3-0.1,0.7-0.2,0.9-0.3c0.3-0.1,0.6-0.2,0.8-0.3c0.6-0.4,1.1-0.8,1.5-1.3c0.4-0.5,0.7-1.1,0.9-1.8c0.1-0.3,0.2-0.6,0.2-0.9
					c0-0.4-0.1-0.6-0.3-0.8c-0.1-0.1-0.3-0.1-0.6-0.1c-0.2,0-0.5,0-0.7,0h-1.9c-0.1,0-0.3,0-0.5,0c-0.2,0-0.3,0-0.5-0.1h-0.3
					c-0.1,0-0.2,0-0.3-0.1c-0.1,0-0.2,0-0.3-0.1c-0.1-0.1-0.2-0.2-0.3-0.4c0-0.2-0.1-0.4-0.1-0.6c0-0.2,0-0.5,0-0.7
					c0-0.3,0-0.5,0-0.7c0-0.2,0-0.4,0-0.5c0-0.2,0-0.3,0.1-0.4c0.1-0.2,0.2-0.4,0.4-0.4c0.2,0,0.3-0.1,0.4-0.1h0.4
					c0.1,0,0.2,0,0.3,0c0.1,0,0.2,0,0.3,0h1.1h5.3c0.4,0,0.9,0,1.4,0c0.5,0,0.9,0.1,1,0.3c0.1,0.2,0.2,0.4,0.2,0.8
					c0,0.3,0,0.6,0,0.9v3.8v5.9c0,0.5,0,0.9,0,1.3c0,0.4-0.2,0.7-0.5,0.8c-0.1,0.1-0.3,0.1-0.5,0.1s-0.4,0-0.6,0
					c-0.5,0-0.9,0-1.2-0.1c-0.3,0-0.6-0.2-0.7-0.6c-0.1-0.2-0.2-0.5-0.2-0.7c-0.1-0.3-0.1-0.5-0.3-0.7c0-0.1-0.1-0.1-0.2-0.2
					c-0.1-0.1-0.2-0.1-0.3-0.1c-0.2,0.1-0.4,0.1-0.5,0.3c-0.1,0.1-0.3,0.3-0.4,0.4c-0.2,0.2-0.5,0.4-0.7,0.5
					c-0.2,0.2-0.5,0.3-0.7,0.5c-0.3,0.2-0.6,0.4-1,0.5c-0.4,0.1-0.7,0.2-1.1,0.4c-0.1,0-0.2,0.1-0.4,0.1c-0.1,0-0.3,0-0.4,0.1
					c-0.2,0-0.4,0.1-0.6,0.1c-0.2,0-0.4,0-0.7,0.1c-0.1,0-0.2,0-0.4,0c-0.2,0-0.3,0-0.4-0.1h-0.4c-0.1,0-0.2,0-0.3,0
					c-0.1,0-0.2,0-0.3,0h-0.3c-0.2,0-0.4-0.1-0.6-0.1c-0.2,0-0.4-0.1-0.6-0.1c-0.2-0.1-0.3-0.1-0.5-0.1c-0.2,0-0.3-0.1-0.5-0.1
					c-0.7-0.2-1.4-0.5-1.9-0.8c-1.4-0.8-2.6-1.6-3.5-2.7c-0.9-1-1.7-2.3-2.3-3.8c-0.1-0.3-0.3-0.7-0.3-1c-0.1-0.3-0.2-0.7-0.3-1
					c0-0.1,0-0.2,0-0.3c0-0.1,0-0.2-0.1-0.3c0-0.2-0.1-0.3-0.1-0.5c0-0.2,0-0.4-0.1-0.6c-0.1-0.1-0.1-0.2-0.1-0.3c0-0.1,0-0.2,0-0.3
					v-0.7c0-0.1-0.1-0.3-0.1-0.6c0-0.3,0-0.4,0.1-0.6v-0.4c0-0.1,0-0.3,0-0.4c0-0.2,0-0.3,0.1-0.4c0-0.2,0.1-0.4,0.1-0.7
					c0-0.2,0-0.4,0.1-0.6c0.1-0.3,0.1-0.5,0.2-0.8c0.1-0.3,0.1-0.5,0.2-0.8c0.1-0.3,0.2-0.7,0.3-1c0.1-0.3,0.2-0.7,0.4-1
					c0.1-0.3,0.3-0.7,0.5-1c0.2-0.3,0.4-0.6,0.6-0.9c0.7-1,1.5-1.9,2.5-2.6c0.9-0.7,2-1.3,3.3-1.8c0.3-0.1,0.6-0.2,0.9-0.3
					c0.3-0.1,0.6-0.1,0.9-0.2c0.1,0,0.2-0.1,0.4-0.1c0.1,0,0.3,0,0.4-0.1c0.2,0,0.3-0.1,0.5,0c0.2,0,0.3,0,0.5,0c0.1,0,0.1,0,0.2,0
					C169.4,18.6,169.5,18.6,169.5,18.5z"/>
				<path class="st5" d="M202.7,35.5c0.1,0.2,0.1,0.4,0,0.7c0,0.2-0.1,0.4-0.2,0.5c-0.1,0.1-0.3,0.2-0.5,0.2c-0.2,0-0.5,0.1-0.8,0.1
					c-0.3,0-0.6,0-0.8,0c-0.3,0-0.5,0-0.7,0h-8.9c-0.2,0-0.3,0-0.5,0s-0.3,0-0.4,0.1c-0.2,0.1-0.3,0.2-0.4,0.3c0,0-0.1,0.1-0.1,0.3
					c0,0.1-0.1,0.3,0,0.4c0,0.1,0.1,0.3,0.1,0.4c0,0.1,0,0.3,0.1,0.4c0.2,0.6,0.4,1.1,0.7,1.4c0.3,0.4,0.7,0.7,1.1,1
					c0.2,0.1,0.4,0.2,0.6,0.2c0.2,0,0.4,0.1,0.6,0.2c0.2,0,0.5,0.1,0.8,0.1c0.3,0,0.6,0,0.9,0h0.3c0.2,0,0.5-0.1,0.7-0.2
					c0.2-0.1,0.4-0.1,0.6-0.2c0.2-0.1,0.5-0.3,0.8-0.5c0.3-0.2,0.5-0.4,0.7-0.6c0.1-0.2,0.2-0.3,0.4-0.5c0.1-0.2,0.3-0.3,0.5-0.3
					c0.2-0.1,0.6-0.2,0.9-0.2c0.4,0,0.7,0,1,0c0.2,0,0.3,0,0.5,0c0.2,0,0.3,0,0.4,0.1h0.4c0.2,0.1,0.4,0.1,0.5,0.2
					c0.1,0.1,0.2,0.2,0.2,0.3c0,0.2,0,0.3-0.1,0.4c-0.1,0.3-0.3,0.6-0.4,0.9c-0.1,0.3-0.3,0.5-0.5,0.8c-0.5,0.8-1.1,1.4-1.8,1.9
					c-0.7,0.5-1.5,0.9-2.5,1.2c-0.3,0.1-0.5,0.2-0.8,0.2c-0.3,0-0.5,0.1-0.8,0.1c-0.1,0-0.2,0-0.3,0c-0.1,0-0.2,0-0.3,0h-0.4
					c-0.1,0-0.3,0.1-0.4,0.1c-0.2,0-0.3,0-0.4-0.1c-0.2,0-0.4,0-0.5,0c-0.1,0-0.3,0-0.5,0c-0.1,0-0.3-0.1-0.4-0.1
					c-0.1,0-0.3,0-0.4-0.1c-0.3-0.1-0.5-0.1-0.8-0.2c-0.3-0.1-0.5-0.1-0.7-0.3c-0.3-0.1-0.5-0.2-0.7-0.3c-0.2-0.1-0.4-0.2-0.6-0.3
					c-0.8-0.5-1.5-1-2.1-1.7c-0.6-0.6-1.1-1.4-1.5-2.2c-0.1-0.3-0.2-0.5-0.3-0.8c-0.1-0.3-0.2-0.6-0.3-0.8c0-0.1,0-0.2,0-0.3
					c0-0.1,0-0.2,0-0.3c-0.1-0.3-0.2-0.6-0.2-0.9c0-0.3-0.1-0.7-0.1-1c0-0.1,0-0.3,0-0.4c0-0.1,0-0.3,0-0.4v-0.4l0.1-0.9
					c0.1-0.4,0.2-0.8,0.3-1.2c0.1-0.4,0.2-0.8,0.3-1.1c1-2.5,2.8-4.3,5.3-5.3c0.3-0.1,0.7-0.2,1-0.3c0.4-0.1,0.7-0.1,1.1-0.2
					c0.2,0,0.4,0,0.5,0c0.2,0,0.4,0,0.5,0c1.2,0,2.3,0.1,3.2,0.4c0.9,0.3,1.7,0.7,2.4,1.2c0.2,0.1,0.4,0.3,0.7,0.5
					c0.2,0.2,0.4,0.4,0.6,0.6c0.1,0.1,0.2,0.2,0.3,0.3c0.2,0.3,0.4,0.5,0.5,0.8c0.2,0.3,0.4,0.6,0.6,0.9c0.1,0.2,0.2,0.4,0.3,0.7
					c0.1,0.2,0.2,0.5,0.3,0.7c0.1,0.3,0.2,0.6,0.3,1c0.1,0.3,0.2,0.7,0.3,1c0,0.2,0.1,0.4,0.1,0.6c0,0.2,0,0.4,0.1,0.6V35.5z
					 M197.3,33.4c0.2-0.2,0.2-0.5,0.1-0.9c-0.1-0.3-0.2-0.6-0.3-0.8c-0.3-0.7-0.8-1.2-1.3-1.5c-0.6-0.4-1.3-0.5-2.3-0.6
					c-0.1,0.1-0.2,0.1-0.3,0c-0.1,0-0.2,0-0.2,0c-0.1,0-0.3,0.1-0.4,0.1c-0.1,0-0.3,0-0.4,0.1c-1.1,0.3-1.9,1-2.4,2
					c-0.1,0.1-0.1,0.2-0.2,0.4c-0.1,0.2-0.1,0.3-0.1,0.5c0,0.2,0,0.3,0,0.5c0,0.1,0.1,0.3,0.2,0.4c0.2,0.1,0.5,0.2,0.8,0.2
					c0.3,0,0.7,0,1,0h4c0.3,0,0.7,0,1.1,0C196.9,33.7,197.2,33.6,197.3,33.4z"/>
				<path class="st5" d="M207.9,20.8h2.4c0.4,0,0.7,0,1,0.1c0.3,0,0.5,0.2,0.6,0.5c0.1,0.1,0.1,0.3,0.1,0.4c0,0.2,0,0.3,0,0.5v1.6
					c0,0.1,0,0.3,0,0.4c0,0.2,0,0.3,0,0.4v0.4c0,0.2,0,0.4,0,0.5c0,0.2,0.1,0.3,0.2,0.4c0.2,0.2,0.5,0.3,0.9,0.3c0.4,0,0.9,0,1.3,0
					c0.2,0,0.3,0,0.4,0c0.1,0,0.3,0,0.4,0.1c0.3,0.1,0.4,0.3,0.5,0.6c0,0.3,0.1,0.7,0.1,1.1c0,0.2,0,0.3,0,0.5c0,0.2,0,0.3-0.1,0.4
					c-0.1,0.4-0.4,0.6-0.8,0.6c-0.4,0-0.8,0-1.3,0c-0.1,0-0.2,0-0.3,0c-0.1,0-0.2,0-0.3,0c-0.1,0-0.2,0-0.3,0c-0.1,0-0.1,0-0.2,0.1
					c-0.2,0.1-0.3,0.1-0.4,0.3c-0.1,0.2-0.2,0.3-0.2,0.6c0,0.1,0,0.3,0,0.4c0,0.1,0,0.3,0,0.4v2.3V38c0,0.6,0,1.1,0.1,1.6
					c0,0.5,0.2,0.8,0.5,1.2c0.1,0.1,0.3,0.2,0.5,0.3c0.2,0.1,0.4,0.1,0.6,0.2c0.1,0,0.1,0,0.2,0c0.1,0,0.1,0,0.2,0h0.4
					c0.3,0,0.5,0,0.7,0c0.2,0,0.3,0.1,0.5,0.3c0.1,0.1,0.1,0.3,0.1,0.6c0,0.2,0,0.5,0,0.7c0,0.5,0,1,0,1.4c0,0.4-0.2,0.7-0.6,0.9
					c-0.1,0.1-0.2,0.1-0.3,0.1c-0.1,0-0.2,0-0.3,0.1h-0.4c-0.1,0-0.1,0-0.2,0c-0.1,0-0.2,0-0.3,0c-0.1,0-0.2,0-0.4,0
					c-0.1,0-0.3,0-0.4,0c-0.1,0-0.2,0-0.4,0c-0.1,0-0.2,0-0.3,0h-0.4c-0.1,0-0.3,0-0.4,0c-0.1,0-0.3,0-0.4,0c-0.2,0-0.3-0.1-0.5-0.1
					c-0.1,0-0.3,0-0.4-0.1c-0.3-0.1-0.5-0.2-0.8-0.3c-0.2-0.1-0.5-0.2-0.7-0.3c-0.1-0.1-0.1-0.1-0.2-0.2c-0.1-0.1-0.2-0.1-0.3-0.2
					c-0.1-0.1-0.1-0.1-0.2-0.2c-0.1-0.1-0.1-0.1-0.2-0.2c-0.3-0.5-0.6-1-0.8-1.5c-0.1-0.1-0.1-0.2-0.1-0.3c0-0.1,0-0.2,0-0.3
					c0,0,0-0.1,0-0.2c0-0.1,0-0.1,0-0.2v-0.4c0-0.1,0-0.2,0-0.3c0-0.1,0-0.3,0-0.4v-1.4v-5.4v-1.9c0-0.2,0-0.3,0-0.5
					c0-0.2,0-0.3-0.1-0.5c-0.1-0.3-0.3-0.6-0.5-0.7c-0.3-0.1-0.6-0.1-1-0.1c-0.4,0-0.8,0-1.1-0.1c-0.2-0.1-0.3-0.2-0.4-0.3
					c0-0.1-0.1-0.3-0.1-0.5V28c0-0.4,0-0.8,0.1-1.1c0.1-0.3,0.3-0.4,0.6-0.5c0.1,0,0.2-0.1,0.3-0.1c0.1,0,0.2,0,0.3,0
					c0.4,0,0.7,0,1-0.1c0.3,0,0.5-0.2,0.6-0.4c0.1-0.2,0.1-0.4,0.1-0.6c0-0.2,0-0.4,0-0.7v-2.2c0-0.2,0-0.4,0-0.6
					c0-0.2,0-0.4,0.1-0.5c0.1-0.2,0.3-0.4,0.5-0.5c0,0,0.1,0,0.2,0C207.7,20.8,207.8,20.8,207.9,20.8z"/>
				<path class="st5" d="M276.1,65.6c0,0.1,0.1,0.4,0.1,0.6c0,0.3,0,0.5-0.1,0.6v0.4c-0.1,0.2-0.1,0.4-0.1,0.6c0,0.2,0,0.4-0.1,0.6
					c0,0.2-0.1,0.3-0.1,0.5c0,0.1-0.1,0.3-0.1,0.5c-0.1,0.3-0.2,0.5-0.3,0.8c-0.1,0.3-0.2,0.5-0.3,0.8c-0.5,1.2-1.2,2.1-2,2.8
					c-0.8,0.7-1.8,1.3-3,1.8c-0.3,0.1-0.6,0.2-0.9,0.3c-0.3,0.1-0.6,0.1-0.9,0.2c-0.1,0-0.3,0.1-0.4,0.1c-0.1,0-0.3,0-0.4,0
					c-0.1,0-0.1,0-0.2,0c-0.1,0-0.2,0-0.2,0c-0.1,0-0.3,0-0.6,0.1c-0.3,0-0.5,0-0.6-0.1h-0.4c-0.1,0-0.2,0-0.4,0
					c-0.1,0-0.3,0-0.4-0.1c-0.1,0-0.2,0-0.3,0c-0.1,0-0.2,0-0.3,0c-0.2-0.1-0.5-0.1-0.7-0.2c-0.2-0.1-0.5-0.1-0.7-0.2
					c-0.3-0.1-0.6-0.2-0.8-0.3c-0.3-0.1-0.5-0.2-0.8-0.4c-0.9-0.5-1.6-1.1-2.2-1.8c-0.6-0.7-1.1-1.5-1.5-2.4
					c-0.1-0.2-0.2-0.4-0.3-0.7c-0.1-0.2-0.1-0.5-0.2-0.8c0-0.1-0.1-0.2-0.1-0.3c0-0.1,0-0.2-0.1-0.3c-0.1-0.2-0.1-0.4-0.1-0.6
					c0-0.2,0-0.4-0.1-0.6c0-0.1,0-0.2,0-0.3c0-0.1,0-0.2,0-0.3c0-0.1-0.1-0.4-0.1-0.6c0-0.3,0-0.5,0.1-0.6v-0.3c0-0.1,0-0.2,0-0.4
					c0-0.1,0-0.3,0.1-0.4c0-0.1,0-0.2,0-0.3c0-0.1,0-0.2,0.1-0.3c0.1-0.3,0.2-0.6,0.3-0.9c0.1-0.3,0.2-0.6,0.3-0.9
					c0.4-1,1-1.8,1.6-2.5c0.6-0.7,1.3-1.3,2.2-1.8c0.2-0.1,0.5-0.2,0.8-0.3c0.3-0.1,0.5-0.2,0.8-0.3c0.3-0.1,0.6-0.2,1-0.3
					c0.3,0,0.7-0.1,1.1-0.2c0.2,0,0.4,0,0.5,0c0.2,0,0.3,0,0.5,0c1.4,0,2.6,0.1,3.6,0.4c1,0.3,1.9,0.8,2.7,1.3
					c0.3,0.2,0.5,0.4,0.8,0.6c0.3,0.2,0.5,0.5,0.7,0.7c0.2,0.2,0.4,0.5,0.5,0.7c0.2,0.2,0.3,0.5,0.5,0.8c0.2,0.3,0.3,0.6,0.4,0.9
					c0.1,0.3,0.2,0.6,0.3,1c0.1,0.2,0.1,0.4,0.2,0.6c0,0.2,0.1,0.4,0.1,0.6c0,0.1,0,0.2,0,0.3c0,0.1,0,0.2,0,0.3
					c0,0.1,0.1,0.3,0,0.4C276,65.3,276,65.5,276.1,65.6z M271,66.9c0-0.1,0-0.3,0-0.5c0-0.2,0-0.4,0-0.5v-0.3c0-0.1-0.1-0.3-0.1-0.4
					c0-0.1,0-0.3,0-0.4c0-0.1,0-0.2,0-0.2c-0.1-0.2-0.1-0.4-0.1-0.6c0-0.2-0.1-0.4-0.2-0.6c-0.3-0.6-0.6-1.2-0.9-1.6
					c-0.4-0.4-0.8-0.8-1.5-1.1c-0.1,0-0.3-0.1-0.4-0.1c-0.1,0-0.3-0.1-0.5-0.1c-0.2,0-0.4-0.1-0.6-0.1c-0.2,0-0.4,0-0.7,0
					c-0.1,0-0.2,0.1-0.3,0.1c-0.1,0-0.2,0-0.3,0c-0.2,0-0.3,0.1-0.5,0.1c-0.2,0-0.3,0.1-0.4,0.2c-0.6,0.3-1.1,0.6-1.5,1.1
					c-0.4,0.5-0.7,1.1-0.9,1.7c-0.1,0.2-0.1,0.5-0.2,0.8c0,0.3-0.1,0.5-0.1,0.8c0,0.1,0,0.2,0,0.4c0,0.1,0,0.2,0,0.4
					c-0.1,0.2-0.1,0.4-0.1,0.8c0,0.3,0,0.6,0.1,0.8v0.3c0,0.2,0.1,0.4,0.1,0.6c0,0.2,0.1,0.4,0.1,0.6c0.2,0.7,0.5,1.3,0.8,1.7
					c0.3,0.5,0.7,0.9,1.3,1.2c0.2,0.1,0.4,0.2,0.6,0.3c0.2,0.1,0.4,0.1,0.6,0.2c0.1,0,0.2,0,0.3,0c0.1,0,0.2,0,0.3,0
					c0.1,0,0.2,0,0.3,0.1c0.1,0,0.2,0,0.3,0h0.3c0.2-0.1,0.4-0.1,0.6-0.1c0.2,0,0.4-0.1,0.5-0.1c0.6-0.2,1.1-0.6,1.5-1
					c0.4-0.4,0.7-0.9,1-1.5c0.1-0.2,0.2-0.5,0.2-0.7c0-0.2,0.1-0.5,0.2-0.8c0-0.1,0-0.2,0-0.3c0-0.1,0-0.2,0-0.3c0-0.1,0-0.2,0-0.3
					C271,67.1,271,67,271,66.9z"/>
				<path class="st5" d="M289.7,56.5c1.5,0,2.7,0.2,3.6,0.6c1,0.5,1.7,1.1,2.3,2c0.2,0.3,0.3,0.5,0.4,0.8c0.1,0.3,0.2,0.6,0.3,0.9
					c0,0.2,0.1,0.4,0.1,0.5c0,0.2,0,0.3,0.1,0.5c0,0.1,0,0.2,0,0.3c0,0.3,0.1,0.7,0.1,1c0,0.4,0,0.7,0,1v3.2v5.9c0,0.5,0,0.9,0,1.3
					c0,0.4-0.2,0.7-0.5,0.8c-0.1,0.1-0.3,0.1-0.5,0.1c-0.2,0-0.4,0-0.6,0h-2c-0.3,0-0.5,0-0.8-0.1c-0.2,0-0.4-0.1-0.5-0.3
					c-0.1-0.1-0.1-0.3-0.2-0.6c0-0.2,0-0.5,0-0.7v-2.5v-5.4c0-0.9,0-1.7-0.1-2.5c-0.1-0.8-0.3-1.4-0.7-1.9c-0.3-0.5-0.8-0.8-1.5-1
					c-0.1,0-0.3-0.1-0.4-0.1c-0.1,0-0.3,0-0.4-0.1c-0.1,0-0.3,0-0.5,0c-0.2,0-0.3,0-0.4,0c-0.1,0-0.2,0-0.3,0c-0.1,0-0.1,0-0.2,0
					c-0.6,0.1-1,0.3-1.3,0.6c-0.8,0.6-1.2,1.4-1.4,2.4c-0.2,1.1-0.2,2.3-0.2,3.6v4.5V74c0,0.2,0,0.4,0,0.6c0,0.2,0,0.4-0.1,0.5
					c-0.1,0.3-0.3,0.4-0.6,0.5c-0.3,0.1-0.6,0.1-1,0.1h-1.8c-0.3,0-0.5,0-0.8,0c-0.3,0-0.5-0.1-0.6-0.3c-0.2-0.2-0.2-0.5-0.2-0.9
					c0-0.4,0-0.8,0-1.2v-4.9v-8v-1.9c0-0.3,0-0.5,0-0.7c0-0.2,0.1-0.4,0.2-0.5c0.1-0.1,0.1-0.1,0.2-0.2c0.1,0,0.2-0.1,0.3-0.1h0.2
					c0.1,0,0.3,0,0.4,0c0.1,0,0.3,0,0.4,0h1.5c0.2,0,0.4,0,0.6,0c0.2,0,0.3,0,0.5,0.1c0.2,0.1,0.3,0.2,0.3,0.3
					c0.1,0.1,0.1,0.3,0.2,0.5c0,0.1,0,0.2,0,0.3c0,0.1,0,0.1,0.1,0.2c0,0.1,0.1,0.2,0.1,0.2c0,0,0.1,0.1,0.2,0.1
					c0.3,0,0.5-0.1,0.6-0.3c0.2-0.2,0.4-0.4,0.6-0.5c0.6-0.5,1.4-0.9,2.2-1.2c0.2-0.1,0.4-0.1,0.7-0.1c0.2,0,0.5-0.1,0.7-0.1
					c0.1,0,0.2,0,0.3,0C289.6,56.6,289.6,56.6,289.7,56.5z"/>
				<path class="st5" d="M317.9,66.2c0,0.2,0,0.4,0,0.7c0,0.2-0.1,0.4-0.3,0.5c-0.1,0.1-0.3,0.2-0.5,0.2c-0.2,0-0.5,0.1-0.8,0.1
					c-0.3,0-0.6,0-0.8,0c-0.3,0-0.5,0-0.7,0h-8.8c-0.2,0-0.3,0-0.5,0c-0.2,0-0.3,0-0.4,0.1c-0.2,0.1-0.3,0.2-0.4,0.3
					c0,0.1-0.1,0.1-0.1,0.3c0,0.1-0.1,0.3,0,0.4c0.1,0.1,0.1,0.3,0.1,0.4c0,0.1,0,0.3,0.1,0.4c0.2,0.6,0.4,1.1,0.7,1.4
					c0.3,0.4,0.7,0.7,1.1,1c0.2,0.1,0.4,0.2,0.6,0.2c0.2,0,0.4,0.1,0.6,0.2c0.2,0.1,0.5,0.1,0.8,0.1c0.3,0,0.6,0,0.9,0h0.3
					c0.2,0,0.5-0.1,0.7-0.2c0.2-0.1,0.4-0.1,0.6-0.2c0.2-0.1,0.5-0.3,0.8-0.5c0.3-0.2,0.5-0.4,0.7-0.6c0.1-0.2,0.3-0.3,0.4-0.5
					c0.1-0.2,0.3-0.3,0.5-0.3c0.2-0.1,0.6-0.2,0.9-0.2c0.4,0,0.7,0,1,0c0.2,0,0.3,0,0.5,0c0.2,0,0.3,0,0.4,0.1h0.4
					c0.2,0,0.4,0.1,0.5,0.2c0.1,0.1,0.1,0.2,0.2,0.3c0,0.2,0,0.3-0.1,0.4c-0.1,0.3-0.2,0.6-0.4,0.9c-0.1,0.3-0.3,0.5-0.5,0.8
					c-0.5,0.8-1.1,1.4-1.8,1.9c-0.7,0.5-1.5,0.9-2.5,1.2c-0.3,0.1-0.5,0.2-0.8,0.2c-0.3,0-0.5,0.1-0.8,0.1c-0.1,0-0.2,0-0.3,0
					c-0.1,0-0.2,0-0.3,0h-0.4c-0.1,0.1-0.3,0.1-0.4,0.1c-0.2,0-0.3,0-0.4-0.1c-0.2,0-0.4,0-0.5,0c-0.2,0-0.3,0-0.5,0
					c-0.1-0.1-0.2-0.1-0.4-0.1c-0.1,0-0.3,0-0.4-0.1c-0.3-0.1-0.5-0.1-0.8-0.2c-0.3-0.1-0.5-0.1-0.7-0.3c-0.3-0.1-0.5-0.2-0.8-0.3
					c-0.2-0.1-0.4-0.2-0.6-0.3c-0.8-0.5-1.5-1-2.1-1.7c-0.6-0.6-1.1-1.4-1.5-2.2c-0.1-0.3-0.2-0.5-0.3-0.8c-0.1-0.3-0.2-0.6-0.3-0.9
					c0-0.1,0-0.2,0-0.3c0-0.1,0-0.2,0-0.3c-0.1-0.3-0.2-0.6-0.2-1c0-0.3,0-0.7-0.1-1c0-0.1,0-0.3,0-0.4c0-0.1,0-0.3,0-0.4v-0.4
					l0.1-0.9c0.1-0.4,0.2-0.8,0.3-1.2c0.1-0.4,0.2-0.8,0.3-1.1c1-2.5,2.8-4.3,5.3-5.3c0.3-0.1,0.7-0.2,1-0.3
					c0.3-0.1,0.7-0.1,1.1-0.2c0.2,0,0.4,0,0.5,0c0.2,0,0.4,0,0.5,0c1.2,0,2.3,0.1,3.2,0.4c0.9,0.3,1.7,0.7,2.4,1.2
					c0.2,0.1,0.4,0.3,0.7,0.5c0.2,0.2,0.4,0.4,0.6,0.6c0.1,0.1,0.2,0.2,0.3,0.3c0.2,0.3,0.4,0.5,0.5,0.8c0.2,0.3,0.4,0.6,0.5,0.8
					c0.1,0.2,0.2,0.4,0.3,0.7c0.1,0.2,0.2,0.5,0.3,0.7c0.1,0.3,0.2,0.6,0.3,1c0.1,0.3,0.2,0.7,0.2,1c0,0.2,0.1,0.4,0.1,0.6
					c0,0.2,0,0.4,0.1,0.6V66.2z M312.4,64c0.2-0.2,0.2-0.5,0-0.9c-0.1-0.3-0.2-0.6-0.3-0.8c-0.3-0.7-0.8-1.2-1.3-1.5
					c-0.6-0.4-1.3-0.5-2.3-0.6c-0.1,0-0.2,0.1-0.3,0c-0.1,0-0.2,0-0.3,0c-0.1,0-0.3,0.1-0.4,0.1c-0.1,0-0.3,0-0.4,0.1
					c-1.1,0.3-1.9,1-2.4,2c-0.1,0.1-0.1,0.2-0.2,0.4c-0.1,0.2-0.1,0.3-0.1,0.5c0,0.2,0,0.3,0,0.5c0,0.1,0.1,0.3,0.2,0.4
					c0.2,0.1,0.5,0.2,0.8,0.2c0.3,0,0.7,0,1,0h4c0.3,0,0.7,0,1.1,0C312.1,64.3,312.3,64.2,312.4,64z"/>
				<path class="st5" d="M162.9,80.8c0.2,0.2,0.3,0.5,0.3,0.9c0,0.4,0,0.8,0,1.1c0,0.3,0,0.6,0,1c0,0.3-0.1,0.6-0.3,0.7
					c-0.1,0.1-0.3,0.2-0.6,0.2c-0.2,0-0.5,0-0.7,0h-2c-0.3,0-0.5,0-0.7,0c-0.2,0-0.4-0.1-0.5-0.2c-0.1-0.1-0.2-0.2-0.2-0.4
					c0-0.2-0.1-0.4-0.1-0.7c0-0.3,0-0.5,0-0.8c0-0.3,0-0.5,0-0.7c0-0.2,0-0.4,0-0.5c0-0.2,0.1-0.3,0.1-0.4c0-0.1,0.1-0.2,0.2-0.2
					c0.1,0,0.2-0.1,0.3-0.1c0.1,0,0.1,0,0.2,0c0.1,0,0.1,0,0.2,0h2.6c0.2,0,0.5,0,0.7,0C162.6,80.6,162.8,80.7,162.9,80.8z
					 M163.2,104.4c0,0.5,0,0.9,0,1.2c0,0.3-0.2,0.6-0.7,0.7c-0.1,0.1-0.3,0.1-0.5,0.1c-0.2,0-0.4,0-0.5,0h-2c-0.2,0-0.4,0-0.6,0
					c-0.2,0-0.4-0.1-0.5-0.2c-0.1-0.2-0.2-0.4-0.2-0.6c0-0.3,0-0.5,0-0.8V89.3c0-0.2,0-0.5,0-0.7c0-0.2,0.1-0.4,0.1-0.6
					c0.1-0.2,0.3-0.3,0.6-0.3c0,0,0.1,0,0.2,0c0.1,0,0.2,0,0.2,0h1.8c0.1,0,0.3,0,0.5,0c0.2,0,0.3,0,0.5,0h0.3
					c0.1,0,0.3,0.1,0.4,0.1c0.1,0,0.2,0.1,0.3,0.2c0.1,0.1,0.2,0.3,0.2,0.5c0,0.2,0,0.4,0,0.7V104.4z"/>
				<path class="st5" d="M177.5,87.2c1.5-0.1,2.7,0.2,3.6,0.6c1,0.5,1.7,1.1,2.3,2c0.2,0.3,0.3,0.5,0.4,0.9c0.1,0.3,0.2,0.6,0.3,0.9
					c0,0.2,0.1,0.4,0.1,0.5c0,0.2,0,0.3,0.1,0.5c0,0.1,0,0.2,0,0.3c0,0.3,0.1,0.7,0.1,1.1c0,0.4,0,0.7,0,1.1v3.2v5.9
					c0,0.5,0,0.9,0,1.3c0,0.4-0.2,0.7-0.5,0.8c-0.1,0.1-0.3,0.1-0.5,0.1c-0.2,0-0.4,0-0.6,0h-2c-0.3,0-0.6,0-0.8-0.1
					c-0.2,0-0.4-0.1-0.5-0.3c-0.1-0.1-0.2-0.3-0.2-0.6c0-0.2,0-0.5,0-0.7v-2.5v-5.4c0-0.9,0-1.7-0.1-2.5c-0.1-0.8-0.3-1.4-0.7-1.9
					c-0.3-0.5-0.8-0.8-1.5-1c-0.1,0-0.2-0.1-0.4-0.1c-0.1,0-0.3,0-0.4-0.1c-0.1,0-0.3,0-0.5,0c-0.2,0-0.3,0-0.4,0.1
					c-0.1,0-0.2,0-0.3,0c-0.1,0-0.1,0-0.2,0c-0.6,0.1-1,0.3-1.3,0.6c-0.8,0.6-1.2,1.4-1.4,2.4c-0.1,1.1-0.2,2.3-0.2,3.6v4.5v2.2
					c0,0.2,0,0.4,0,0.7c0,0.2,0,0.4-0.1,0.5c-0.1,0.3-0.3,0.4-0.6,0.5c-0.3,0.1-0.6,0.1-1,0.1h-1.8c-0.3,0-0.5,0-0.8,0
					c-0.3,0-0.5-0.1-0.6-0.3c-0.2-0.2-0.3-0.5-0.2-0.9c0-0.4,0-0.8,0-1.2v-4.9v-8v-1.8c0-0.3,0-0.5,0-0.7c0-0.2,0.1-0.4,0.2-0.5
					c0-0.1,0.1-0.1,0.2-0.2c0.1,0,0.2-0.1,0.3-0.1h0.2c0.1,0,0.2,0,0.4,0c0.1,0,0.3,0,0.4,0h1.5c0.2,0,0.4,0,0.6,0
					c0.2,0,0.3,0,0.5,0.1c0.2,0.1,0.3,0.2,0.3,0.3c0.1,0.2,0.1,0.3,0.2,0.5c0,0.1,0,0.2,0,0.2c0,0.1,0,0.2,0,0.2
					c0,0.1,0.1,0.2,0.1,0.2c0,0,0.1,0.1,0.2,0.1c0.3,0,0.5-0.1,0.6-0.3c0.2-0.2,0.3-0.4,0.5-0.5c0.6-0.5,1.4-0.9,2.2-1.2
					c0.2-0.1,0.4-0.1,0.7-0.2c0.2,0,0.5-0.1,0.7-0.1c0.1,0,0.2,0,0.3,0C177.3,87.2,177.4,87.2,177.5,87.2z"/>
				<path class="st5" d="M200,82.1h2.4c0.4,0,0.7,0,1,0.1c0.3,0,0.5,0.2,0.6,0.5c0.1,0.1,0.1,0.3,0.1,0.4c0,0.2,0,0.3,0,0.5v1.6
					c0,0.1,0,0.3,0,0.4c0,0.1,0,0.3,0,0.4v0.4c0,0.2,0,0.4,0,0.5c0,0.2,0.1,0.3,0.2,0.4c0.2,0.2,0.5,0.3,0.9,0.3c0.4,0,0.9,0,1.3,0
					c0.2,0,0.3,0,0.4,0c0.2,0,0.3,0,0.4,0.1c0.3,0.1,0.4,0.3,0.5,0.7c0,0.3,0.1,0.7,0.1,1c0,0.2,0,0.3,0,0.5c0,0.2,0,0.3-0.1,0.4
					c-0.1,0.4-0.4,0.6-0.8,0.6c-0.4,0-0.8,0-1.3,0c-0.1,0-0.2,0-0.3,0c-0.1,0-0.2,0-0.3,0c-0.1,0-0.2,0-0.3,0c-0.1,0-0.1,0-0.2,0.1
					c-0.2,0.1-0.3,0.2-0.4,0.3c-0.1,0.2-0.2,0.3-0.2,0.6c0,0.1,0,0.3,0,0.4c0,0.2,0,0.3,0,0.4v2.2v4.2c0,0.6,0,1.1,0.1,1.6
					c0,0.5,0.2,0.8,0.5,1.2c0.1,0.1,0.3,0.3,0.5,0.3c0.2,0.1,0.4,0.1,0.6,0.2c0.1,0,0.2,0,0.2,0c0.1,0,0.2,0,0.2,0h0.4
					c0.3,0,0.5,0,0.7,0c0.2,0,0.4,0.1,0.5,0.3c0.1,0.1,0.1,0.3,0.1,0.6c0,0.2,0,0.5,0,0.7c0,0.5,0,1,0,1.4c0,0.4-0.2,0.7-0.6,0.9
					c-0.1,0-0.2,0.1-0.3,0.1c-0.1,0-0.2,0-0.3,0.1h-0.4c-0.1,0-0.1,0-0.2,0c-0.1,0-0.2,0-0.3,0c-0.1,0-0.2,0-0.4,0
					c-0.1,0-0.3,0-0.4,0c-0.1,0-0.2,0-0.4,0c-0.1,0-0.2,0-0.3,0h-0.4c-0.1,0-0.3,0-0.4,0c-0.1,0-0.3,0-0.4,0c-0.2,0-0.3-0.1-0.5-0.1
					c-0.1,0-0.3-0.1-0.4-0.1c-0.3-0.1-0.5-0.2-0.8-0.3c-0.2-0.1-0.5-0.2-0.7-0.3c-0.1,0-0.1-0.1-0.2-0.2c-0.1-0.1-0.2-0.1-0.3-0.2
					c0-0.1-0.1-0.1-0.2-0.2c-0.1-0.1-0.1-0.1-0.2-0.2c-0.3-0.5-0.6-1-0.8-1.5c-0.1-0.1-0.1-0.2-0.1-0.3c0-0.1,0-0.2,0-0.3
					c0,0,0-0.1,0-0.2c0-0.1,0-0.1,0-0.2v-0.4c0-0.1,0-0.2,0-0.3c0-0.1,0-0.2,0-0.4v-1.4v-5.4v-1.9c0-0.2,0-0.3,0-0.5
					c0-0.2,0-0.3-0.1-0.5c-0.1-0.3-0.3-0.6-0.5-0.7c-0.3-0.1-0.6-0.2-1-0.1c-0.4,0.1-0.8,0-1.1-0.1c-0.2-0.1-0.3-0.2-0.4-0.3
					c0-0.1-0.1-0.3-0.1-0.5v-0.8c0-0.4,0-0.8,0.1-1c0-0.3,0.3-0.4,0.6-0.5c0.1-0.1,0.2-0.1,0.3-0.1c0.1,0,0.2,0,0.3,0
					c0.4,0,0.7,0,1-0.1c0.3,0,0.5-0.2,0.7-0.4c0.1-0.2,0.1-0.4,0.1-0.6c0-0.2,0-0.4,0-0.7v-2.3c0-0.2,0-0.4,0-0.6
					c0-0.2,0-0.4,0.1-0.5c0.1-0.2,0.3-0.4,0.5-0.5c0,0,0.1,0,0.2,0C199.9,82.1,200,82.1,200,82.1z"/>
				<path class="st5" d="M210.9,80.6h2.5c0.2,0,0.5,0,0.7,0c0.2,0,0.4,0.1,0.6,0.2c0.2,0.1,0.3,0.3,0.3,0.6c0,0.1,0,0.2,0,0.3
					c0,0.1,0,0.2,0,0.3v1.3v4.2c0,0.2,0,0.4,0,0.6c0,0.2,0,0.4,0,0.6c0,0.2,0.1,0.4,0.2,0.5c0.1,0.1,0.2,0.2,0.4,0.2
					c0.1,0,0.1-0.1,0.1-0.1c0,0,0.1,0,0.1-0.1c0.2-0.1,0.3-0.3,0.5-0.4c0.2-0.2,0.3-0.3,0.5-0.4c0.3-0.2,0.5-0.4,0.8-0.5
					c0.3-0.1,0.6-0.3,0.9-0.4c0.1-0.1,0.2-0.1,0.3-0.1c0.1,0,0.2,0,0.3-0.1c0.2-0.1,0.5-0.1,0.8-0.1c0.3,0,0.6,0,0.9,0
					c0.1,0,0.2,0,0.3,0c0.1,0,0.2,0,0.3,0h0.2c0.2,0,0.3,0.1,0.5,0.1c0.2,0,0.3,0,0.5,0.1c0.4,0.1,0.8,0.3,1.1,0.4
					c0.4,0.1,0.7,0.3,1,0.5c0.5,0.3,1,0.8,1.3,1.3c0.3,0.5,0.6,1.1,0.8,1.7c0.1,0.2,0.1,0.4,0.1,0.6c0,0.2,0.1,0.4,0.1,0.6
					c0,0.2,0.1,0.5,0.1,0.7c0,0.2,0,0.5,0.1,0.7v0.4c0.1,0.2,0.1,0.4,0,0.6c0,0.2,0,0.4,0,0.6v2.6v5.7c0,0.4,0,0.8,0,1.3
					c0,0.5-0.1,0.8-0.3,1.1c-0.1,0.1-0.3,0.2-0.6,0.2c-0.3,0-0.5,0-0.8,0H224c-0.4,0-0.7,0-1-0.1c-0.3,0-0.5-0.2-0.6-0.5
					c-0.1-0.1-0.1-0.3-0.1-0.5c0-0.2,0-0.4,0-0.6v-2.1v-5.8c0-1,0-1.9-0.2-2.8c-0.1-0.9-0.4-1.5-0.9-2c-0.3-0.3-0.8-0.6-1.2-0.7
					c-0.1,0-0.2,0-0.2,0c-0.1,0-0.1,0-0.2,0c-0.1,0-0.2-0.1-0.4-0.1c-0.2,0-0.3,0-0.4,0c-0.1,0-0.3,0-0.5,0c-0.2,0-0.3,0-0.5,0.1
					c-0.6,0.1-1,0.4-1.4,0.7c-0.4,0.3-0.8,0.8-1,1.4c-0.2,0.6-0.4,1.2-0.4,1.9c-0.1,0.7-0.1,1.5-0.1,2.3c0,0.8,0,1.6,0,2.3v4.4
					c0,0.3,0,0.6,0,1c0,0.4-0.1,0.6-0.2,0.8c-0.1,0.1-0.2,0.2-0.3,0.2c-0.1,0-0.2,0.1-0.4,0.1c-0.2,0-0.3,0.1-0.5,0
					c-0.2,0-0.4,0-0.5,0c-0.2,0-0.5,0-0.8,0c-0.3,0-0.6,0-0.9,0c-0.3,0-0.6,0-0.8-0.1c-0.2,0-0.4-0.1-0.5-0.2
					c-0.1-0.1-0.2-0.3-0.2-0.6c0-0.3,0-0.5,0-0.8v-3.2V88V83c0-0.3,0-0.7,0-1.1c0-0.4,0-0.8,0.1-0.9c0.1-0.2,0.3-0.3,0.6-0.4
					c0,0,0.1,0,0.1,0C210.8,80.6,210.8,80.6,210.9,80.6z"/>
				<path class="st5" d="M248.7,96.8c0.1,0.2,0.1,0.4,0,0.6c0,0.2-0.1,0.4-0.3,0.5c-0.1,0.1-0.3,0.2-0.5,0.2c-0.2,0-0.5,0.1-0.8,0.1
					c-0.3,0-0.6,0-0.8,0c-0.3,0-0.5,0-0.7,0h-8.8c-0.2,0-0.3,0-0.5,0c-0.2,0-0.3,0-0.4,0.1c-0.2,0.1-0.3,0.2-0.4,0.3
					c-0.1,0-0.1,0.1-0.1,0.3c0,0.1-0.1,0.3,0,0.4c0,0.1,0.1,0.3,0.1,0.4c0,0.1,0,0.3,0.1,0.4c0.2,0.6,0.4,1.1,0.7,1.4
					c0.3,0.4,0.7,0.7,1.1,1c0.2,0.1,0.4,0.2,0.6,0.2c0.2,0,0.4,0.1,0.6,0.2c0.2,0,0.5,0.1,0.8,0.1c0.3,0,0.6,0,0.9,0h0.3
					c0.2,0,0.5-0.1,0.7-0.2c0.2-0.1,0.4-0.1,0.6-0.2c0.2-0.1,0.5-0.3,0.8-0.5c0.3-0.2,0.5-0.4,0.7-0.6c0.1-0.2,0.2-0.3,0.4-0.5
					c0.1-0.2,0.3-0.3,0.5-0.3c0.2-0.1,0.6-0.2,0.9-0.2c0.4,0,0.7,0,1,0c0.1,0,0.3,0,0.5,0c0.2,0,0.3,0,0.4,0.1h0.4
					c0.2,0,0.4,0.1,0.5,0.2c0.1,0.1,0.2,0.2,0.2,0.3c0,0.2,0,0.3-0.1,0.4c-0.1,0.3-0.3,0.6-0.4,0.9c-0.1,0.3-0.3,0.5-0.5,0.8
					c-0.5,0.8-1.1,1.4-1.8,1.9c-0.7,0.5-1.5,0.9-2.5,1.2c-0.3,0.1-0.5,0.2-0.8,0.2c-0.3,0-0.5,0.1-0.8,0.1c-0.1,0-0.2,0-0.3,0
					c-0.1,0-0.2,0-0.3,0h-0.4c-0.1,0.1-0.3,0.1-0.4,0.1c-0.2,0-0.3,0-0.4-0.1c-0.2,0-0.4,0-0.5,0c-0.1,0-0.3,0-0.5,0
					c-0.1,0-0.3-0.1-0.4-0.1c-0.1,0-0.3,0-0.4-0.1c-0.3-0.1-0.5-0.1-0.8-0.2c-0.3-0.1-0.5-0.2-0.7-0.3c-0.3-0.1-0.5-0.2-0.7-0.3
					c-0.2-0.1-0.4-0.2-0.6-0.3c-0.8-0.5-1.5-1-2.1-1.7c-0.6-0.6-1.1-1.4-1.5-2.2c-0.1-0.3-0.2-0.5-0.3-0.8c-0.1-0.3-0.2-0.6-0.3-0.8
					c0-0.1,0-0.2,0-0.3c0-0.1,0-0.2,0-0.3c-0.1-0.3-0.2-0.6-0.2-0.9c0-0.3-0.1-0.7-0.1-1c0-0.1,0-0.3,0-0.4c0-0.1,0-0.3,0-0.4v-0.4
					l0.1-0.9c0.1-0.4,0.2-0.8,0.3-1.2c0.1-0.4,0.2-0.8,0.3-1.1c1-2.5,2.8-4.3,5.3-5.3c0.3-0.1,0.7-0.2,1-0.3
					c0.4-0.1,0.7-0.1,1.1-0.2c0.2,0,0.4,0,0.5,0c0.2,0,0.4,0,0.5,0c1.2,0,2.3,0.1,3.2,0.4c0.9,0.3,1.7,0.7,2.4,1.2
					c0.2,0.1,0.4,0.3,0.7,0.5c0.2,0.2,0.4,0.4,0.6,0.6c0.1,0.1,0.2,0.2,0.3,0.3c0.2,0.3,0.4,0.5,0.5,0.8c0.2,0.3,0.4,0.6,0.6,0.9
					c0.1,0.2,0.2,0.4,0.3,0.7c0.1,0.2,0.2,0.5,0.3,0.7c0.1,0.3,0.2,0.6,0.3,1c0.1,0.3,0.2,0.7,0.3,1c0.1,0.2,0.1,0.4,0.1,0.6
					c0,0.2,0,0.4,0.1,0.6V96.8z M243.2,94.7c0.2-0.2,0.2-0.5,0.1-0.9c-0.1-0.3-0.2-0.6-0.3-0.8c-0.3-0.7-0.8-1.1-1.3-1.5
					c-0.6-0.4-1.3-0.5-2.3-0.6c-0.1,0-0.2,0.1-0.2,0c-0.1,0-0.2,0-0.3,0c-0.1,0.1-0.3,0.1-0.4,0.1c-0.1,0-0.3,0-0.4,0.1
					c-1.1,0.3-1.9,1-2.4,2c0,0.1-0.1,0.2-0.2,0.4c-0.1,0.2-0.1,0.3-0.1,0.5c0,0.2,0,0.3,0,0.4c0,0.1,0.1,0.3,0.2,0.4
					c0.2,0.1,0.5,0.2,0.8,0.2c0.3,0,0.7,0,1,0h4c0.3,0,0.7,0,1.1,0C242.9,95,243.1,94.9,243.2,94.7z"/>
				<path class="st5" d="M277.8,96.8c0,0.2,0,0.4,0,0.7c0,0.3,0,0.5-0.1,0.6v0.5c-0.1,0.3-0.1,0.5-0.1,0.8c0,0.2-0.1,0.5-0.1,0.7
					c-0.1,0.2-0.1,0.4-0.1,0.7c0,0.2-0.1,0.4-0.2,0.7c-0.2,0.4-0.3,0.8-0.5,1.1c-0.2,0.4-0.4,0.7-0.6,1c-0.1,0.2-0.3,0.4-0.4,0.6
					c-0.2,0.2-0.3,0.4-0.5,0.6l-0.3,0.3c-0.1,0.1-0.3,0.2-0.4,0.3c-0.1,0.1-0.3,0.2-0.4,0.3c-0.2,0.1-0.4,0.3-0.6,0.4
					c-0.2,0.1-0.5,0.2-0.7,0.3c-0.2,0.1-0.5,0.2-0.7,0.3c-0.3,0.1-0.5,0.1-0.8,0.1c-0.1,0-0.3,0.1-0.5,0.1c-0.2,0-0.3,0-0.5,0.1
					h-0.3c-0.2,0.1-0.4,0.1-0.5,0H269c-0.1,0-0.3-0.1-0.5-0.1c-0.2,0-0.3,0-0.4-0.1c-0.4-0.1-0.8-0.2-1.1-0.3
					c-0.4-0.1-0.7-0.2-1-0.4c-0.2-0.1-0.3-0.2-0.5-0.3c-0.1-0.1-0.3-0.2-0.5-0.3c-0.1-0.1-0.2-0.2-0.4-0.3c-0.2-0.2-0.4-0.2-0.5,0
					c-0.1,0.1-0.2,0.2-0.2,0.3c0,0.1,0,0.2-0.1,0.4c-0.1,0.2-0.1,0.5-0.1,0.8c0,0.3,0,0.6,0,0.9v3.7c0,0.3,0,0.6,0,0.9
					c0,0.3-0.1,0.5-0.2,0.7c-0.1,0.1-0.2,0.2-0.4,0.2c-0.2,0.1-0.4,0.1-0.7,0.1c-0.2,0-0.5,0-0.7,0c-0.2,0-0.5,0-0.6,0h-1
					c-0.1,0-0.2,0-0.2,0c-0.1,0-0.2,0-0.3,0h-0.3c-0.4-0.1-0.6-0.4-0.7-0.7c0-0.4,0-0.8,0-1.3V89.7c0-0.3,0-0.5,0-0.9
					c0-0.3,0-0.5,0.2-0.7c0.1-0.2,0.2-0.3,0.4-0.3c0.1-0.1,0.3-0.1,0.4-0.1c0.2,0,0.4,0,0.5,0h1.7c0.2,0,0.5,0,0.7,0
					c0.2,0,0.4,0.1,0.5,0.2c0.2,0.1,0.3,0.3,0.3,0.5c0,0.2,0.1,0.4,0.2,0.6c0,0.1,0.1,0.1,0.1,0.2c0,0,0.1,0.1,0.1,0.1
					c0.3,0,0.5,0,0.7-0.2c0.2-0.2,0.3-0.3,0.5-0.4c0.3-0.2,0.6-0.4,1-0.6c0.3-0.2,0.7-0.3,1.1-0.5c0.2-0.1,0.4-0.1,0.6-0.1
					c0.2,0,0.4-0.1,0.7-0.1c0.1,0,0.2,0,0.3,0c0.1,0,0.2,0,0.3,0c1.4-0.1,2.5,0.1,3.5,0.6c1,0.4,1.8,1,2.4,1.6
					c0.1,0.1,0.2,0.2,0.3,0.3c0.1,0.1,0.2,0.2,0.3,0.3c0.2,0.2,0.3,0.4,0.4,0.7c0.1,0.2,0.3,0.4,0.4,0.7c0.1,0,0.1,0.1,0.1,0.2
					c0,0.1,0,0.2,0.1,0.3c0.1,0.2,0.3,0.5,0.4,0.9c0.1,0.1,0.1,0.3,0.1,0.4c0.1,0.2,0.1,0.3,0.1,0.5c0.1,0.3,0.2,0.6,0.2,0.9
					c0,0.3,0.1,0.6,0.2,1c0,0.1,0,0.3,0,0.4c0,0.1,0,0.3,0.1,0.4V96.8z M272.7,97.6c0-0.1,0-0.3,0-0.5c0-0.2,0-0.4,0-0.5v-0.3
					c0-0.1-0.1-0.3-0.1-0.5c0-0.2,0-0.3-0.1-0.5c0-0.2-0.1-0.5-0.1-0.7c-0.1-0.2-0.1-0.4-0.2-0.6c-0.3-0.8-0.7-1.4-1.1-1.9
					c-0.5-0.5-1.1-0.8-2-1c-0.2,0-0.4-0.1-0.6-0.1c-0.2,0-0.5,0-0.7,0c-0.1,0-0.2,0-0.3,0c-0.1,0-0.2,0-0.3,0
					c-0.2,0.1-0.3,0.1-0.5,0.1c-0.2,0-0.3,0.1-0.5,0.2c-0.6,0.3-1.1,0.7-1.5,1.2c-0.4,0.6-0.6,1.2-0.9,1.8c-0.1,0.2-0.1,0.4-0.1,0.6
					c0,0.2-0.1,0.4-0.1,0.6c0,0.1,0,0.3,0,0.5c0,0.1-0.1,0.2,0,0.3c0,0.1,0,0.3,0,0.4c-0.1,0.1-0.1,0.3,0,0.4v0.4c0,0.1,0,0.2,0,0.3
					c0,0.1,0,0.2,0.1,0.3c0,0.2,0,0.3,0,0.4c0,0.1,0.1,0.3,0.1,0.4c0,0.1,0.1,0.3,0.1,0.4c0.2,0.7,0.5,1.3,0.8,1.7
					c0.3,0.4,0.7,0.8,1.3,1.2c0.3,0.2,0.7,0.4,1.2,0.5c0.1,0,0.2,0,0.3,0c0.1,0,0.2,0,0.3,0c0.1,0,0.2,0,0.4,0.1c0.2,0,0.3,0,0.5,0
					c0.2-0.1,0.4-0.1,0.6-0.1c0.2,0,0.4-0.1,0.6-0.2c0.6-0.2,1.1-0.6,1.4-1c0.4-0.4,0.7-0.9,0.9-1.5c0.1-0.3,0.2-0.6,0.3-0.9
					c0-0.3,0.1-0.6,0.2-1c0-0.1,0-0.2,0-0.4C272.7,97.9,272.7,97.8,272.7,97.6z"/>
				<path class="st5" d="M285.5,80.8c0.2,0.2,0.3,0.5,0.3,0.9c0,0.4,0,0.8,0,1.1c0,0.3,0,0.6,0,1c0,0.3-0.1,0.6-0.3,0.7
					c-0.1,0.1-0.3,0.2-0.6,0.2c-0.2,0-0.5,0-0.7,0h-2c-0.3,0-0.5,0-0.7,0c-0.2,0-0.4-0.1-0.5-0.2c-0.1-0.1-0.2-0.2-0.2-0.4
					c0-0.2-0.1-0.4-0.1-0.7c0-0.3,0-0.5,0-0.8c0-0.3,0-0.5,0-0.7c0-0.2,0-0.4,0-0.5c0-0.2,0.1-0.3,0.1-0.4c0-0.1,0.1-0.2,0.2-0.2
					c0.1,0,0.2-0.1,0.3-0.1c0.1,0,0.1,0,0.2,0c0.1,0,0.1,0,0.2,0h2.7c0.2,0,0.5,0,0.7,0C285.2,80.6,285.4,80.7,285.5,80.8z
					 M285.8,104.4c0,0.5,0,0.9,0,1.2c0,0.3-0.2,0.6-0.7,0.7c-0.1,0.1-0.3,0.1-0.5,0.1c-0.2,0-0.4,0-0.6,0h-2c-0.2,0-0.4,0-0.6,0
					c-0.2,0-0.4-0.1-0.4-0.2c-0.2-0.2-0.2-0.4-0.2-0.6c0-0.3,0-0.5,0-0.8V89.3c0-0.2,0-0.5,0-0.7c0-0.2,0-0.4,0.1-0.6
					c0.2-0.2,0.4-0.3,0.6-0.3c0,0,0.1,0,0.2,0c0.1,0,0.1,0,0.2,0h1.8c0.1,0,0.3,0,0.5,0c0.2,0,0.3,0,0.5,0h0.3
					c0.2,0,0.3,0.1,0.4,0.1c0.1,0,0.2,0.1,0.3,0.2c0.1,0.1,0.2,0.3,0.2,0.5c0,0.2,0,0.4,0,0.7V104.4z"/>
				<path class="st5" d="M298,87.2c2-0.1,3.6,0.2,4.9,0.9c1.3,0.6,2.4,1.5,3.1,2.7c0.4,0.6,0.7,1.2,0.9,2c0.1,0.1,0.1,0.3,0.1,0.5
					c0,0.2,0,0.4,0,0.5c-0.1,0.3-0.3,0.4-0.5,0.4c-0.2,0-0.5,0.1-0.9,0.1h-1.9c-0.2,0-0.4,0-0.7,0c-0.2,0-0.4-0.1-0.6-0.1
					c-0.2-0.1-0.3-0.2-0.4-0.5c-0.1-0.2-0.2-0.4-0.3-0.6c-0.1-0.3-0.3-0.5-0.5-0.7c-0.2-0.2-0.4-0.4-0.6-0.6
					c-0.3-0.2-0.7-0.4-1.1-0.5c-0.1,0-0.3-0.1-0.4-0.1c-0.2,0-0.3,0-0.4-0.1h-0.4c-0.5,0-0.9,0.1-1.2,0.1c-0.7,0.2-1.3,0.6-1.7,1
					c-0.4,0.4-0.8,1-1,1.6c-0.1,0.3-0.2,0.6-0.3,0.8c-0.1,0.3-0.1,0.6-0.2,1c0,0.1,0,0.2,0,0.3c0,0.1,0,0.2,0,0.3
					c0,0.2-0.1,0.6-0.1,1c0,0.4,0,0.8,0.1,1c0,0.2,0,0.3,0,0.4c0.1,0.2,0.1,0.3,0.1,0.5c0,0.2,0,0.3,0.1,0.5
					c0.2,0.6,0.4,1.1,0.7,1.5c0.3,0.5,0.6,0.8,1,1.2c0.1,0.1,0.2,0.2,0.4,0.3c0.3,0.2,0.5,0.3,0.8,0.3c0.3,0,0.6,0.1,1,0.1
					c0,0,0.1,0,0.2,0c0.1,0,0.2,0,0.2,0h0.3c0.2,0,0.3-0.1,0.5-0.1c0.2,0,0.3-0.1,0.5-0.1c0.7-0.3,1.3-0.8,1.7-1.4
					c0.1-0.1,0.2-0.3,0.3-0.4c0.1-0.2,0.1-0.3,0.2-0.4c0.1-0.3,0.2-0.5,0.3-0.7c0.1-0.2,0.2-0.4,0.5-0.5c0.2-0.1,0.6-0.1,1-0.1
					c0.5,0,0.9,0,1.2,0c0.2,0,0.3,0,0.5,0c0.2,0,0.3,0,0.5,0.1h0.3c0.1,0,0.2,0,0.3,0.1c0.1,0,0.2,0.1,0.2,0.1
					c0.1,0.1,0.2,0.2,0.2,0.4c0,0.2,0,0.4,0,0.6c-0.2,0.8-0.5,1.5-0.8,2.1c-1,1.9-2.6,3.2-4.8,3.9c-0.2,0.1-0.5,0.1-0.8,0.2
					c-0.3,0-0.5,0.1-0.8,0.2c-0.1,0-0.3,0-0.4,0c-0.1,0-0.3,0-0.4,0h-0.4c-0.1,0.1-0.3,0.1-0.6,0.1c-0.2,0-0.4,0-0.5-0.1
					c-0.2,0-0.4-0.1-0.5,0c-0.2,0-0.3,0-0.5-0.1c-0.1,0-0.2,0-0.4-0.1c-0.1,0-0.2,0-0.4-0.1c-0.3-0.1-0.5-0.1-0.8-0.2
					c-0.2-0.1-0.5-0.2-0.7-0.3c-1.1-0.5-2.1-1.1-2.9-1.9c-0.8-0.8-1.4-1.7-1.9-2.8c-0.1-0.2-0.2-0.5-0.3-0.7
					c-0.1-0.2-0.1-0.5-0.2-0.8c0-0.1,0-0.2,0-0.3c0-0.1,0-0.2-0.1-0.3c0-0.2-0.1-0.3-0.1-0.5s0-0.4-0.1-0.5v-0.6
					c-0.1-0.1-0.1-0.3-0.1-0.4c0-0.2,0-0.3,0.1-0.4c0-0.1,0-0.2,0-0.3c0-0.1,0-0.2,0-0.3c0.1-0.2,0.1-0.3,0.1-0.5
					c0-0.1,0-0.3,0.1-0.4c0.1-0.4,0.2-0.9,0.3-1.2c0.1-0.4,0.2-0.8,0.3-1.2c0.5-1.2,1.2-2.3,2-3.1c0.8-0.8,1.8-1.5,3.1-2
					c0.3-0.1,0.7-0.2,1-0.3c0.4-0.1,0.7-0.1,1.1-0.2c0.2,0,0.4,0,0.5,0C297.6,87.2,297.8,87.2,298,87.2z"/>
				<path class="st5" d="M312.3,82.1h2.4c0.4,0,0.7,0,1,0.1c0.3,0,0.5,0.2,0.6,0.5c0,0.1,0.1,0.3,0.1,0.4c0,0.2,0,0.3,0,0.5v1.6
					c0,0.1,0,0.3,0,0.4c0,0.1,0,0.3,0,0.4v0.4c0,0.2,0,0.4,0,0.5c0,0.2,0.1,0.3,0.2,0.4c0.2,0.2,0.5,0.3,0.9,0.3c0.4,0,0.9,0,1.3,0
					c0.2,0,0.3,0,0.4,0c0.1,0,0.3,0,0.4,0.1c0.3,0.1,0.4,0.3,0.5,0.7c0,0.3,0.1,0.7,0.1,1c0,0.2,0,0.3,0,0.5c0,0.2,0,0.3-0.1,0.4
					c-0.1,0.4-0.4,0.6-0.8,0.6c-0.4,0-0.8,0-1.3,0c-0.1,0-0.2,0-0.3,0c-0.1,0-0.2,0-0.3,0c-0.1,0-0.2,0-0.3,0c-0.1,0-0.2,0-0.2,0.1
					c-0.2,0.1-0.3,0.2-0.4,0.3c-0.1,0.2-0.1,0.3-0.2,0.6c0,0.1,0,0.3,0,0.4c0,0.2,0,0.3,0,0.4v2.2v4.2c0,0.6,0,1.1,0.1,1.6
					c0,0.5,0.2,0.8,0.5,1.2c0.1,0.1,0.3,0.3,0.5,0.3c0.2,0.1,0.4,0.1,0.6,0.2c0.1,0,0.2,0,0.2,0c0.1,0,0.1,0,0.2,0h0.4
					c0.3,0,0.5,0,0.7,0c0.2,0,0.3,0.1,0.5,0.3c0.1,0.1,0.2,0.3,0.2,0.6c0,0.2,0,0.5,0,0.7c0,0.5,0,1,0,1.4c0,0.4-0.2,0.7-0.6,0.9
					c-0.1,0-0.2,0.1-0.3,0.1c-0.1,0-0.2,0-0.3,0.1h-0.4c0,0-0.1,0-0.2,0c-0.1,0-0.2,0-0.3,0c-0.1,0-0.2,0-0.4,0c-0.1,0-0.3,0-0.4,0
					c-0.1,0-0.2,0-0.4,0c-0.1,0-0.2,0-0.3,0h-0.4c-0.1,0-0.3,0-0.4,0c-0.1,0-0.3,0-0.4,0c-0.2,0-0.3-0.1-0.5-0.1
					c-0.2,0-0.3-0.1-0.4-0.1c-0.3-0.1-0.5-0.2-0.8-0.3c-0.2-0.1-0.5-0.2-0.7-0.3c-0.1,0-0.1-0.1-0.2-0.2c-0.1-0.1-0.2-0.1-0.3-0.2
					c-0.1-0.1-0.1-0.1-0.2-0.2c-0.1-0.1-0.1-0.1-0.2-0.2c-0.3-0.5-0.6-1-0.8-1.5c0-0.1-0.1-0.2,0-0.3c0-0.1,0-0.2,0-0.3
					c0,0,0-0.1,0-0.2c0-0.1,0-0.1,0-0.2v-0.4c0-0.1,0-0.2,0-0.3c0-0.1,0-0.2,0-0.4v-1.4v-5.4v-1.9c0-0.2,0-0.3,0-0.5
					c0-0.2,0-0.3-0.1-0.5c-0.1-0.3-0.3-0.6-0.5-0.7c-0.3-0.1-0.6-0.2-1-0.1c-0.4,0.1-0.8,0-1-0.1c-0.2-0.1-0.3-0.2-0.4-0.3
					c-0.1-0.1-0.1-0.3-0.1-0.5v-0.8c0-0.4,0-0.8,0.1-1c0-0.3,0.3-0.4,0.6-0.5c0.1-0.1,0.2-0.1,0.3-0.1c0.1,0,0.2,0,0.3,0
					c0.4,0,0.7,0,1-0.1c0.3,0,0.5-0.2,0.6-0.4c0.1-0.2,0.1-0.4,0.1-0.6c0-0.2,0-0.4,0-0.7v-2.3c0-0.2,0-0.4,0-0.6
					c0-0.2,0-0.4,0.1-0.5c0.1-0.2,0.3-0.4,0.5-0.5c0,0,0.1,0,0.2,0C312.2,82.1,312.2,82.1,312.3,82.1z"/>
				<path class="st5" d="M323.1,87.7h2.7c0.3,0,0.5,0,0.7,0c0.2,0,0.4,0.1,0.5,0.3c0.1,0.1,0.2,0.3,0.2,0.6c0,0.2,0,0.5,0,0.8v2.5
					v5.4c0,0.9,0,1.7,0.1,2.5c0.1,0.8,0.3,1.4,0.7,1.9c0.3,0.5,0.9,0.9,1.6,1.1c0.1,0,0.2,0,0.3,0c0.1,0,0.2,0,0.3,0
					c0.1,0,0.3,0,0.4,0c0.1,0,0.3,0,0.3,0c0.1-0.1,0.2-0.1,0.3,0c0.1,0,0.2,0,0.3,0c0.5-0.1,0.9-0.3,1.2-0.5c0.4-0.3,0.8-0.6,1-1
					c0.3-0.4,0.4-0.9,0.5-1.4c0.1-0.5,0.2-1.1,0.2-1.7c0-0.6,0-1.3,0-2v-4.4v-2.4c0-0.2,0-0.4,0-0.7c0-0.2,0.1-0.4,0.1-0.6
					c0.1-0.2,0.3-0.3,0.5-0.4c0.2,0,0.5,0,0.9,0h1.9c0.2,0,0.5,0,0.7,0c0.2,0,0.4,0,0.5,0.1c0.2,0.1,0.3,0.3,0.3,0.5
					c0,0.2,0,0.5,0,0.8V92v10.2v2.6c0,0.2,0,0.5,0,0.7c0,0.2-0.1,0.4-0.1,0.5c-0.1,0.2-0.3,0.3-0.6,0.3c-0.2,0-0.5,0-0.8,0h-2
					c-0.3,0-0.5,0-0.7,0c-0.2,0-0.4-0.1-0.5-0.3c-0.1-0.1-0.1-0.2-0.1-0.3c0-0.1-0.1-0.3-0.1-0.4c0-0.1-0.1-0.3-0.1-0.4
					c-0.1-0.1-0.1-0.2-0.2-0.2c-0.1-0.1-0.1-0.1-0.2,0c-0.1,0-0.1,0.1-0.2,0.1c-0.2,0.1-0.3,0.2-0.4,0.3c-0.1,0.1-0.3,0.2-0.4,0.3
					c-0.1,0.1-0.2,0.2-0.3,0.2c-0.1,0.1-0.2,0.2-0.3,0.2c-0.6,0.3-1.2,0.6-2,0.8c-0.2,0-0.3,0.1-0.5,0.1c-0.2,0-0.3,0-0.5,0.1
					c-0.1,0-0.2,0-0.3,0c-0.1,0-0.2,0-0.3,0c-0.1,0-0.2,0-0.5,0c-0.2,0-0.4,0-0.4-0.1c-0.1,0-0.2,0-0.4,0c-0.1,0-0.2,0-0.4,0
					c-0.3-0.1-0.6-0.1-0.8-0.2c-0.3-0.1-0.5-0.1-0.8-0.2c-0.1-0.1-0.2-0.1-0.3-0.1c-0.1,0-0.2-0.1-0.3-0.1c-0.9-0.5-1.5-1.1-2-1.9
					c-0.3-0.5-0.5-1.1-0.7-1.8c-0.1-0.7-0.2-1.5-0.3-2.3c0-0.8,0-1.6,0-2.5c0-0.9,0-1.7,0-2.6v-4.9c0-0.3,0-0.7,0-1.1
					c0-0.4,0-0.7,0.2-0.9c0.1-0.1,0.2-0.2,0.4-0.3C322.9,87.7,323,87.7,323.1,87.7z"/>
				<path class="st5" d="M353.8,87.2c0.3,0,0.5,0,0.7,0.1c0.2,0,0.4,0.2,0.5,0.3c0.1,0.2,0.2,0.5,0.2,1c0,0.5,0,0.9,0,1.3
					c0,0.3,0,0.6,0,0.9c0,0.3,0,0.6-0.1,0.8c-0.1,0.2-0.2,0.3-0.4,0.3c-0.2,0-0.4,0.1-0.6,0.1c-0.2,0-0.5,0-0.7,0
					c-0.3,0-0.5,0-0.7,0c-0.2,0.1-0.3,0.1-0.5,0.1c-0.2,0-0.3,0-0.5,0.1c-0.4,0.1-0.8,0.3-1.2,0.5c-0.4,0.2-0.7,0.5-0.9,0.8
					c-0.1,0.2-0.2,0.4-0.4,0.6c-0.1,0.2-0.3,0.4-0.4,0.6c-0.1,0.2-0.1,0.4-0.2,0.6c-0.1,0.2-0.1,0.4-0.2,0.6
					c-0.1,0.2-0.1,0.3-0.1,0.5c0,0.2,0,0.4-0.1,0.5c0,0.1,0,0.2,0,0.3c0,0.1,0,0.2,0,0.2V98c0,0.2-0.1,0.4,0,0.6c0,0.2,0,0.4,0,0.6
					v2.3v3.1c0,0.3,0,0.6,0,0.9c0,0.3-0.1,0.5-0.2,0.7c0,0.1-0.1,0.1-0.2,0.2c-0.1,0-0.2,0.1-0.4,0.1h-0.2c-0.1,0-0.2,0-0.4,0
					c-0.1,0-0.3,0-0.4,0H345c-0.1,0-0.3,0-0.5,0c-0.2,0-0.3,0-0.5,0c-0.1-0.1-0.2-0.1-0.4-0.1c-0.1,0-0.2-0.1-0.3-0.2
					c-0.1-0.1-0.2-0.3-0.2-0.5c0-0.2,0-0.5,0-0.7v-2.5V92.1v-2.7c0-0.2,0-0.5,0-0.7c0-0.2,0-0.4,0.2-0.6c0.1-0.2,0.3-0.3,0.5-0.4
					c0.2-0.1,0.5-0.1,0.9-0.1h1.8c0.3,0,0.5,0,0.8,0c0.2,0,0.4,0.1,0.5,0.3c0.1,0.1,0.1,0.3,0.1,0.5c0,0.2,0,0.4,0.1,0.6
					c0,0.2,0.1,0.4,0.1,0.6c0.1,0.2,0.2,0.2,0.3,0.2c0,0,0.1-0.1,0.1-0.1c0.1,0,0.1,0,0.2-0.1c0.1-0.1,0.3-0.3,0.4-0.4
					c0.1-0.2,0.3-0.3,0.4-0.4c0.1-0.1,0.2-0.2,0.3-0.2c0.1-0.1,0.2-0.2,0.3-0.2c0.2-0.1,0.4-0.3,0.7-0.4c0.2-0.1,0.5-0.3,0.7-0.4
					c0.2-0.1,0.5-0.2,0.7-0.3c0.3-0.1,0.5-0.2,0.8-0.2c0.1,0,0.2,0,0.4,0C353.7,87.3,353.8,87.2,353.8,87.2z"/>
				<path class="st5" d="M374,96.8c0,0.2,0,0.4,0,0.6c-0.1,0.2-0.1,0.4-0.3,0.5c-0.1,0.1-0.3,0.2-0.5,0.2c-0.2,0-0.5,0.1-0.8,0.1
					c-0.3,0-0.6,0-0.8,0c-0.3,0-0.5,0-0.7,0H362c-0.2,0-0.3,0-0.5,0c-0.2,0-0.3,0-0.4,0.1c-0.2,0.1-0.3,0.2-0.4,0.3
					c0,0-0.1,0.1-0.1,0.3c-0.1,0.1-0.1,0.3,0,0.4c0.1,0.1,0.1,0.3,0.1,0.4c0,0.1,0,0.3,0.1,0.4c0.2,0.6,0.4,1.1,0.7,1.4
					c0.3,0.4,0.7,0.7,1.1,1c0.2,0.1,0.4,0.2,0.6,0.2c0.2,0,0.4,0.1,0.6,0.2c0.2,0,0.5,0.1,0.8,0.1c0.3,0,0.6,0,0.9,0h0.3
					c0.2,0,0.5-0.1,0.7-0.2c0.2-0.1,0.4-0.1,0.6-0.2c0.2-0.1,0.5-0.3,0.8-0.5c0.3-0.2,0.5-0.4,0.7-0.6c0.1-0.2,0.3-0.3,0.4-0.5
					c0.1-0.2,0.3-0.3,0.5-0.3c0.2-0.1,0.6-0.2,0.9-0.2c0.4,0,0.7,0,1,0c0.1,0,0.3,0,0.5,0c0.2,0,0.3,0,0.4,0.1h0.4
					c0.2,0,0.4,0.1,0.5,0.2c0.1,0.1,0.1,0.2,0.2,0.3c0,0.2,0,0.3-0.1,0.4c-0.1,0.3-0.3,0.6-0.4,0.9c-0.1,0.3-0.3,0.5-0.5,0.8
					c-0.5,0.8-1.1,1.4-1.8,1.9c-0.7,0.5-1.5,0.9-2.5,1.2c-0.3,0.1-0.5,0.2-0.8,0.2c-0.3,0-0.5,0.1-0.8,0.1c-0.1,0-0.2,0-0.3,0
					c-0.1,0-0.2,0-0.3,0h-0.4c-0.1,0.1-0.3,0.1-0.4,0.1c-0.2,0-0.3,0-0.4-0.1c-0.2,0-0.4,0-0.5,0c-0.2,0-0.3,0-0.5,0
					c-0.1,0-0.3-0.1-0.4-0.1c-0.2,0-0.3,0-0.4-0.1c-0.3-0.1-0.5-0.1-0.8-0.2c-0.3-0.1-0.5-0.2-0.7-0.3c-0.3-0.1-0.5-0.2-0.7-0.3
					c-0.2-0.1-0.4-0.2-0.6-0.3c-0.8-0.5-1.5-1-2.1-1.7c-0.6-0.6-1.1-1.4-1.5-2.2c-0.1-0.3-0.2-0.5-0.3-0.8c-0.1-0.3-0.2-0.6-0.3-0.8
					c0-0.1,0-0.2,0-0.3c0-0.1,0-0.2,0-0.3c-0.1-0.3-0.2-0.6-0.2-0.9c0-0.3,0-0.7-0.1-1c0-0.1,0-0.3,0-0.4c0-0.1,0-0.3,0-0.4v-0.4
					l0.1-0.9c0.1-0.4,0.2-0.8,0.3-1.2c0.1-0.4,0.2-0.8,0.3-1.1c1-2.5,2.8-4.3,5.3-5.3c0.3-0.1,0.7-0.2,1-0.3
					c0.4-0.1,0.7-0.1,1.1-0.2c0.2,0,0.4,0,0.5,0c0.2,0,0.4,0,0.5,0c1.2,0,2.3,0.1,3.2,0.4c0.9,0.3,1.7,0.7,2.4,1.2
					c0.2,0.1,0.4,0.3,0.6,0.5c0.2,0.2,0.4,0.4,0.6,0.6c0.1,0.1,0.2,0.2,0.3,0.3c0.2,0.3,0.4,0.5,0.5,0.8c0.2,0.3,0.4,0.6,0.5,0.9
					c0.1,0.2,0.2,0.4,0.3,0.7c0.1,0.2,0.2,0.5,0.3,0.7c0.1,0.3,0.2,0.6,0.3,1c0.1,0.3,0.2,0.7,0.3,1c0,0.2,0.1,0.4,0,0.6
					c0,0.2,0,0.4,0.1,0.6V96.8z M368.5,94.7c0.2-0.2,0.2-0.5,0.1-0.9c-0.1-0.3-0.2-0.6-0.3-0.8c-0.3-0.7-0.8-1.1-1.3-1.5
					c-0.6-0.4-1.3-0.5-2.3-0.6c-0.1,0-0.2,0.1-0.3,0c-0.1,0-0.2,0-0.3,0c-0.1,0.1-0.3,0.1-0.4,0.1c-0.1,0-0.3,0-0.4,0.1
					c-1.1,0.3-1.8,1-2.4,2c0,0.1-0.1,0.2-0.2,0.4c-0.1,0.2-0.1,0.3-0.1,0.5c0,0.2,0,0.3,0,0.4c0,0.1,0.1,0.3,0.2,0.4
					c0.2,0.1,0.5,0.2,0.8,0.2c0.3,0,0.7,0,1,0h4c0.3,0,0.7,0,1.1,0C368.2,95,368.4,94.9,368.5,94.7z"/>
			</g>
			<g>
				<path class="st5" d="M45,58c-3,0-5.5-2.5-5.5-5.5c0-3,2.5-5.5,5.5-5.5c3,0,5.5,2.5,5.5,5.5C50.5,55.5,48,58,45,58z"/>
				<polygon class="st5" points="46.2,57 52.4,58.8 56.6,65.7 63.8,70.7 61.1,74.5 53.4,69.7 50.7,65.8 51.1,75.8 55.4,85.6 56,97 
					50.1,97.1 49.4,86.5 45.8,79.4 40.7,87.5 28.8,92.3 27,87 35.9,83.6 40.4,75.6 40,65 33.5,68.8 25.7,68.2 25.4,63.5 32.3,63.8 
					40,58.8 				"/>
			</g>
			<path class="st5" d="M139.5,17.7l-20.8,1.5L80.5,4.7c-1-0.4-2.2-0.7-3.5-0.9c-0.8-2.4-3-4-5.6-3.8c-2.5,0.2-4.4,2-5,4.3
				c-1.7,0.4-3.3,1-4.5,1.7l-36.3,20l-21,1.5l6.5,89.1l135-9.9L139.5,17.7z M64.6,7.1c0.5-0.3,1.1-0.5,1.7-0.8
				c0.4,2.8,2.9,4.9,5.8,4.7c2.8-0.2,4.9-2.4,5.1-5.1C77.4,6,77.7,6,77.9,6.1l35.5,13.5l-82.4,6.1L64.6,7.1z M24.9,102.5l-4.6-62.8
				l105.4-7.7l4.6,62.8L24.9,102.5z"/>
		</g>
		<g>
			<path class="st0" d="M20.9,75.3l-2.5-5.7l0.1-0.8c0,0,0.1,0,0.2,0L26,70l-0.4-8.2l-4-0.5l-2.6-1.9c0.2-0.7,0.3-1.4,0.3-2.1
				c-0.1-3.1-2.7-5.6-5.9-5.6l0,0c-1.7,0.1-3.2,0.8-4.3,2c-1,1.1-1.6,2.6-1.5,4.1c0,0.5,0.1,1.1,0.3,1.6L2,62.1
				c-0.9,0.4-1.5,1.4-1.4,2.4l0.6,5.2c0.1,0.6,0.4,1.2,0.9,1.6c0.5,0.4,1.2,0.6,1.8,0.5l2-0.3l-0.4,1.9L0,75.9l3.2,7.7l8.7-3.9
				c0.2-0.1,0.5-0.3,0.7-0.4l1.3,6l8.8-1.1l-1.6-8.4C21.1,75.6,21,75.4,20.9,75.3z"/>
			<path class="st1" d="M8.7,69.8l0.3-4.7l-2.9,1.1L6.4,69l-2.9,0.4l-0.6-5.2l7-3.2l2.5,0c-1.5-0.4-2.6-1.6-2.7-3.2
				c-0.1-1.9,1.4-3.6,3.3-3.6c1.9-0.1,3.6,1.4,3.7,3.3c0.1,1.7-1,3.1-3.1,3.6l3.2,0l3.5,2.7l3.7,0.8l0.1,3l-5-1l-2.4-1.7L16,69.9
				l2.8,6.4l1.2,6.5l-4.1,0.5l-1.3-5.7l-2.2-4.4L11,77.5l-6.8,3.1l-1.4-3.4L7.5,75L8.7,69.8z"/>
		</g>
	</g>
</g>
</svg>
