<?xml version="1.0" encoding="utf-8"?>
<!-- Generator: Adobe Illustrator 19.1.0, SVG Export Plug-In . SVG Version: 6.00 Build 0)  -->
<svg version="1.1" id="Layer_1" xmlns="http://www.w3.org/2000/svg" xmlns:xlink="http://www.w3.org/1999/xlink" x="0px" y="0px"
	 viewBox="0 0 563.9 63.7" style="enable-background:new 0 0 563.9 63.7;" xml:space="preserve">
<style type="text/css">
	.st0{fill:#757474;}
</style>
<g>
	<path d="M11.1,0c2.3,0,4.2,0.4,5.7,1.2c1.5,0.8,2.7,1.9,3.5,3.3c0.2,0.4,0.4,0.7,0.6,1.1C21,6,21.2,6.4,21.3,6.9
		c0,0.2,0.1,0.3,0.1,0.5c0,0.2,0,0.4,0,0.6c0,0.1-0.1,0.2-0.2,0.2c-0.1,0-0.3,0.1-0.4,0.1h-0.3c-0.1,0-0.3,0.1-0.4,0
		c-0.2,0-0.3,0-0.5,0c-0.2,0-0.4,0-0.7,0c-0.3,0-0.5,0-0.8,0c-0.3,0-0.5,0-0.7-0.1s-0.4-0.1-0.5-0.1c-0.2-0.2-0.3-0.4-0.4-0.6
		c-0.1-0.3-0.2-0.5-0.3-0.7c-0.4-0.7-1-1.3-1.6-1.7c-0.5-0.3-1-0.5-1.5-0.7c-0.4-0.1-0.8-0.2-1.4-0.2s-1,0.1-1.5,0.2
		c-0.2,0-0.3,0.1-0.5,0.1c-0.1,0-0.3,0.1-0.4,0.1C7.7,5.3,6.6,6.4,6,7.9C5.9,8.1,5.8,8.4,5.7,8.7C5.6,9,5.5,9.3,5.4,9.6
		c0,0.2,0,0.3-0.1,0.4c0,0.1,0,0.3-0.1,0.4c0,0.1-0.1,0.3,0,0.4c0,0.1,0,0.3,0,0.4c0,0.2-0.1,0.4,0,0.5c0,0.2,0,0.4,0,0.5
		c0,0.1,0,0.2,0,0.3c0,0.1,0,0.2,0,0.3v0.3c0,0.1,0.1,0.2,0,0.3c0,0.1,0,0.2,0,0.3c0,0.1,0,0.3,0.1,0.5c0,0.2,0.1,0.5,0.1,0.7
		c0,0.2,0.1,0.4,0.2,0.6c0.3,0.9,0.7,1.7,1.2,2.3c0.5,0.6,1.1,1.2,1.9,1.6c0.2,0.1,0.5,0.2,0.8,0.3c0.3,0.1,0.5,0.2,0.9,0.2
		c0.1,0,0.2,0,0.3,0c0.1,0,0.2,0,0.3,0h0.3c0.1,0,0.3,0.1,0.4,0c0.2,0,0.3,0,0.4,0c0.1,0,0.2,0,0.3,0c0.3,0,0.5-0.1,0.7-0.1
		c0.2,0,0.5-0.1,0.7-0.2c0.5-0.2,0.9-0.5,1.3-0.9s0.7-0.8,1-1.2c0.1-0.2,0.2-0.5,0.3-0.7c0.1-0.3,0.2-0.5,0.3-0.8
		c0.1-0.2,0.1-0.5,0.2-0.7c0.1-0.2,0.2-0.3,0.4-0.5c0.1,0,0.3-0.1,0.5-0.1s0.4,0,0.6,0h2c0.2,0,0.4,0,0.6,0s0.4,0,0.5,0.1
		c0.2,0.1,0.2,0.3,0.2,0.5c0,0.2,0,0.5-0.1,0.7l-0.2,0.9c-0.1,0.3-0.2,0.6-0.3,1c-0.1,0.3-0.2,0.6-0.4,0.9c-0.1,0.2-0.2,0.3-0.3,0.5
		s-0.2,0.3-0.3,0.5c-1.2,1.9-3,3.2-5.2,3.9c-0.2,0.1-0.5,0.2-0.7,0.2c-0.2,0-0.5,0.1-0.7,0.1c-0.1,0-0.2,0.1-0.3,0
		c-0.1,0-0.2,0-0.3,0c-0.2,0-0.3,0-0.4,0c-0.1,0-0.3,0-0.4,0h-0.5c-0.2,0-0.4,0-0.6,0c-0.2,0-0.4,0-0.6-0.1c-0.1,0-0.2,0-0.3,0
		c-0.2,0-0.3,0-0.5-0.1c-0.2,0-0.3,0-0.5-0.1c-0.2-0.1-0.4-0.1-0.6-0.2C8.2,24,8,24,7.7,23.9c-0.2-0.1-0.4-0.1-0.6-0.2
		c-0.2-0.1-0.4-0.2-0.6-0.2c-1.3-0.6-2.4-1.3-3.3-2.3c-0.9-1-1.6-2.1-2.2-3.4c-0.1-0.3-0.2-0.7-0.3-1c-0.1-0.3-0.2-0.7-0.3-1
		c0-0.1-0.1-0.2-0.1-0.3s0-0.2,0-0.2c0-0.2-0.1-0.4-0.1-0.6c0-0.2-0.1-0.4-0.1-0.6c0-0.1-0.1-0.2,0-0.3c0-0.1,0-0.2,0-0.2v-0.6
		C0,12.7,0,12.6,0,12.4c0-0.2,0-0.4,0.1-0.5c0-0.1,0-0.1,0-0.2s0-0.1,0-0.2v-0.3c0-0.2,0.1-0.4,0.1-0.6c0-0.2,0-0.4,0-0.6
		c0-0.2,0.1-0.3,0.1-0.5c0-0.2,0.1-0.3,0.1-0.5c0.1-0.3,0.2-0.6,0.2-0.9c0.1-0.3,0.2-0.6,0.3-0.8C1,7,1.1,6.7,1.2,6.4
		s0.3-0.5,0.4-0.8C2,5,2.4,4.5,2.7,4C2.8,3.8,3,3.7,3.1,3.6c0.1-0.1,0.3-0.3,0.4-0.4c0.5-0.5,1.1-1,1.7-1.4c0.6-0.4,1.3-0.7,2.1-1
		c0.3-0.1,0.5-0.2,0.8-0.3C8.4,0.4,8.7,0.3,9,0.2c0.1,0,0.3-0.1,0.4-0.1c0.1,0,0.3,0,0.4-0.1c0.2,0,0.3,0,0.5,0c0.2,0,0.3,0,0.5,0
		c0,0,0.1,0,0.2,0C11,0,11,0,11.1,0z"/>
	<path d="M29.4,0.8c0.2,0.2,0.2,0.4,0.2,0.8c0,0.4,0,0.7,0,1c0,0.3,0,0.6,0,0.9c0,0.3-0.1,0.5-0.2,0.6c-0.1,0.1-0.3,0.2-0.5,0.2
		c-0.2,0-0.4,0-0.7,0h-1.8c-0.2,0-0.5,0-0.6,0c-0.2,0-0.3-0.1-0.5-0.2c-0.1-0.1-0.1-0.2-0.2-0.4C25,3.6,25,3.3,25,3.1
		c0-0.2,0-0.5,0-0.7c0-0.2,0-0.4,0-0.6c0-0.2,0-0.3,0-0.5c0-0.1,0-0.3,0.1-0.4c0-0.1,0.1-0.2,0.2-0.2c0.1,0,0.2-0.1,0.2-0.1
		c0,0,0.1,0,0.2,0c0.1,0,0.1,0,0.2,0h2.4c0.2,0,0.4,0,0.6,0C29.1,0.6,29.3,0.7,29.4,0.8z M29.6,22.2c0,0.4,0,0.8,0,1.1
		c0,0.3-0.2,0.5-0.6,0.6c-0.1,0-0.3,0.1-0.4,0c-0.2,0-0.3,0-0.5,0h-1.8c-0.2,0-0.4,0-0.6,0c-0.2,0-0.3-0.1-0.4-0.2
		c-0.1-0.2-0.2-0.3-0.2-0.6c0-0.2,0-0.5,0-0.7V8.5c0-0.2,0-0.4,0-0.7s0-0.4,0.1-0.5c0.1-0.2,0.3-0.3,0.6-0.3c0,0,0.1,0,0.2,0
		c0.1,0,0.1,0,0.2,0h1.6c0.1,0,0.3,0,0.4,0c0.2,0,0.3,0,0.4,0h0.3c0.1,0,0.3,0.1,0.4,0.1c0.1,0,0.2,0.1,0.3,0.2
		c0.1,0.1,0.1,0.3,0.1,0.5c0,0.2,0,0.4,0,0.6V22.2z"/>
	<path d="M32.7,7h2.4c0.2,0,0.5,0,0.7,0c0.2,0,0.4,0.1,0.6,0.1c0.2,0.2,0.4,0.4,0.5,0.8c0.1,0.4,0.2,0.8,0.3,1.1
		c0.2,0.7,0.5,1.5,0.7,2.2c0.2,0.8,0.4,1.5,0.7,2.2c0.2,0.5,0.3,1.1,0.5,1.6c0.2,0.5,0.3,1.1,0.5,1.6c0.1,0.2,0.1,0.4,0.2,0.6
		c0.1,0.2,0.2,0.3,0.5,0.3c0,0,0.1-0.1,0.1-0.1c0,0,0.1,0,0.1-0.1c0.1-0.1,0.1-0.2,0.2-0.3c0-0.1,0.1-0.2,0.1-0.4
		c0.1-0.2,0.2-0.5,0.2-0.8c0.1-0.3,0.1-0.5,0.2-0.8c0.3-0.9,0.6-1.8,0.9-2.8c0.3-0.9,0.6-1.9,0.9-2.8C43,9.5,43.1,9.3,43.2,9
		c0.1-0.3,0.1-0.5,0.2-0.8c0-0.2,0.1-0.3,0.2-0.5c0.1-0.2,0.2-0.3,0.3-0.4c0.1,0,0.2-0.1,0.4-0.2c0.1,0,0.3-0.1,0.4,0
		c0.2,0,0.3,0,0.4,0h1.6c0.2,0,0.5,0,0.7,0c0.2,0,0.4,0.1,0.5,0.2c0.1,0.1,0.2,0.3,0.1,0.5c0,0.2-0.1,0.4-0.1,0.5
		c-0.1,0.3-0.2,0.6-0.3,1c-0.1,0.3-0.2,0.7-0.3,1c-0.1,0.2-0.1,0.3-0.1,0.4c0,0.1-0.1,0.3-0.1,0.4c-0.1,0.2-0.2,0.5-0.3,0.7
		c-0.1,0.2-0.2,0.5-0.2,0.7c0,0.1,0,0.1,0,0.2c0,0.1,0,0.1-0.1,0.2c-0.1,0.3-0.2,0.7-0.3,1c-0.1,0.3-0.2,0.7-0.3,1
		c-0.2,0.7-0.5,1.3-0.7,2c-0.2,0.7-0.5,1.4-0.7,2c-0.1,0.3-0.2,0.6-0.3,0.9c-0.1,0.3-0.2,0.6-0.3,0.9c0,0.1-0.1,0.2-0.1,0.3
		c0,0.1-0.1,0.2-0.1,0.3c-0.1,0.2-0.2,0.5-0.2,0.7c-0.1,0.3-0.2,0.5-0.2,0.7c-0.1,0.2-0.2,0.5-0.3,0.7c-0.1,0.2-0.3,0.4-0.5,0.4
		c-0.2,0.1-0.4,0.1-0.6,0.1c-0.2,0-0.4,0-0.6,0h-2.1c-0.2,0-0.5,0-0.7,0c-0.2,0-0.4,0-0.6-0.1c-0.2-0.1-0.3-0.2-0.3-0.4
		c-0.1-0.2-0.1-0.3-0.2-0.5c-0.1-0.3-0.2-0.5-0.3-0.8c-0.1-0.3-0.2-0.6-0.3-0.8c0-0.1-0.1-0.2-0.1-0.2c0-0.1,0-0.2-0.1-0.3
		c-0.1-0.3-0.2-0.5-0.3-0.8c-0.1-0.3-0.2-0.6-0.3-0.9c0-0.1-0.1-0.2-0.1-0.3c0-0.1-0.1-0.2-0.1-0.3c-0.1-0.2-0.2-0.4-0.2-0.6
		c-0.1-0.2-0.1-0.4-0.2-0.6c0-0.1-0.1-0.1-0.1-0.2s0-0.1-0.1-0.2c-0.1-0.2-0.2-0.4-0.2-0.6c-0.1-0.2-0.1-0.4-0.2-0.6
		c-0.2-0.5-0.4-1-0.6-1.6c-0.2-0.5-0.4-1.1-0.5-1.6c-0.2-0.6-0.4-1.2-0.6-1.8c-0.2-0.6-0.4-1.2-0.6-1.8L32,7.9c0-0.1,0-0.1,0-0.2
		c0-0.1,0-0.2,0-0.3c0.1-0.2,0.2-0.3,0.5-0.3C32.6,7.1,32.6,7.1,32.7,7z"/>
	<path d="M54.9,0.8C55,1,55.1,1.2,55.1,1.6c0,0.4,0,0.7,0,1c0,0.3,0,0.6,0,0.9c0,0.3-0.1,0.5-0.2,0.6c-0.1,0.1-0.3,0.2-0.5,0.2
		c-0.2,0-0.4,0-0.7,0h-1.8c-0.2,0-0.5,0-0.6,0c-0.2,0-0.3-0.1-0.5-0.2c-0.1-0.1-0.1-0.2-0.2-0.4c0-0.2-0.1-0.4-0.1-0.6
		c0-0.2,0-0.5,0-0.7c0-0.2,0-0.4,0-0.6c0-0.2,0-0.3,0-0.5c0-0.1,0-0.3,0.1-0.4c0-0.1,0.1-0.2,0.2-0.2c0.1,0,0.2-0.1,0.2-0.1
		c0,0,0.1,0,0.2,0c0.1,0,0.1,0,0.2,0h2.4c0.2,0,0.4,0,0.6,0C54.6,0.6,54.8,0.7,54.9,0.8z M55.1,22.2c0,0.4,0,0.8,0,1.1
		c0,0.3-0.2,0.5-0.6,0.6c-0.1,0-0.3,0.1-0.4,0c-0.2,0-0.3,0-0.5,0h-1.8c-0.2,0-0.4,0-0.6,0c-0.2,0-0.3-0.1-0.4-0.2
		c-0.1-0.2-0.2-0.3-0.2-0.6c0-0.2,0-0.5,0-0.7V8.5c0-0.2,0-0.4,0-0.7s0-0.4,0.1-0.5c0.1-0.2,0.3-0.3,0.6-0.3c0,0,0.1,0,0.2,0
		c0.1,0,0.1,0,0.2,0h1.6c0.1,0,0.3,0,0.4,0c0.2,0,0.3,0,0.4,0h0.3c0.1,0,0.3,0.1,0.4,0.1c0.1,0,0.2,0.1,0.3,0.2
		c0.1,0.1,0.1,0.3,0.1,0.5c0,0.2,0,0.4,0,0.6V22.2z"/>
	<path d="M59.9,0.6h2.4c0.2,0,0.4,0,0.6,0c0.2,0,0.3,0.1,0.5,0.2c0.1,0.2,0.2,0.4,0.2,0.6c0,0.3,0,0.5,0,0.8v2.9v11.8v5
		c0,0.3,0,0.6,0,0.9c0,0.3,0,0.6-0.1,0.8c-0.1,0.2-0.3,0.3-0.6,0.4c-0.1,0-0.3,0.1-0.4,0s-0.3,0-0.5,0h-1.6c-0.2,0-0.5,0-0.7,0
		c-0.2,0-0.4-0.1-0.5-0.2c-0.1-0.1-0.2-0.3-0.2-0.5c0-0.2,0-0.5,0-0.7v-2.9V7.3V2.8c0-0.3,0-0.6,0-1c0-0.4,0-0.7,0.1-0.9
		c0-0.1,0.1-0.2,0.2-0.2c0.1,0,0.2-0.1,0.2-0.1c0,0,0.1,0,0.2,0C59.8,0.6,59.8,0.6,59.9,0.6z"/>
	<path d="M96.6,23.2c0,0.1,0,0.3,0,0.4c-0.1,0.1-0.1,0.2-0.2,0.2c-0.1,0.1-0.3,0.2-0.5,0.1c-0.2,0-0.5,0-0.7,0h-1.8
		c-0.4,0-0.7,0-0.9,0c-0.3,0-0.5-0.2-0.6-0.4c-0.2-0.3-0.3-0.6-0.3-1c0-0.4-0.1-0.8-0.2-1.2c0-0.1,0-0.2,0-0.2c0-0.1,0-0.1,0-0.2
		c-0.1-0.3-0.1-0.5-0.1-0.8c0-0.3,0-0.6-0.1-0.8c0-0.1,0-0.2,0-0.3c0-0.2-0.1-0.5-0.1-0.7s-0.1-0.5-0.1-0.7c-0.2-0.5-0.4-1-0.6-1.3
		c-0.2-0.4-0.6-0.7-1-0.9c-0.1,0-0.2-0.1-0.3-0.1c-0.1,0-0.2-0.1-0.4-0.1c-0.4-0.1-0.8-0.2-1.4-0.2c-0.5,0-1,0-1.5,0H83
		c-0.2,0-0.3,0.1-0.5,0.1c-0.1,0-0.2,0.1-0.3,0.2c-0.2,0.2-0.3,0.6-0.2,1c0,0.5,0,0.9,0,1.2v4.2c0,0.2,0,0.4,0,0.5
		c0,0.2,0,0.4,0,0.5c0,0.2,0,0.3,0,0.5c0,0.1,0,0.3-0.1,0.4c-0.1,0.2-0.2,0.3-0.4,0.4c-0.1,0-0.2,0.1-0.4,0.1c-0.2,0-0.3,0-0.5,0
		h-1.5c-0.4,0-0.7,0-1.1,0c-0.4,0-0.7-0.1-0.9-0.2c-0.2-0.1-0.3-0.3-0.3-0.6c0-0.3,0-0.6,0-0.9V2.3c0-0.2,0-0.5,0-0.8
		c0-0.3,0-0.5,0.1-0.6c0.1-0.1,0.3-0.2,0.5-0.3c0,0,0.1,0,0.1,0c0.1,0,0.1,0,0.1,0H89c0.3,0,0.7,0,1,0c0.3,0,0.6,0,0.9,0.1
		c0.1,0,0.2,0.1,0.3,0.1c0.1,0,0.2,0,0.3,0.1c0.2,0,0.3,0.1,0.5,0.1c0.2,0,0.3,0.1,0.5,0.2C93,1.4,93.5,1.7,94,2
		c0.5,0.4,0.8,0.8,1.1,1.2c0.1,0.1,0.2,0.2,0.2,0.3c0.1,0.1,0.1,0.2,0.2,0.3c0.2,0.3,0.3,0.6,0.4,1c0.1,0.3,0.2,0.7,0.3,1.1
		c0,0.1,0,0.2,0,0.3c0,0.1,0,0.2,0,0.3v0.3c0,0.2,0.1,0.4,0,0.6c0,0.3-0.1,0.5-0.1,0.6c0,0.2-0.1,0.3-0.1,0.5c0,0.1,0,0.3-0.1,0.4
		c-0.1,0.3-0.2,0.6-0.3,0.9c-0.1,0.3-0.3,0.6-0.4,0.8c0,0.1-0.1,0.1-0.2,0.2c-0.1,0.1-0.1,0.1-0.2,0.2c-0.1,0.1-0.1,0.2-0.2,0.3
		c-0.1,0.1-0.2,0.2-0.2,0.2c-0.1,0.1-0.3,0.2-0.4,0.3c-0.1,0.1-0.3,0.2-0.4,0.3c-0.1,0.1-0.2,0.1-0.3,0.2s-0.2,0.2-0.2,0.3
		c0,0.1,0,0.2,0.1,0.3s0.2,0.2,0.2,0.2c0.2,0.2,0.4,0.4,0.7,0.5c0.2,0.2,0.4,0.4,0.6,0.6c0.3,0.4,0.5,0.8,0.6,1.1
		c0.2,0.4,0.3,0.8,0.4,1.3c0,0.2,0.1,0.4,0.1,0.6c0,0.2,0,0.4,0.1,0.6c0,0.1,0,0.3,0,0.4c0,0.1,0,0.2,0,0.4c0,0.1,0,0.2,0,0.3
		c0,0.1,0,0.2,0,0.3c0,0.1,0,0.2,0,0.3c0,0.1,0,0.2,0,0.3c0,0.2,0.1,0.4,0.1,0.7s0,0.5,0.1,0.7l0.1,0.6c0,0.2,0.1,0.4,0.1,0.6
		C96.5,22.9,96.6,23,96.6,23.2z M91.2,8.4c0-0.2,0-0.5,0-0.9c0-0.3-0.1-0.6-0.1-0.8c0-0.1-0.1-0.2-0.1-0.2c0-0.1,0-0.1-0.1-0.2
		c-0.3-0.7-0.7-1.2-1.4-1.5c-0.4-0.2-0.8-0.3-1.3-0.3c-0.5,0-1,0-1.5,0h-3.8c0,0-0.1,0.1-0.1,0c0,0-0.1,0-0.1,0
		c-0.3,0.1-0.4,0.2-0.5,0.3C82,5,82,5.3,82,5.5c0,0.3,0,0.5,0,0.8v3.1c0,0.3,0,0.5,0,0.8c0,0.3,0.1,0.5,0.2,0.6
		c0.1,0.1,0.2,0.2,0.4,0.3s0.4,0.1,0.7,0.1c0.2,0,0.5,0,0.8,0c0.3,0,0.5,0,0.7,0h1.9c0.2,0,0.3,0,0.5,0c0.2,0,0.3,0,0.5,0H88
		c0.2,0,0.3-0.1,0.5-0.1s0.3,0,0.5-0.1c0.4-0.1,0.7-0.3,1-0.4c0.3-0.2,0.5-0.4,0.7-0.7C90.9,9.7,91,9.5,91,9.2
		C91.1,9,91.1,8.7,91.2,8.4z"/>
	<path d="M116.1,15.3c0,0.2,0,0.4,0,0.6c0,0.2-0.1,0.4-0.2,0.4c-0.1,0.1-0.3,0.1-0.5,0.2c-0.2,0-0.4,0.1-0.7,0.1c-0.3,0-0.5,0-0.8,0
		c-0.3,0-0.5,0-0.7,0h-8c-0.2,0-0.3,0-0.4,0c-0.1,0-0.3,0-0.4,0.1c-0.2,0.1-0.3,0.2-0.3,0.3c0,0-0.1,0.1-0.1,0.2
		c0,0.1-0.1,0.2,0,0.3c0,0.1,0.1,0.3,0.1,0.4c0,0.1,0,0.2,0.1,0.4c0.2,0.5,0.4,1,0.6,1.3c0.3,0.3,0.6,0.6,1,0.9
		c0.2,0.1,0.4,0.2,0.5,0.2c0.2,0,0.4,0.1,0.6,0.1c0.2,0,0.4,0.1,0.7,0.1c0.3,0,0.6,0,0.8,0h0.3c0.2,0,0.4-0.1,0.6-0.1
		c0.2-0.1,0.4-0.1,0.5-0.2c0.2-0.1,0.5-0.3,0.7-0.4c0.3-0.2,0.5-0.3,0.6-0.5c0.1-0.2,0.2-0.3,0.3-0.4c0.1-0.1,0.3-0.2,0.4-0.3
		c0.2-0.1,0.5-0.2,0.8-0.1c0.3,0,0.7,0,0.9,0c0.1,0,0.3,0,0.4,0c0.1,0,0.3,0,0.4,0h0.3c0.2,0,0.4,0.1,0.5,0.2c0.1,0,0.1,0.1,0.1,0.3
		c0,0.2,0,0.3,0,0.4c-0.1,0.3-0.2,0.6-0.4,0.8s-0.3,0.5-0.5,0.7c-0.5,0.7-1,1.3-1.6,1.7c-0.6,0.4-1.4,0.8-2.3,1.1
		c-0.2,0.1-0.5,0.1-0.7,0.2c-0.2,0-0.5,0.1-0.8,0.1c-0.1,0-0.2,0-0.3,0c-0.1,0-0.2,0-0.3,0h-0.4c-0.1,0-0.2,0.1-0.4,0
		c-0.1,0-0.3,0-0.4,0c-0.2,0-0.3,0-0.5,0c-0.1,0-0.3,0-0.4,0c-0.1,0-0.2-0.1-0.4-0.1s-0.3,0-0.4-0.1c-0.2,0-0.5-0.1-0.7-0.1
		c-0.2-0.1-0.5-0.1-0.7-0.2c-0.2-0.1-0.5-0.2-0.7-0.2c-0.2-0.1-0.4-0.2-0.6-0.3c-0.7-0.4-1.3-0.9-1.9-1.5c-0.5-0.6-1-1.3-1.3-2
		c-0.1-0.2-0.2-0.5-0.3-0.7c-0.1-0.3-0.2-0.5-0.3-0.8c0-0.1,0-0.2,0-0.2c0-0.1,0-0.2,0-0.2c-0.1-0.3-0.1-0.5-0.2-0.9
		c0-0.3,0-0.6-0.1-0.9c0-0.1,0-0.2,0-0.4c0-0.1,0-0.3,0-0.4v-0.4l0.1-0.8c0.1-0.4,0.2-0.7,0.2-1.1c0.1-0.3,0.2-0.7,0.3-1
		c0.9-2.3,2.5-3.9,4.8-4.8c0.3-0.1,0.6-0.2,0.9-0.3c0.3-0.1,0.7-0.1,1-0.2c0.2,0,0.3,0,0.5,0c0.2,0,0.3,0,0.5,0
		c1.1,0,2.1,0.1,2.9,0.4c0.8,0.3,1.5,0.6,2.1,1.1c0.2,0.1,0.4,0.3,0.6,0.4c0.2,0.2,0.4,0.3,0.5,0.5c0.1,0.1,0.2,0.2,0.3,0.3
		c0.2,0.2,0.3,0.5,0.5,0.7c0.2,0.3,0.3,0.5,0.5,0.8c0.1,0.2,0.2,0.4,0.3,0.6c0.1,0.2,0.2,0.4,0.2,0.7c0.1,0.3,0.2,0.6,0.3,0.9
		c0.1,0.3,0.1,0.6,0.2,0.9c0,0.2,0.1,0.4,0,0.6c0,0.2,0,0.4,0,0.6V15.3z M111.2,13.4c0.2-0.2,0.2-0.5,0-0.8
		c-0.1-0.3-0.2-0.6-0.3-0.7c-0.3-0.6-0.7-1-1.2-1.4c-0.5-0.3-1.2-0.5-2.1-0.5c-0.1,0-0.1,0.1-0.2,0c-0.1,0-0.2,0-0.2,0
		c-0.1,0-0.2,0.1-0.4,0.1c-0.1,0-0.3,0-0.4,0.1c-1,0.3-1.7,0.9-2.1,1.8c0,0.1-0.1,0.2-0.1,0.3c-0.1,0.1-0.1,0.3-0.1,0.4
		c0,0.1,0,0.3,0,0.4c0,0.1,0.1,0.2,0.2,0.3c0.2,0.1,0.4,0.2,0.7,0.2c0.3,0,0.6,0,0.9,0h3.6c0.3,0,0.6,0,1,0
		C110.9,13.7,111.1,13.6,111.2,13.4z"/>
	<path d="M134.9,7.2c0.2,0.1,0.2,0.3,0.2,0.5c0,0.3,0,0.5,0,0.8v14c0,0.2,0,0.3,0,0.5c0,0.2,0,0.3,0,0.5c0,0.2,0,0.3,0,0.5
		c0,0.1,0,0.3,0,0.5c-0.1,0.3-0.2,0.6-0.2,0.9c-0.1,0.3-0.1,0.5-0.2,0.8c-0.4,0.8-0.8,1.5-1.4,2.1c-0.6,0.5-1.3,1-2.1,1.3
		c-0.2,0.1-0.5,0.2-0.7,0.3c-0.2,0.1-0.5,0.1-0.8,0.2c-0.2,0.1-0.5,0.1-0.7,0.1c-0.2,0-0.5,0.1-0.7,0.1c-0.1,0-0.2,0-0.3,0
		c-0.1,0-0.2,0-0.3,0c-0.1,0-0.2,0-0.3,0c-0.1,0-0.2,0-0.3,0c-0.1,0-0.3,0-0.4,0c-0.2,0-0.3,0-0.4,0c-0.1,0-0.2,0-0.3,0
		c-0.1,0-0.2,0-0.3,0c-0.2,0-0.4-0.1-0.5-0.1c-0.2,0-0.4,0-0.5-0.1c0,0-0.1,0-0.2,0s-0.1,0-0.2,0c-0.2,0-0.4-0.1-0.6-0.1
		c-0.2-0.1-0.4-0.1-0.6-0.2c-0.8-0.4-1.6-0.8-2.2-1.3c-0.7-0.5-1.1-1.3-1.4-2.1c0-0.1-0.1-0.1-0.1-0.2c0-0.1,0-0.1,0-0.2
		c-0.1-0.3,0-0.5,0.1-0.6c0.1-0.1,0.3-0.2,0.5-0.3c0.2,0,0.5-0.1,0.7,0c0.3,0,0.5,0,0.8,0h1.1c0.1,0,0.2,0,0.3,0s0.2,0,0.3,0
		c0.3,0.1,0.6,0.2,0.7,0.3c0.1,0.1,0.2,0.3,0.4,0.6c0.1,0.1,0.2,0.2,0.3,0.3c0,0,0,0.1,0.1,0.1c0,0,0,0.1,0.1,0.1
		c0.2,0.1,0.4,0.3,0.6,0.4c0.2,0.1,0.4,0.2,0.7,0.3c0.2,0,0.3,0.1,0.5,0.1c0.2,0,0.3,0,0.5,0.1h0.4c0.2,0,0.3,0,0.6,0
		s0.4-0.1,0.6-0.1c0.1,0,0.2-0.1,0.3-0.1c0.1,0,0.2,0,0.2-0.1c0.5-0.2,0.8-0.5,1.1-0.8c0.3-0.3,0.6-0.7,0.8-1.1
		c0-0.1,0.1-0.3,0.1-0.4c0-0.1,0.1-0.3,0.1-0.4c0-0.2,0.1-0.4,0.1-0.6c0-0.2,0-0.5,0-0.7c0-0.1,0-0.2,0-0.3c0-0.1,0-0.2,0-0.2
		c0-0.1-0.1-0.2,0-0.3c0-0.1,0-0.2,0-0.3c0,0,0-0.1-0.1-0.1c0,0-0.1-0.1-0.1-0.1c-0.2,0-0.4,0-0.5,0.1c-0.1,0.1-0.2,0.2-0.3,0.3
		c-0.2,0.2-0.4,0.3-0.6,0.4c-0.2,0.1-0.4,0.3-0.7,0.4c-0.2,0.1-0.5,0.2-0.7,0.3s-0.5,0.1-0.8,0.2c-0.1,0-0.3,0-0.4,0
		c-0.1,0-0.2,0-0.3,0c-0.1,0-0.3,0-0.5,0s-0.4,0-0.5,0h-0.3c-0.1,0-0.1,0-0.2,0c-0.1,0-0.2,0-0.2,0c-0.3-0.1-0.6-0.1-0.9-0.2
		c-0.3-0.1-0.5-0.1-0.8-0.2c-0.9-0.4-1.7-0.9-2.3-1.6c-0.6-0.7-1.1-1.5-1.5-2.4c-0.1-0.2-0.2-0.5-0.2-0.8c0-0.3-0.1-0.5-0.2-0.8
		c0-0.1,0-0.2,0-0.3c0-0.2-0.1-0.4-0.1-0.6c0-0.2,0-0.4-0.1-0.6c0-0.1,0-0.2,0-0.3s0-0.2,0-0.3c0-0.1,0-0.2,0-0.4s0-0.3,0-0.4v-0.3
		c0-0.1,0-0.2,0-0.3c0-0.1,0-0.2,0-0.3c0-0.2,0.1-0.4,0.1-0.6c0-0.2,0.1-0.4,0.1-0.6c0.1-0.4,0.3-0.9,0.4-1.2
		c0.1-0.4,0.3-0.8,0.5-1.1c0.1-0.2,0.2-0.4,0.4-0.6c0.1-0.2,0.3-0.4,0.4-0.6c0.1-0.1,0.2-0.2,0.3-0.3c0.1-0.1,0.2-0.2,0.3-0.3
		l0.2-0.2c0.1-0.1,0.2-0.2,0.3-0.2c0.1-0.1,0.2-0.1,0.3-0.2c0.3-0.2,0.6-0.3,0.9-0.5c0.3-0.1,0.6-0.3,1-0.4c0.2-0.1,0.4-0.1,0.5-0.1
		c0.2,0,0.4,0,0.5-0.1c0.1,0,0.2,0,0.4,0c0.2,0,0.3,0,0.3,0c0.7,0,1.3,0,1.9,0.2c0.6,0.2,1.1,0.4,1.5,0.7c0.1,0,0.1,0.1,0.2,0.1
		c0.1,0.1,0.1,0.1,0.2,0.2c0.1,0.1,0.3,0.2,0.4,0.3c0.1,0.1,0.2,0.2,0.4,0.3c0,0,0.1,0,0.2,0.1c0.1,0,0.1,0,0.2,0
		c0.1,0,0.2-0.1,0.2-0.2c0-0.1,0.1-0.2,0.1-0.3c0-0.1,0.1-0.2,0.1-0.3c0-0.1,0.1-0.2,0.2-0.3c0.1-0.1,0.3-0.1,0.5-0.1
		c0.2,0,0.4,0,0.6,0h1.7c0.2,0,0.5,0,0.6,0C134.7,7.1,134.8,7.1,134.9,7.2z M130.5,17.4c0.1-0.2,0.2-0.4,0.2-0.8
		c0.1-0.3,0.1-0.6,0.1-1c0-0.3,0-0.7,0-1c0-0.3,0-0.6-0.1-0.9c0-0.1-0.1-0.2,0-0.2c0-0.1,0-0.1,0-0.2c0-0.2-0.1-0.3-0.1-0.5
		c0-0.2-0.1-0.3-0.2-0.4c-0.3-0.8-0.7-1.4-1.3-1.8c-0.6-0.4-1.4-0.6-2.5-0.6c0,0-0.1,0.1-0.2,0c-0.1,0-0.1,0-0.2,0
		c-0.2,0-0.3,0.1-0.4,0.1c-0.1,0-0.3,0.1-0.4,0.1c-0.6,0.2-1,0.6-1.3,1.1c-0.3,0.5-0.6,1-0.8,1.6c0,0.1-0.1,0.2-0.1,0.3s0,0.2,0,0.3
		c-0.1,0.2-0.1,0.6-0.1,1c0,0.5,0,0.8,0.1,1.1v0.3c0,0.2,0.1,0.3,0.1,0.5c0,0.2,0.1,0.3,0.1,0.5c0.2,0.6,0.4,1.1,0.7,1.5
		c0.3,0.4,0.7,0.8,1.2,1c0.2,0.1,0.5,0.2,0.9,0.3c0.2,0,0.3,0,0.4,0c0,0,0.1,0,0.2,0c0.1,0,0.2,0,0.2,0h0.3c0.2,0,0.4-0.1,0.6-0.1
		c0.2,0,0.3-0.1,0.5-0.2c0.5-0.2,1-0.5,1.3-0.9C130,18.4,130.2,17.9,130.5,17.4z"/>
	<path d="M143.5,0.8c0.2,0.2,0.2,0.4,0.2,0.8c0,0.4,0,0.7,0,1c0,0.3,0,0.6,0,0.9c0,0.3-0.1,0.5-0.2,0.6c-0.1,0.1-0.3,0.2-0.5,0.2
		c-0.2,0-0.4,0-0.7,0h-1.8c-0.2,0-0.5,0-0.6,0c-0.2,0-0.3-0.1-0.5-0.2c-0.1-0.1-0.1-0.2-0.2-0.4c0-0.2-0.1-0.4-0.1-0.6
		c0-0.2,0-0.5,0-0.7c0-0.2,0-0.4,0-0.6c0-0.2,0-0.3,0-0.5c0-0.1,0-0.3,0.1-0.4c0-0.1,0.1-0.2,0.2-0.2c0.1,0,0.2-0.1,0.2-0.1
		c0,0,0.1,0,0.2,0c0.1,0,0.1,0,0.2,0h2.4c0.2,0,0.4,0,0.6,0C143.3,0.6,143.4,0.7,143.5,0.8z M143.7,22.2c0,0.4,0,0.8,0,1.1
		c0,0.3-0.2,0.5-0.6,0.6c-0.1,0-0.3,0.1-0.4,0c-0.2,0-0.3,0-0.5,0h-1.8c-0.2,0-0.4,0-0.6,0c-0.2,0-0.3-0.1-0.4-0.2
		c-0.1-0.2-0.2-0.3-0.2-0.6c0-0.2,0-0.5,0-0.7V8.5c0-0.2,0-0.4,0-0.7s0-0.4,0.1-0.5c0.1-0.2,0.3-0.3,0.6-0.3c0,0,0.1,0,0.2,0
		c0.1,0,0.1,0,0.2,0h1.6c0.1,0,0.3,0,0.4,0c0.2,0,0.3,0,0.4,0h0.3c0.1,0,0.3,0.1,0.4,0.1c0.1,0,0.2,0.1,0.3,0.2
		c0.1,0.1,0.1,0.3,0.1,0.5c0,0.2,0,0.4,0,0.6V22.2z"/>
	<path d="M153.9,6.6c1.6,0,3.1,0.1,4.3,0.5c1.2,0.4,2.1,1.1,2.8,2.1c0.2,0.2,0.3,0.5,0.4,0.7c0.1,0.3,0.2,0.5,0.3,0.8
		c0,0.1,0.1,0.3,0.1,0.4c0,0.2,0,0.3-0.1,0.4c-0.1,0.1-0.2,0.2-0.4,0.3c-0.1,0-0.2,0.1-0.4,0.1c-0.2,0-0.3,0-0.5,0H159
		c-0.2,0-0.3,0-0.5,0c-0.2,0-0.3,0-0.4,0c-0.2,0-0.4-0.1-0.5-0.3c-0.1-0.1-0.2-0.3-0.3-0.4c-0.1-0.1-0.2-0.3-0.2-0.5
		c-0.1-0.2-0.2-0.3-0.3-0.4c-0.2-0.2-0.4-0.3-0.6-0.4c-0.2-0.1-0.5-0.2-0.8-0.2c-0.2,0-0.4-0.1-0.7-0.1c-0.3,0-0.5,0-0.7,0h-0.2
		c-0.1,0-0.2,0-0.3,0c-0.1,0-0.2,0-0.3,0c-0.4,0.1-0.7,0.3-0.9,0.4c-0.2,0.2-0.4,0.5-0.5,0.8c0,0.2,0,0.3,0,0.4s0.1,0.2,0.1,0.3
		c0.2,0.3,0.3,0.5,0.5,0.6c0.2,0.2,0.5,0.3,0.7,0.4c0.4,0.2,0.9,0.3,1.4,0.4c0.5,0.1,1,0.2,1.5,0.3c0.5,0.1,1,0.2,1.5,0.3
		c0.5,0.1,1,0.3,1.4,0.4c0.2,0.1,0.4,0.2,0.6,0.2c0.2,0.1,0.4,0.1,0.5,0.2c0.4,0.3,0.8,0.5,1.1,0.9c0.3,0.3,0.6,0.7,0.8,1.1
		c0.1,0.2,0.1,0.3,0.2,0.5c0,0.2,0.1,0.3,0.1,0.5c0,0.1,0,0.3,0,0.6c0,0.3,0,0.5,0,0.6v0.2c0,0.1-0.1,0.3-0.1,0.4c0,0.1,0,0.2,0,0.3
		c-0.2,0.7-0.4,1.2-0.7,1.7c-0.4,0.5-0.8,1-1.3,1.3c-0.5,0.3-1.1,0.6-1.7,0.9c-0.2,0.1-0.5,0.2-0.8,0.2c-0.3,0-0.5,0.1-0.8,0.2
		c-0.2,0-0.4,0.1-0.6,0.1c-0.2,0-0.4,0-0.6,0.1h-0.6c-0.1,0-0.4,0.1-0.7,0.1c-0.3,0-0.5,0-0.7-0.1c-0.1,0-0.1,0-0.2,0
		c-0.1,0-0.2,0-0.2,0c-0.3,0-0.5-0.1-0.8-0.1c-0.3,0-0.5-0.1-0.8-0.1c-0.9-0.2-1.6-0.5-2.3-0.8c-0.7-0.3-1.2-0.8-1.7-1.4
		c-0.3-0.4-0.6-0.9-0.8-1.4c0-0.1-0.1-0.3-0.1-0.5c0-0.1-0.1-0.3-0.1-0.5c0-0.2,0-0.4,0-0.5c0.1-0.2,0.2-0.3,0.3-0.3
		c0.1,0,0.2-0.1,0.4-0.1c0.2,0,0.3,0,0.5,0h1.5c0.2,0,0.3,0,0.5,0c0.2,0,0.3,0,0.5,0.1c0.2,0.1,0.4,0.2,0.5,0.4
		c0.1,0.2,0.2,0.4,0.3,0.6c0,0.1,0.1,0.3,0.2,0.4c0.1,0.2,0.2,0.3,0.3,0.3c0.3,0.2,0.5,0.4,0.8,0.5c0.2,0.1,0.5,0.2,0.9,0.3
		c0.1,0,0.2,0.1,0.3,0c0.1,0,0.2,0,0.3,0c0.2,0,0.4,0.1,0.6,0c0.2,0,0.4,0,0.5-0.1c0.1,0,0.2,0,0.3,0c0.1,0,0.2,0,0.3-0.1
		c0.3-0.1,0.6-0.2,0.8-0.4c0.3-0.2,0.5-0.3,0.6-0.6c0.1-0.2,0.2-0.4,0.3-0.8c0-0.2,0-0.3,0-0.4c0-0.1-0.1-0.2-0.1-0.3
		c-0.2-0.3-0.3-0.5-0.6-0.7c-0.2-0.2-0.5-0.3-0.8-0.4c-0.4-0.2-0.9-0.3-1.3-0.4c-0.5-0.1-0.9-0.2-1.4-0.4c-0.2,0-0.4-0.1-0.5-0.1
		c-0.2,0-0.4-0.1-0.5-0.1c-0.7-0.2-1.4-0.4-2-0.6c-0.6-0.2-1.2-0.5-1.7-0.8c-0.6-0.4-1.1-1-1.3-1.8c0-0.2-0.1-0.4-0.1-0.6
		c0-0.2-0.1-0.3-0.1-0.6c0-0.2,0-0.4,0-0.6c0-0.1,0.1-0.2,0-0.3c0-0.1,0-0.2,0-0.3c0-0.2,0.1-0.5,0.1-0.7s0.1-0.4,0.2-0.6
		c0.3-0.6,0.7-1.1,1.2-1.5c0.5-0.4,1.1-0.7,1.7-1c0.2-0.1,0.5-0.2,0.8-0.2c0.3-0.1,0.5-0.1,0.8-0.2c0.1,0,0.3-0.1,0.4-0.1
		c0.1,0,0.3,0,0.4,0c0.2,0,0.4,0,0.6,0S153.7,6.6,153.9,6.6z"/>
	<path d="M167.3,2h2.2c0.3,0,0.6,0,0.9,0c0.3,0,0.4,0.2,0.5,0.4c0,0.1,0.1,0.2,0.1,0.4c0,0.2,0,0.3,0,0.5v1.5c0,0.1,0,0.2,0,0.4
		c0,0.1,0,0.3,0,0.4v0.4c0,0.2,0,0.3,0,0.5c0,0.1,0.1,0.3,0.2,0.4c0.2,0.2,0.4,0.3,0.8,0.3c0.4,0,0.8,0,1.2,0c0.1,0,0.3,0,0.4,0
		c0.1,0,0.3,0,0.4,0.1c0.2,0.1,0.4,0.3,0.4,0.6c0,0.3,0,0.6,0,1c0,0.2,0,0.3,0,0.5c0,0.2,0,0.3,0,0.4c-0.1,0.4-0.3,0.5-0.7,0.6
		c-0.4,0-0.7,0-1.2,0c-0.1,0-0.2,0-0.3,0c-0.1,0-0.2,0-0.2,0c-0.1,0-0.2,0-0.2,0c-0.1,0-0.1,0-0.2,0c-0.2,0-0.3,0.1-0.4,0.3
		c-0.1,0.1-0.1,0.3-0.2,0.5c0,0.1,0,0.2,0,0.4c0,0.1,0,0.3,0,0.4v2v3.8c0,0.5,0,1,0,1.4s0.2,0.8,0.4,1.1c0.1,0.1,0.3,0.2,0.4,0.3
		c0.2,0.1,0.4,0.1,0.6,0.1c0.1,0,0.1,0,0.2,0c0.1,0,0.1,0,0.2,0h0.4c0.2,0,0.4,0,0.6,0c0.2,0,0.3,0.1,0.4,0.3
		c0.1,0.1,0.1,0.3,0.1,0.5s0,0.4,0,0.6c0,0.5,0,0.9,0,1.3c0,0.4-0.2,0.6-0.5,0.8c-0.1,0-0.2,0.1-0.3,0c-0.1,0-0.2,0-0.3,0h-0.3
		c0,0-0.1,0-0.2,0c-0.1,0-0.2,0-0.2,0c-0.1,0-0.2,0-0.3,0c-0.1,0-0.2,0-0.3,0c-0.1,0-0.2,0-0.3,0c-0.1,0-0.2,0-0.3,0h-0.4
		c-0.1,0-0.2,0-0.4,0s-0.3,0-0.4,0c-0.2,0-0.3,0-0.4-0.1s-0.3,0-0.4-0.1c-0.2-0.1-0.5-0.1-0.7-0.2c-0.2-0.1-0.4-0.2-0.6-0.3
		c-0.1,0-0.1-0.1-0.2-0.1c-0.1-0.1-0.1-0.1-0.2-0.2c0,0-0.1-0.1-0.2-0.1c-0.1-0.1-0.1-0.1-0.2-0.1c-0.3-0.4-0.5-0.9-0.7-1.4
		c0-0.1-0.1-0.2,0-0.2c0-0.1,0-0.2,0-0.3c0,0,0-0.1,0-0.2c0-0.1,0-0.1,0-0.2v-0.3c0-0.1,0-0.2,0-0.3c0-0.1,0-0.2,0-0.3v-1.2v-4.9
		v-1.7c0-0.2,0-0.3,0-0.5c0-0.2,0-0.3,0-0.4c-0.1-0.3-0.2-0.5-0.5-0.6c-0.2-0.1-0.5-0.1-0.9-0.1c-0.4,0-0.7,0-1-0.1
		c-0.2-0.1-0.3-0.2-0.3-0.3c0-0.1-0.1-0.3-0.1-0.5V8.5c0-0.4,0-0.7,0.1-1c0-0.2,0.2-0.4,0.6-0.5c0.1,0,0.2-0.1,0.3,0
		c0.1,0,0.2,0,0.3,0c0.3,0,0.6,0,0.9,0c0.3,0,0.5-0.2,0.6-0.4c0.1-0.2,0.1-0.3,0.1-0.5c0-0.2,0-0.4,0-0.6v-2c0-0.2,0-0.4,0-0.6
		s0-0.4,0.1-0.5c0.1-0.2,0.3-0.4,0.5-0.4c0,0,0.1,0,0.2,0C167.2,2,167.3,2,167.3,2z"/>
	<path d="M186.2,6.6c0.2,0,0.5,0,0.6,0.1c0.2,0,0.3,0.1,0.4,0.3c0.1,0.2,0.2,0.5,0.2,0.9s0,0.8,0,1.1c0,0.2,0,0.5,0,0.8
		c0,0.3,0,0.5-0.1,0.7c-0.1,0.2-0.2,0.3-0.4,0.3c-0.2,0-0.4,0.1-0.6,0.1c-0.2,0-0.4,0-0.7,0c-0.2,0-0.4,0-0.6,0
		c-0.2,0-0.3,0.1-0.5,0.1c-0.2,0-0.3,0-0.4,0.1c-0.4,0.1-0.7,0.3-1.1,0.5c-0.4,0.2-0.6,0.4-0.8,0.7c-0.1,0.2-0.2,0.4-0.3,0.5
		c-0.1,0.2-0.2,0.4-0.3,0.6c-0.1,0.2-0.1,0.4-0.2,0.5c-0.1,0.2-0.1,0.4-0.1,0.5c0,0.2-0.1,0.3-0.1,0.5s0,0.3-0.1,0.5
		c0,0.1,0,0.2,0,0.2c0,0.1,0,0.1,0,0.2v0.5c0,0.2-0.1,0.3,0,0.5c0,0.2,0,0.4,0,0.5v2.1v2.8c0,0.3,0,0.5,0,0.8c0,0.2-0.1,0.4-0.2,0.6
		c0,0.1-0.1,0.1-0.2,0.1c-0.1,0-0.2,0.1-0.3,0.1h-0.2c-0.1,0-0.2,0-0.4,0c-0.1,0-0.3,0-0.4,0h-1.4c-0.1,0-0.3,0-0.4,0
		c-0.1,0-0.3,0-0.4,0c-0.1,0-0.2-0.1-0.3-0.1c-0.1,0-0.2-0.1-0.2-0.2c-0.1-0.1-0.1-0.3-0.1-0.5c0-0.2,0-0.4,0-0.6v-2.2V11V8.6
		c0-0.2,0-0.4,0-0.6c0-0.2,0-0.4,0.1-0.5c0.1-0.2,0.3-0.3,0.5-0.3c0.2,0,0.5-0.1,0.8-0.1h1.7c0.3,0,0.5,0,0.7,0s0.3,0.1,0.5,0.3
		c0.1,0.1,0.1,0.3,0.1,0.5c0,0.2,0,0.4,0,0.6c0,0.2,0.1,0.4,0.1,0.5c0.1,0.2,0.2,0.2,0.3,0.2c0,0,0.1-0.1,0.1-0.1s0.1,0,0.1-0.1
		c0.1-0.1,0.2-0.2,0.3-0.4c0.1-0.1,0.2-0.3,0.4-0.4c0.1-0.1,0.2-0.1,0.2-0.2c0.1-0.1,0.1-0.1,0.2-0.2c0.2-0.1,0.4-0.3,0.6-0.4
		s0.4-0.3,0.6-0.4c0.2-0.1,0.4-0.2,0.7-0.2c0.2-0.1,0.5-0.1,0.7-0.2c0.1,0,0.2,0,0.4,0C186.1,6.7,186.2,6.7,186.2,6.6z"/>
	<path d="M204.7,22.7c0,0.2,0.1,0.5,0.1,0.7c0,0.2-0.1,0.4-0.3,0.5c-0.1,0.1-0.3,0.1-0.5,0.1c-0.2,0-0.4,0-0.5,0h-1.8
		c-0.2,0-0.4,0-0.6,0c-0.2,0-0.3-0.1-0.4-0.1c-0.2-0.1-0.3-0.2-0.3-0.4c-0.1-0.2-0.2-0.3-0.3-0.4c0,0-0.1-0.1-0.2-0.1
		c-0.1,0-0.2,0-0.3,0c-0.1,0-0.2,0.1-0.3,0.2c-0.1,0.1-0.2,0.1-0.3,0.2c-0.1,0.1-0.2,0.2-0.4,0.2c-0.1,0.1-0.3,0.1-0.4,0.2
		c-0.3,0.1-0.6,0.2-0.9,0.3c-0.3,0.1-0.6,0.2-1,0.2c-0.2,0-0.3,0.1-0.4,0.1c-0.1,0-0.3,0-0.4,0c-0.1,0-0.1,0-0.2,0
		c-0.1,0-0.1,0-0.2,0h-0.4c-0.2,0-0.4,0-0.7,0h-0.3c-0.2,0-0.3-0.1-0.4,0c-0.1,0-0.3,0-0.4,0c-0.2,0-0.4-0.1-0.6-0.1
		c-0.2,0-0.4-0.1-0.6-0.2c-0.6-0.2-1.2-0.6-1.6-0.9c-0.4-0.4-0.8-0.9-1.1-1.5c-0.1-0.2-0.1-0.3-0.2-0.5c-0.1-0.2-0.1-0.4-0.1-0.6
		c0-0.1-0.1-0.2,0-0.3c0-0.1,0-0.2,0-0.3c0-0.1,0-0.2,0-0.4c0-0.2,0-0.4,0-0.4c0-0.2,0.1-0.4,0.1-0.6c0.1-0.2,0.1-0.5,0.2-0.7
		c0.1-0.3,0.2-0.5,0.3-0.7c0.4-0.6,0.8-1.1,1.3-1.4c0.5-0.3,1.1-0.6,1.8-0.9c0.3-0.1,0.6-0.2,0.9-0.2c0.3,0,0.6-0.1,0.9-0.2
		c0.2,0,0.4-0.1,0.6-0.1c0.2,0,0.4,0,0.6-0.1c0.2,0,0.3-0.1,0.5,0c0.2,0,0.3,0,0.5,0c0.2,0,0.3-0.1,0.5-0.1c0.2,0,0.3,0,0.5-0.1
		c0.5-0.1,0.9-0.2,1.3-0.3c0.4-0.1,0.7-0.3,1-0.6c0.2-0.2,0.3-0.4,0.4-0.7c0-0.1,0-0.1,0-0.2c0,0,0-0.1,0-0.1c0,0,0-0.1,0-0.2
		s0-0.2,0-0.2c0-0.1,0-0.2,0-0.3c0-0.1,0-0.2,0-0.2c-0.2-0.7-0.7-1.1-1.4-1.3c-0.2-0.1-0.4-0.1-0.7-0.1s-0.6,0-0.8,0
		c-0.3,0-0.6,0-0.8,0.1c-0.3,0-0.5,0.1-0.7,0.2c-0.1,0-0.3,0.1-0.4,0.2c-0.1,0.1-0.2,0.2-0.3,0.2c-0.1,0.1-0.2,0.2-0.3,0.4
		c-0.1,0.2-0.2,0.3-0.2,0.4c-0.1,0.2-0.2,0.4-0.3,0.6c-0.1,0.2-0.2,0.3-0.5,0.4c-0.2,0-0.4,0.1-0.6,0.1s-0.4,0-0.6,0h-1.2
		c-0.1,0-0.2,0-0.3,0c-0.1,0-0.2,0-0.3,0H190c0,0-0.1,0-0.2,0c-0.1,0-0.1,0-0.2-0.1c-0.2,0-0.3-0.2-0.4-0.4c0-0.1,0-0.2,0-0.3
		c0-0.1,0-0.2,0.1-0.3c0.1-0.2,0.1-0.5,0.2-0.7c0.1-0.2,0.2-0.4,0.3-0.6c0.1-0.1,0.1-0.2,0.2-0.3c0.1-0.1,0.1-0.2,0.2-0.3
		c0.2-0.2,0.4-0.5,0.7-0.7c0,0,0.1-0.1,0.2-0.2c0.1-0.1,0.2-0.2,0.3-0.2c0.1-0.1,0.2-0.1,0.3-0.2c0.4-0.2,0.8-0.4,1.2-0.6
		c0.4-0.1,0.8-0.3,1.3-0.4c0.3-0.1,0.5-0.1,0.8-0.1c0.3,0,0.6-0.1,0.9-0.1c0.1,0,0.2,0,0.4,0c0.2,0,0.3,0,0.3,0c0.9,0,1.8,0,2.6,0.1
		s1.6,0.3,2.2,0.5c0.7,0.2,1.2,0.6,1.7,1c0.5,0.4,0.9,0.9,1.1,1.6c0.2,0.4,0.2,0.8,0.3,1.3c0,0.5,0,1,0,1.5v7.3c0,0.4,0,0.8,0,1.3
		c0,0.4,0,0.8,0.1,1.2c0,0.1,0,0.1,0,0.2C204.7,22.5,204.7,22.6,204.7,22.7z M199.9,17.6c0-0.1,0-0.2,0-0.4c0-0.1,0-0.3,0-0.4
		c0-0.1-0.1-0.3-0.1-0.4c0-0.1,0-0.2-0.1-0.3c-0.1-0.1-0.3-0.1-0.5-0.1c-0.1,0-0.2,0-0.2,0c-0.1,0-0.1,0-0.2,0
		c-0.2,0-0.3,0.1-0.5,0.1c-0.2,0-0.4,0.1-0.5,0.1c-0.1,0-0.2,0-0.3,0c-0.3,0.1-0.6,0.1-0.9,0.1c-0.3,0-0.6,0.1-0.8,0.2
		c-0.2,0-0.3,0.1-0.5,0.1c-0.2,0-0.3,0.1-0.5,0.1c-0.5,0.2-0.8,0.5-1.2,0.9c-0.3,0.4-0.4,0.9-0.3,1.6c0,0.4,0.2,0.7,0.4,0.9
		c0.2,0.2,0.4,0.4,0.7,0.6c0.3,0.1,0.6,0.2,1,0.3s0.7,0.1,1.1,0c0.4,0,0.8-0.1,1.1-0.2c0.6-0.2,1-0.5,1.3-0.8s0.6-0.9,0.8-1.4
		c0-0.2,0.1-0.3,0.1-0.5c0-0.2,0-0.3,0.1-0.5V17.6z"/>
	<path d="M210.4,2h2.2c0.3,0,0.6,0,0.9,0c0.3,0,0.4,0.2,0.5,0.4c0,0.1,0.1,0.2,0.1,0.4c0,0.2,0,0.3,0,0.5v1.5c0,0.1,0,0.2,0,0.4
		c0,0.1,0,0.3,0,0.4v0.4c0,0.2,0,0.3,0,0.5c0,0.1,0.1,0.3,0.2,0.4c0.2,0.2,0.4,0.3,0.8,0.3c0.4,0,0.8,0,1.2,0c0.1,0,0.3,0,0.4,0
		c0.1,0,0.3,0,0.4,0.1c0.2,0.1,0.4,0.3,0.4,0.6c0,0.3,0,0.6,0,1c0,0.2,0,0.3,0,0.5c0,0.2,0,0.3,0,0.4c-0.1,0.4-0.3,0.5-0.7,0.6
		c-0.4,0-0.7,0-1.2,0c-0.1,0-0.2,0-0.3,0c-0.1,0-0.2,0-0.2,0c-0.1,0-0.2,0-0.2,0c-0.1,0-0.1,0-0.2,0c-0.2,0-0.3,0.1-0.4,0.3
		c-0.1,0.1-0.1,0.3-0.2,0.5c0,0.1,0,0.2,0,0.4c0,0.1,0,0.3,0,0.4v2v3.8c0,0.5,0,1,0,1.4s0.2,0.8,0.4,1.1c0.1,0.1,0.3,0.2,0.4,0.3
		c0.2,0.1,0.4,0.1,0.6,0.1c0.1,0,0.1,0,0.2,0c0.1,0,0.1,0,0.2,0h0.4c0.2,0,0.4,0,0.6,0c0.2,0,0.3,0.1,0.4,0.3
		c0.1,0.1,0.1,0.3,0.1,0.5s0,0.4,0,0.6c0,0.5,0,0.9,0,1.3c0,0.4-0.2,0.6-0.5,0.8c-0.1,0-0.2,0.1-0.3,0c-0.1,0-0.2,0-0.3,0h-0.3
		c0,0-0.1,0-0.2,0c-0.1,0-0.2,0-0.2,0c-0.1,0-0.2,0-0.3,0c-0.1,0-0.2,0-0.3,0c-0.1,0-0.2,0-0.3,0c-0.1,0-0.2,0-0.3,0H214
		c-0.1,0-0.2,0-0.4,0s-0.3,0-0.4,0c-0.2,0-0.3,0-0.4-0.1s-0.3,0-0.4-0.1c-0.2-0.1-0.5-0.1-0.7-0.2c-0.2-0.1-0.4-0.2-0.6-0.3
		c-0.1,0-0.1-0.1-0.2-0.1c-0.1-0.1-0.1-0.1-0.2-0.2c0,0-0.1-0.1-0.2-0.1c-0.1-0.1-0.1-0.1-0.2-0.1c-0.3-0.4-0.5-0.9-0.7-1.4
		c0-0.1-0.1-0.2,0-0.2c0-0.1,0-0.2,0-0.3c0,0,0-0.1,0-0.2c0-0.1,0-0.1,0-0.2v-0.3c0-0.1,0-0.2,0-0.3c0-0.1,0-0.2,0-0.3v-1.2v-4.9
		v-1.7c0-0.2,0-0.3,0-0.5c0-0.2,0-0.3,0-0.4c-0.1-0.3-0.2-0.5-0.5-0.6c-0.2-0.1-0.5-0.1-0.9-0.1c-0.4,0-0.7,0-1-0.1
		c-0.2-0.1-0.3-0.2-0.3-0.3c0-0.1-0.1-0.3-0.1-0.5V8.5c0-0.4,0-0.7,0.1-1c0-0.2,0.2-0.4,0.6-0.5c0.1,0,0.2-0.1,0.3,0
		c0.1,0,0.2,0,0.3,0c0.3,0,0.6,0,0.9,0c0.3,0,0.5-0.2,0.6-0.4c0.1-0.2,0.1-0.3,0.1-0.5c0-0.2,0-0.4,0-0.6v-2c0-0.2,0-0.4,0-0.6
		s0-0.4,0.1-0.5c0.1-0.2,0.3-0.4,0.5-0.4c0,0,0.1,0,0.2,0C210.3,2,210.4,2,210.4,2z"/>
	<path d="M224.3,0.8c0.2,0.2,0.2,0.4,0.2,0.8c0,0.4,0,0.7,0,1c0,0.3,0,0.6,0,0.9c0,0.3-0.1,0.5-0.2,0.6c-0.1,0.1-0.3,0.2-0.5,0.2
		c-0.2,0-0.4,0-0.7,0h-1.8c-0.2,0-0.5,0-0.6,0c-0.2,0-0.3-0.1-0.5-0.2c-0.1-0.1-0.1-0.2-0.2-0.4c0-0.2-0.1-0.4-0.1-0.6
		c0-0.2,0-0.5,0-0.7c0-0.2,0-0.4,0-0.6c0-0.2,0-0.3,0-0.5c0-0.1,0-0.3,0.1-0.4c0-0.1,0.1-0.2,0.2-0.2c0.1,0,0.2-0.1,0.2-0.1
		c0,0,0.1,0,0.2,0c0.1,0,0.1,0,0.2,0h2.4c0.2,0,0.4,0,0.6,0C224,0.6,224.2,0.7,224.3,0.8z M224.5,22.2c0,0.4,0,0.8,0,1.1
		c0,0.3-0.2,0.5-0.6,0.6c-0.1,0-0.3,0.1-0.4,0c-0.2,0-0.3,0-0.5,0h-1.8c-0.2,0-0.4,0-0.6,0c-0.2,0-0.3-0.1-0.4-0.2
		c-0.1-0.2-0.2-0.3-0.2-0.6c0-0.2,0-0.5,0-0.7V8.5c0-0.2,0-0.4,0-0.7s0-0.4,0.1-0.5c0.1-0.2,0.3-0.3,0.6-0.3c0,0,0.1,0,0.2,0
		c0.1,0,0.1,0,0.2,0h1.6c0.1,0,0.3,0,0.4,0c0.2,0,0.3,0,0.4,0h0.3c0.1,0,0.3,0.1,0.4,0.1c0.1,0,0.2,0.1,0.3,0.2
		c0.1,0.1,0.1,0.3,0.1,0.5c0,0.2,0,0.4,0,0.6V22.2z"/>
	<path d="M245.2,14.8c0,0.1,0.1,0.3,0.1,0.6c0,0.2,0,0.4-0.1,0.6v0.3c0,0.2-0.1,0.4,0,0.5c0,0.2,0,0.4,0,0.5c0,0.2-0.1,0.3-0.1,0.4
		c0,0.1,0,0.3-0.1,0.4c-0.1,0.2-0.2,0.5-0.2,0.7c-0.1,0.3-0.2,0.5-0.3,0.7c-0.5,1-1.1,1.9-1.8,2.6c-0.7,0.7-1.6,1.2-2.7,1.6
		c-0.3,0.1-0.5,0.2-0.8,0.2c-0.3,0.1-0.6,0.1-0.8,0.2c-0.1,0-0.2,0.1-0.4,0.1c-0.1,0-0.3,0-0.4,0c-0.1,0-0.1,0-0.2,0
		c-0.1,0-0.1,0-0.2,0c-0.1,0-0.3,0-0.5,0c-0.2,0-0.4,0-0.6,0h-0.3c-0.1,0-0.2,0-0.3,0c-0.1,0-0.2,0-0.3,0c-0.1,0-0.2,0-0.2,0
		s-0.2,0-0.3,0c-0.2-0.1-0.4-0.1-0.7-0.2c-0.2,0-0.4-0.1-0.6-0.2c-0.3-0.1-0.5-0.2-0.7-0.3c-0.2-0.1-0.5-0.2-0.7-0.3
		c-0.8-0.5-1.4-1-2-1.6c-0.5-0.6-1-1.3-1.4-2.2c-0.1-0.2-0.2-0.4-0.2-0.6c-0.1-0.2-0.1-0.4-0.2-0.7c0-0.1-0.1-0.2-0.1-0.3
		c0-0.1,0-0.2-0.1-0.3c0-0.2-0.1-0.4-0.1-0.5c0-0.2,0-0.4-0.1-0.5c0-0.1,0-0.2,0-0.3c0-0.1,0-0.2,0-0.3c0-0.1-0.1-0.3,0-0.6
		c0-0.2,0-0.4,0.1-0.6v-0.2c0-0.1,0-0.2,0-0.3c0-0.1,0-0.2,0-0.3c0-0.1,0-0.2,0-0.3s0-0.2,0.1-0.3c0.1-0.3,0.2-0.6,0.2-0.8
		c0.1-0.3,0.2-0.5,0.3-0.8c0.4-0.9,0.9-1.6,1.4-2.2c0.5-0.6,1.2-1.2,2-1.7c0.2-0.1,0.4-0.2,0.7-0.3s0.5-0.2,0.7-0.3
		c0.3-0.1,0.6-0.2,0.9-0.2c0.3,0,0.6-0.1,1-0.2c0.2,0,0.3,0,0.5,0s0.3,0,0.5,0c1.3,0,2.4,0.1,3.3,0.4c0.9,0.3,1.8,0.7,2.5,1.2
		c0.2,0.2,0.5,0.4,0.7,0.6c0.3,0.2,0.5,0.4,0.6,0.7c0.2,0.2,0.3,0.4,0.5,0.7c0.1,0.2,0.3,0.4,0.4,0.7c0.2,0.2,0.3,0.5,0.4,0.8
		c0.1,0.3,0.2,0.6,0.3,0.9c0.1,0.2,0.1,0.4,0.2,0.6c0,0.2,0.1,0.4,0.1,0.6c0,0.1,0,0.2,0,0.3c0,0.1,0,0.2,0,0.3c0,0.1,0.1,0.2,0,0.4
		C245.1,14.6,245.1,14.7,245.2,14.8z M240.6,16c0-0.1,0-0.3,0-0.5c0-0.2,0-0.4,0-0.5v-0.3c0-0.1-0.1-0.2-0.1-0.4s0-0.3,0-0.4
		c0-0.1,0-0.2,0-0.2c0-0.2-0.1-0.4-0.1-0.5c0-0.2-0.1-0.4-0.1-0.5c-0.2-0.6-0.5-1.1-0.9-1.5s-0.8-0.7-1.3-1c-0.1,0-0.3-0.1-0.4-0.1
		s-0.3-0.1-0.4-0.1c-0.2,0-0.4-0.1-0.6,0c-0.2,0-0.4,0-0.6,0c-0.1,0-0.1,0.1-0.2,0c-0.1,0-0.2,0-0.2,0c-0.2,0-0.3,0.1-0.4,0.1
		c-0.1,0-0.3,0.1-0.4,0.1c-0.5,0.2-1,0.6-1.3,1c-0.3,0.4-0.6,1-0.8,1.6c-0.1,0.2-0.1,0.4-0.1,0.7c0,0.2-0.1,0.5-0.1,0.7
		c0,0.1,0,0.2,0,0.3s0,0.2,0,0.3c0,0.2-0.1,0.4,0,0.7c0,0.3,0,0.5,0.1,0.7v0.3c0,0.2,0.1,0.3,0.1,0.5c0,0.2,0.1,0.3,0.1,0.5
		c0.2,0.7,0.5,1.2,0.7,1.6s0.7,0.8,1.2,1.1c0.2,0.1,0.3,0.2,0.5,0.3c0.2,0.1,0.4,0.1,0.6,0.2c0.1,0,0.2,0,0.2,0c0.1,0,0.1,0,0.2,0
		c0.1,0,0.2,0,0.3,0c0.1,0,0.2,0,0.3,0h0.3c0.2,0,0.3-0.1,0.5-0.1c0.2,0,0.3-0.1,0.5-0.1c0.6-0.2,1-0.5,1.4-0.9
		c0.3-0.4,0.6-0.8,0.9-1.4c0.1-0.2,0.2-0.4,0.2-0.7c0-0.2,0.1-0.4,0.2-0.7c0-0.1,0-0.2,0-0.2s0-0.2,0-0.2c0-0.1,0-0.2,0-0.3
		C240.5,16.2,240.5,16.1,240.6,16z"/>
	<path d="M257.9,6.6c1.3,0,2.4,0.1,3.3,0.6c0.9,0.4,1.6,1,2.1,1.8c0.2,0.2,0.3,0.5,0.4,0.8c0.1,0.3,0.2,0.6,0.3,0.8
		c0,0.2,0.1,0.3,0.1,0.5c0,0.2,0,0.3,0.1,0.5c0,0.1,0,0.2,0,0.3c0,0.3,0.1,0.6,0.1,1s0,0.6,0,1v2.9V22c0,0.4,0,0.8,0,1.2
		c0,0.4-0.2,0.6-0.5,0.7c-0.1,0-0.3,0.1-0.5,0.1c-0.2,0-0.4,0-0.5,0h-1.8c-0.3,0-0.5,0-0.7,0s-0.4-0.1-0.5-0.3
		c-0.1-0.1-0.1-0.3-0.1-0.5c0-0.2,0-0.4,0-0.7v-2.3v-4.9c0-0.8,0-1.6-0.1-2.2c-0.1-0.7-0.3-1.3-0.6-1.8c-0.3-0.4-0.8-0.7-1.3-0.9
		c-0.1,0-0.2-0.1-0.3-0.1s-0.2,0-0.4-0.1c-0.1,0-0.2,0-0.4,0c-0.2,0-0.3,0-0.4,0c-0.1,0-0.2,0-0.2,0c-0.1,0-0.1,0-0.2,0
		c-0.5,0.1-0.9,0.3-1.2,0.5c-0.7,0.5-1.1,1.2-1.2,2.2c-0.1,1-0.2,2-0.2,3.2v4.1v2c0,0.2,0,0.4,0,0.6s0,0.4-0.1,0.5
		c-0.1,0.2-0.3,0.4-0.5,0.4c-0.2,0-0.5,0.1-0.9,0.1h-1.6c-0.2,0-0.5,0-0.7,0c-0.2,0-0.4-0.1-0.5-0.2c-0.2-0.2-0.2-0.5-0.2-0.9
		c0-0.4,0-0.7,0-1v-4.5v-7.2V8.4c0-0.2,0-0.5,0-0.7c0-0.2,0.1-0.4,0.2-0.5c0-0.1,0.1-0.1,0.2-0.1c0.1,0,0.2-0.1,0.3-0.1h0.2
		c0.1,0,0.2,0,0.3,0c0.1,0,0.2,0,0.3,0h1.4c0.2,0,0.3,0,0.5,0c0.2,0,0.3,0,0.4,0.1c0.2,0.1,0.3,0.2,0.3,0.3c0.1,0.1,0.1,0.3,0.1,0.5
		c0,0.1,0,0.2,0,0.2c0,0.1,0,0.1,0,0.2c0,0.1,0.1,0.2,0.1,0.2c0,0,0.1,0.1,0.1,0.1c0.2,0,0.4-0.1,0.6-0.2c0.2-0.2,0.3-0.3,0.5-0.4
		c0.6-0.4,1.2-0.8,2-1c0.2-0.1,0.4-0.1,0.6-0.1c0.2,0,0.4-0.1,0.7-0.1c0.1,0,0.2,0,0.3,0C257.8,6.6,257.8,6.6,257.9,6.6z"/>
	<path d="M292.2,22.7c0,0.2,0.1,0.5,0.1,0.7c0,0.2-0.1,0.4-0.3,0.5c-0.1,0.1-0.3,0.1-0.5,0.1c-0.2,0-0.4,0-0.5,0h-1.8
		c-0.2,0-0.4,0-0.6,0c-0.2,0-0.3-0.1-0.4-0.1c-0.2-0.1-0.3-0.2-0.3-0.4c-0.1-0.2-0.2-0.3-0.3-0.4c0,0-0.1-0.1-0.2-0.1
		c-0.1,0-0.2,0-0.3,0c-0.1,0-0.2,0.1-0.3,0.2c-0.1,0.1-0.2,0.1-0.3,0.2c-0.1,0.1-0.2,0.2-0.4,0.2c-0.1,0.1-0.3,0.1-0.4,0.2
		c-0.3,0.1-0.6,0.2-0.9,0.3c-0.3,0.1-0.6,0.2-1,0.2c-0.2,0-0.3,0.1-0.4,0.1c-0.1,0-0.3,0-0.4,0c-0.1,0-0.1,0-0.2,0
		c-0.1,0-0.1,0-0.2,0h-0.4c-0.2,0-0.4,0-0.7,0h-0.3c-0.2,0-0.3-0.1-0.4,0c-0.1,0-0.3,0-0.4,0c-0.2,0-0.4-0.1-0.6-0.1
		c-0.2,0-0.4-0.1-0.6-0.2c-0.6-0.2-1.2-0.6-1.6-0.9c-0.4-0.4-0.8-0.9-1.1-1.5c-0.1-0.2-0.1-0.3-0.2-0.5c-0.1-0.2-0.1-0.4-0.1-0.6
		c0-0.1-0.1-0.2,0-0.3c0-0.1,0-0.2,0-0.3c0-0.1,0-0.2,0-0.4c0-0.2,0-0.4,0-0.4c0-0.2,0.1-0.4,0.1-0.6c0.1-0.2,0.1-0.5,0.2-0.7
		c0.1-0.3,0.2-0.5,0.3-0.7c0.4-0.6,0.8-1.1,1.3-1.4c0.5-0.3,1.1-0.6,1.8-0.9c0.3-0.1,0.6-0.2,0.9-0.2c0.3,0,0.6-0.1,0.9-0.2
		c0.2,0,0.4-0.1,0.6-0.1c0.2,0,0.4,0,0.6-0.1c0.2,0,0.3-0.1,0.5,0c0.2,0,0.3,0,0.5,0c0.2,0,0.3-0.1,0.5-0.1c0.2,0,0.3,0,0.5-0.1
		c0.5-0.1,0.9-0.2,1.3-0.3c0.4-0.1,0.7-0.3,1-0.6c0.2-0.2,0.3-0.4,0.4-0.7c0-0.1,0-0.1,0-0.2c0,0,0-0.1,0-0.1c0,0,0-0.1,0-0.2
		s0-0.2,0-0.2c0-0.1,0-0.2,0-0.3c0-0.1,0-0.2,0-0.2c-0.2-0.7-0.7-1.1-1.4-1.3c-0.2-0.1-0.4-0.1-0.7-0.1s-0.6,0-0.8,0
		c-0.3,0-0.6,0-0.8,0.1c-0.3,0-0.5,0.1-0.7,0.2c-0.1,0-0.3,0.1-0.4,0.2c-0.1,0.1-0.2,0.2-0.3,0.2c-0.1,0.1-0.2,0.2-0.3,0.4
		c-0.1,0.2-0.2,0.3-0.2,0.4c-0.1,0.2-0.2,0.4-0.3,0.6c-0.1,0.2-0.2,0.3-0.5,0.4c-0.2,0-0.4,0.1-0.6,0.1s-0.4,0-0.6,0h-1.2
		c-0.1,0-0.2,0-0.3,0c-0.1,0-0.2,0-0.3,0h-0.3c0,0-0.1,0-0.2,0c-0.1,0-0.1,0-0.2-0.1c-0.2,0-0.3-0.2-0.4-0.4c0-0.1,0-0.2,0-0.3
		c0-0.1,0-0.2,0.1-0.3c0.1-0.2,0.1-0.5,0.2-0.7c0.1-0.2,0.2-0.4,0.3-0.6c0.1-0.1,0.1-0.2,0.2-0.3c0.1-0.1,0.1-0.2,0.2-0.3
		c0.2-0.2,0.4-0.5,0.7-0.7c0,0,0.1-0.1,0.2-0.2c0.1-0.1,0.2-0.2,0.3-0.2c0.1-0.1,0.2-0.1,0.3-0.2c0.4-0.2,0.8-0.4,1.2-0.6
		c0.4-0.1,0.8-0.3,1.3-0.4c0.3-0.1,0.5-0.1,0.8-0.1c0.3,0,0.6-0.1,0.9-0.1c0.1,0,0.2,0,0.4,0c0.2,0,0.3,0,0.3,0c0.9,0,1.8,0,2.6,0.1
		s1.6,0.3,2.2,0.5c0.7,0.2,1.2,0.6,1.7,1c0.5,0.4,0.9,0.9,1.1,1.6c0.2,0.4,0.2,0.8,0.3,1.3c0,0.5,0,1,0,1.5v7.3c0,0.4,0,0.8,0,1.3
		c0,0.4,0,0.8,0.1,1.2c0,0.1,0,0.1,0,0.2C292.2,22.5,292.2,22.6,292.2,22.7z M287.4,17.6c0-0.1,0-0.2,0-0.4c0-0.1,0-0.3,0-0.4
		c0-0.1-0.1-0.3-0.1-0.4c0-0.1,0-0.2-0.1-0.3c-0.1-0.1-0.3-0.1-0.5-0.1c-0.1,0-0.2,0-0.2,0c-0.1,0-0.1,0-0.2,0
		c-0.2,0-0.3,0.1-0.5,0.1c-0.2,0-0.4,0.1-0.5,0.1c-0.1,0-0.2,0-0.3,0c-0.3,0.1-0.6,0.1-0.9,0.1c-0.3,0-0.6,0.1-0.8,0.2
		c-0.2,0-0.3,0.1-0.5,0.1c-0.2,0-0.3,0.1-0.5,0.1c-0.5,0.2-0.8,0.5-1.2,0.9c-0.3,0.4-0.4,0.9-0.3,1.6c0,0.4,0.2,0.7,0.4,0.9
		c0.2,0.2,0.4,0.4,0.7,0.6c0.3,0.1,0.6,0.2,1,0.3s0.7,0.1,1.1,0c0.4,0,0.8-0.1,1.1-0.2c0.6-0.2,1-0.5,1.3-0.8s0.6-0.9,0.8-1.4
		c0-0.2,0.1-0.3,0.1-0.5c0-0.2,0-0.3,0.1-0.5V17.6z"/>
	<path d="M305.3,6.6c1.3,0,2.4,0.1,3.3,0.6c0.9,0.4,1.6,1,2.1,1.8c0.2,0.2,0.3,0.5,0.4,0.8c0.1,0.3,0.2,0.6,0.3,0.8
		c0,0.2,0.1,0.3,0.1,0.5c0,0.2,0,0.3,0.1,0.5c0,0.1,0,0.2,0,0.3c0,0.3,0.1,0.6,0.1,1s0,0.6,0,1v2.9V22c0,0.4,0,0.8,0,1.2
		c0,0.4-0.2,0.6-0.5,0.7c-0.1,0-0.3,0.1-0.5,0.1c-0.2,0-0.4,0-0.5,0h-1.8c-0.3,0-0.5,0-0.7,0s-0.4-0.1-0.5-0.3
		c-0.1-0.1-0.1-0.3-0.1-0.5c0-0.2,0-0.4,0-0.7v-2.3v-4.9c0-0.8,0-1.6-0.1-2.2c-0.1-0.7-0.3-1.3-0.6-1.8c-0.3-0.4-0.8-0.7-1.3-0.9
		c-0.1,0-0.2-0.1-0.3-0.1s-0.2,0-0.4-0.1c-0.1,0-0.2,0-0.4,0c-0.2,0-0.3,0-0.4,0c-0.1,0-0.2,0-0.2,0c-0.1,0-0.1,0-0.2,0
		c-0.5,0.1-0.9,0.3-1.2,0.5c-0.7,0.5-1.1,1.2-1.2,2.2c-0.1,1-0.2,2-0.2,3.2v4.1v2c0,0.2,0,0.4,0,0.6s0,0.4-0.1,0.5
		c-0.1,0.2-0.3,0.4-0.5,0.4c-0.2,0-0.5,0.1-0.9,0.1h-1.6c-0.2,0-0.5,0-0.7,0c-0.2,0-0.4-0.1-0.5-0.2c-0.2-0.2-0.2-0.5-0.2-0.9
		c0-0.4,0-0.7,0-1v-4.5v-7.2V8.4c0-0.2,0-0.5,0-0.7c0-0.2,0.1-0.4,0.2-0.5c0-0.1,0.1-0.1,0.2-0.1c0.1,0,0.2-0.1,0.3-0.1h0.2
		c0.1,0,0.2,0,0.3,0c0.1,0,0.2,0,0.3,0h1.4c0.2,0,0.3,0,0.5,0c0.2,0,0.3,0,0.4,0.1c0.2,0.1,0.3,0.2,0.3,0.3c0.1,0.1,0.1,0.3,0.1,0.5
		c0,0.1,0,0.2,0,0.2c0,0.1,0,0.1,0,0.2c0,0.1,0.1,0.2,0.1,0.2c0,0,0.1,0.1,0.1,0.1c0.2,0,0.4-0.1,0.6-0.2c0.2-0.2,0.3-0.3,0.5-0.4
		c0.6-0.4,1.2-0.8,2-1c0.2-0.1,0.4-0.1,0.6-0.1c0.2,0,0.4-0.1,0.7-0.1c0.1,0,0.2,0,0.3,0C305.2,6.6,305.3,6.6,305.3,6.6z"/>
	<path d="M331.7,22.1c0,0.3,0,0.6,0,0.9c0,0.3-0.1,0.5-0.2,0.7c-0.1,0.1-0.3,0.2-0.4,0.2c-0.2,0-0.4,0-0.6,0h-1.8
		c-0.2,0-0.4,0-0.6,0c-0.2,0-0.3-0.1-0.4-0.1c-0.2-0.1-0.2-0.3-0.3-0.4c0-0.2-0.1-0.3-0.1-0.5c0,0-0.1-0.1-0.1-0.1s-0.1-0.1-0.1-0.1
		c-0.2,0-0.4,0.1-0.5,0.2c-0.1,0.1-0.2,0.2-0.3,0.3c-0.2,0.1-0.3,0.2-0.4,0.3c-0.1,0.1-0.3,0.2-0.4,0.3c-0.1,0-0.2,0.1-0.3,0.1
		c-0.1,0-0.2,0.1-0.3,0.1c-0.3,0.1-0.6,0.2-1,0.3c-0.1,0-0.2,0.1-0.3,0.1s-0.2,0-0.3,0c-0.1,0-0.2,0-0.3,0c-0.1,0-0.2,0-0.3,0h-0.3
		c-0.1,0-0.3,0.1-0.6,0c-0.3,0-0.4,0-0.6-0.1c-0.2,0-0.3-0.1-0.4,0c-0.1,0-0.2,0-0.4,0c-0.3-0.1-0.5-0.2-0.8-0.2
		c-0.3-0.1-0.5-0.2-0.7-0.3c-0.8-0.3-1.4-0.8-2.1-1.5c-0.6-0.7-1.1-1.4-1.4-2.2c-0.1-0.2-0.2-0.5-0.3-0.7c-0.1-0.2-0.1-0.5-0.2-0.7
		c0-0.1,0-0.2,0-0.2s0-0.2-0.1-0.3c0-0.2-0.1-0.4-0.1-0.6s-0.1-0.4-0.1-0.6c0-0.1,0-0.1,0-0.2s0-0.2,0-0.2c0-0.1,0-0.2,0-0.3
		c0-0.1,0-0.2,0-0.3c0-0.1,0-0.2,0-0.4c0-0.1,0-0.3,0-0.3c0-0.1,0-0.2,0-0.3c0-0.1,0-0.2,0-0.3c0-0.1,0-0.2,0-0.3c0-0.1,0-0.2,0-0.3
		c0-0.2,0.1-0.5,0.1-0.7c0-0.2,0.1-0.4,0.1-0.7c0.1-0.3,0.2-0.5,0.2-0.8c0.1-0.2,0.2-0.5,0.3-0.7c0.3-0.7,0.7-1.3,1.1-1.9
		c0-0.1,0.1-0.1,0.2-0.2c0.1-0.1,0.1-0.1,0.2-0.2c0.1-0.1,0.2-0.2,0.3-0.3s0.2-0.2,0.3-0.3c0.1,0,0.2-0.1,0.2-0.2
		c0.1-0.1,0.1-0.1,0.2-0.2c0.5-0.4,1.2-0.7,1.9-0.9c0.2,0,0.3-0.1,0.5-0.1c0.2,0,0.3-0.1,0.5-0.1c0.2,0,0.3-0.1,0.6-0.1
		c0.2,0,0.5,0,0.7,0s0.5,0,0.7,0c0.2,0,0.4,0.1,0.6,0.1c0.3,0.1,0.6,0.2,1,0.3c0.3,0.1,0.6,0.2,0.9,0.4c0.2,0.1,0.3,0.2,0.4,0.3
		s0.3,0.2,0.4,0.3c0.1,0.1,0.2,0.2,0.4,0.3c0.2,0.1,0.3,0.1,0.5,0c0.1,0,0.1-0.1,0.1-0.2s0-0.2,0.1-0.3V7.4c0-0.1,0-0.1,0-0.2
		c0-0.1,0-0.2,0-0.3V2.4c0-0.2,0-0.5,0-0.8c0-0.3,0-0.5,0.1-0.7c0.1-0.2,0.3-0.3,0.5-0.3c0,0,0.1,0,0.1,0c0,0,0.1,0,0.1,0h2.3
		c0.3,0,0.5,0,0.7,0c0.2,0,0.4,0.1,0.5,0.3c0.1,0.2,0.2,0.4,0.2,0.7c0,0.3,0,0.5,0,0.8V22.1z M327.2,15.7c0-0.1,0-0.2,0-0.3
		c0-0.1,0-0.2,0-0.3c0-0.2,0-0.4,0-0.7c0-0.2-0.1-0.4-0.1-0.6c0-0.2-0.1-0.5-0.1-0.7c0-0.2-0.1-0.4-0.2-0.6
		c-0.3-0.8-0.7-1.4-1.3-1.9c-0.6-0.5-1.4-0.7-2.5-0.7c-0.1,0-0.3,0-0.5,0.1c-0.2,0-0.3,0.1-0.5,0.1c-0.1,0-0.3,0.1-0.4,0.1
		c-0.6,0.2-1,0.6-1.4,1.1c-0.3,0.5-0.6,1.1-0.8,1.7c-0.1,0.2-0.1,0.4-0.1,0.7c0,0.2-0.1,0.4-0.1,0.7V15c0,0.2-0.1,0.5,0,0.8
		c0,0.3,0.1,0.6,0.1,0.7c0,0.1,0,0.1,0,0.2c0,0.1,0,0.1,0,0.1c0,0.2,0.1,0.3,0.1,0.5c0,0.2,0.1,0.3,0.1,0.5c0.4,1.1,1,2,1.9,2.5
		c0.3,0.2,0.7,0.4,1.2,0.5c0.1,0,0.2,0,0.4,0c0.1,0,0.2,0,0.3,0c0.1,0,0.3,0,0.3,0c0.2,0,0.3-0.1,0.5-0.1c0.2,0,0.3-0.1,0.5-0.1
		c0.5-0.2,1-0.5,1.3-0.9c0.3-0.4,0.6-0.8,0.9-1.4c0.1-0.2,0.2-0.4,0.2-0.6c0-0.2,0.1-0.4,0.1-0.7c0-0.1,0-0.2,0-0.3
		c0-0.1,0-0.2,0-0.3c0-0.1,0-0.1,0-0.2s0-0.2,0-0.3V15.7z"/>
	<path d="M343.4,0.6h2.7c0.2,0,0.5,0,0.7,0c0.3,0,0.5,0.1,0.6,0.2c0.2,0.1,0.3,0.3,0.4,0.5c0.1,0.2,0.1,0.5,0.2,0.7
		c0.2,0.4,0.3,0.8,0.4,1.2c0.1,0.4,0.3,0.8,0.4,1.3c0.4,1.4,0.9,2.7,1.3,4.1c0.4,1.4,0.9,2.7,1.3,4.1c0.1,0.4,0.2,0.7,0.3,1.1
		c0.1,0.4,0.2,0.7,0.3,1.1c0.1,0.2,0.1,0.4,0.2,0.6c0.1,0.2,0.2,0.4,0.3,0.5c0,0,0,0.1,0.1,0.1c0,0,0.1,0,0.1,0.1
		c0.2,0,0.4-0.1,0.5-0.3c0.1-0.2,0.1-0.4,0.2-0.6c0.2-0.5,0.3-0.9,0.5-1.4c0.1-0.5,0.3-1,0.5-1.5c0.5-1.4,0.9-2.9,1.4-4.3
		c0.4-1.4,0.9-2.9,1.4-4.3c0.1-0.3,0.2-0.7,0.3-1c0.1-0.3,0.2-0.7,0.3-1c0.1-0.2,0.2-0.3,0.2-0.5c0.1-0.2,0.2-0.3,0.3-0.4
		c0.2-0.1,0.3-0.2,0.5-0.2c0.2,0,0.4,0,0.6,0h2.2c0.2,0,0.4,0,0.7,0c0.2,0,0.4,0,0.5,0.1c0.2,0.1,0.3,0.3,0.2,0.6
		c-0.1,0.3-0.1,0.5-0.2,0.7c-0.2,0.5-0.4,1-0.5,1.6c-0.2,0.5-0.3,1.1-0.5,1.6c-0.1,0.1-0.1,0.3-0.1,0.4s-0.1,0.3-0.1,0.4
		c-0.2,0.5-0.3,0.9-0.5,1.4c-0.1,0.5-0.3,1-0.5,1.4c-0.6,1.8-1.2,3.5-1.8,5.3c-0.6,1.8-1.2,3.6-1.8,5.3c-0.2,0.5-0.4,1-0.5,1.5
		c-0.2,0.5-0.3,1-0.5,1.5c-0.1,0.3-0.2,0.6-0.3,0.8c-0.1,0.3-0.3,0.4-0.7,0.5c-0.2,0-0.4,0.1-0.6,0c-0.2,0-0.4,0-0.6,0h-2.4
		c-0.2,0-0.5,0-0.8,0c-0.3,0-0.5,0-0.7-0.1c-0.2-0.1-0.4-0.3-0.5-0.6c-0.1-0.3-0.2-0.5-0.2-0.8c-0.2-0.5-0.3-0.9-0.4-1.4
		c-0.1-0.5-0.3-0.9-0.4-1.4c-0.5-1.4-0.9-2.8-1.4-4.2c-0.4-1.4-0.9-2.8-1.4-4.2c-0.2-0.6-0.4-1.3-0.6-1.9c-0.2-0.6-0.4-1.2-0.6-1.9
		c-0.1-0.2-0.2-0.4-0.2-0.6c0-0.2-0.1-0.4-0.2-0.6c-0.2-0.6-0.4-1.2-0.6-1.8c-0.2-0.6-0.4-1.2-0.6-1.8c0-0.2-0.1-0.4-0.2-0.6
		c-0.1-0.2-0.1-0.4-0.2-0.6c0-0.1,0-0.2,0-0.3c0-0.1,0-0.2,0-0.3c0.1-0.2,0.2-0.3,0.4-0.3c0,0,0.1,0,0.1,0
		C343.3,0.6,343.3,0.6,343.4,0.6z"/>
	<path d="M368.9,0.8c0.2,0.2,0.2,0.4,0.2,0.8c0,0.4,0,0.7,0,1c0,0.3,0,0.6,0,0.9c0,0.3-0.1,0.5-0.2,0.6c-0.1,0.1-0.3,0.2-0.5,0.2
		c-0.2,0-0.4,0-0.7,0h-1.8c-0.2,0-0.5,0-0.6,0c-0.2,0-0.3-0.1-0.5-0.2c-0.1-0.1-0.1-0.2-0.2-0.4c0-0.2-0.1-0.4-0.1-0.6
		c0-0.2,0-0.5,0-0.7c0-0.2,0-0.4,0-0.6c0-0.2,0-0.3,0-0.5c0-0.1,0-0.3,0.1-0.4c0-0.1,0.1-0.2,0.2-0.2c0.1,0,0.2-0.1,0.2-0.1
		c0,0,0.1,0,0.2,0c0.1,0,0.1,0,0.2,0h2.4c0.2,0,0.4,0,0.6,0C368.7,0.6,368.8,0.7,368.9,0.8z M369.1,22.2c0,0.4,0,0.8,0,1.1
		c0,0.3-0.2,0.5-0.6,0.6c-0.1,0-0.3,0.1-0.4,0c-0.2,0-0.3,0-0.5,0h-1.8c-0.2,0-0.4,0-0.6,0c-0.2,0-0.3-0.1-0.4-0.2
		c-0.1-0.2-0.2-0.3-0.2-0.6c0-0.2,0-0.5,0-0.7V8.5c0-0.2,0-0.4,0-0.7s0-0.4,0.1-0.5c0.1-0.2,0.3-0.3,0.6-0.3c0,0,0.1,0,0.2,0
		c0.1,0,0.1,0,0.2,0h1.6c0.1,0,0.3,0,0.4,0c0.2,0,0.3,0,0.4,0h0.3c0.1,0,0.3,0.1,0.4,0.1c0.1,0,0.2,0.1,0.3,0.2
		c0.1,0.1,0.1,0.3,0.1,0.5c0,0.2,0,0.4,0,0.6V22.2z"/>
	<path d="M375.1,2h2.2c0.3,0,0.6,0,0.9,0c0.3,0,0.4,0.2,0.5,0.4c0,0.1,0.1,0.2,0.1,0.4c0,0.2,0,0.3,0,0.5v1.5c0,0.1,0,0.2,0,0.4
		c0,0.1,0,0.3,0,0.4v0.4c0,0.2,0,0.3,0,0.5c0,0.1,0.1,0.3,0.2,0.4c0.2,0.2,0.4,0.3,0.8,0.3c0.4,0,0.8,0,1.2,0c0.1,0,0.3,0,0.4,0
		c0.1,0,0.3,0,0.4,0.1c0.2,0.1,0.4,0.3,0.4,0.6c0,0.3,0,0.6,0,1c0,0.2,0,0.3,0,0.5c0,0.2,0,0.3,0,0.4c-0.1,0.4-0.3,0.5-0.7,0.6
		c-0.4,0-0.7,0-1.2,0c-0.1,0-0.2,0-0.3,0c-0.1,0-0.2,0-0.2,0c-0.1,0-0.2,0-0.2,0c-0.1,0-0.1,0-0.2,0c-0.2,0-0.3,0.1-0.4,0.3
		c-0.1,0.1-0.1,0.3-0.2,0.5c0,0.1,0,0.2,0,0.4c0,0.1,0,0.3,0,0.4v2v3.8c0,0.5,0,1,0,1.4s0.2,0.8,0.4,1.1c0.1,0.1,0.3,0.2,0.4,0.3
		c0.2,0.1,0.4,0.1,0.6,0.1c0.1,0,0.1,0,0.2,0c0.1,0,0.1,0,0.2,0h0.4c0.2,0,0.4,0,0.6,0c0.2,0,0.3,0.1,0.4,0.3
		c0.1,0.1,0.1,0.3,0.1,0.5s0,0.4,0,0.6c0,0.5,0,0.9,0,1.3c0,0.4-0.2,0.6-0.5,0.8c-0.1,0-0.2,0.1-0.3,0c-0.1,0-0.2,0-0.3,0h-0.3
		c0,0-0.1,0-0.2,0c-0.1,0-0.2,0-0.2,0c-0.1,0-0.2,0-0.3,0c-0.1,0-0.2,0-0.3,0c-0.1,0-0.2,0-0.3,0c-0.1,0-0.2,0-0.3,0h-0.4
		c-0.1,0-0.2,0-0.4,0s-0.3,0-0.4,0c-0.2,0-0.3,0-0.4-0.1s-0.3,0-0.4-0.1c-0.2-0.1-0.5-0.1-0.7-0.2c-0.2-0.1-0.4-0.2-0.6-0.3
		c-0.1,0-0.1-0.1-0.2-0.1c-0.1-0.1-0.1-0.1-0.2-0.2c0,0-0.1-0.1-0.2-0.1c-0.1-0.1-0.1-0.1-0.2-0.1c-0.3-0.4-0.5-0.9-0.7-1.4
		c0-0.1-0.1-0.2,0-0.2c0-0.1,0-0.2,0-0.3c0,0,0-0.1,0-0.2c0-0.1,0-0.1,0-0.2v-0.3c0-0.1,0-0.2,0-0.3c0-0.1,0-0.2,0-0.3v-1.2v-4.9
		v-1.7c0-0.2,0-0.3,0-0.5c0-0.2,0-0.3,0-0.4c-0.1-0.3-0.2-0.5-0.5-0.6c-0.2-0.1-0.5-0.1-0.9-0.1c-0.4,0-0.7,0-1-0.1
		c-0.2-0.1-0.3-0.2-0.3-0.3c0-0.1-0.1-0.3-0.1-0.5V8.5c0-0.4,0-0.7,0.1-1c0-0.2,0.2-0.4,0.6-0.5c0.1,0,0.2-0.1,0.3,0
		c0.1,0,0.2,0,0.3,0c0.3,0,0.6,0,0.9,0c0.3,0,0.5-0.2,0.6-0.4c0.1-0.2,0.1-0.3,0.1-0.5c0-0.2,0-0.4,0-0.6v-2c0-0.2,0-0.4,0-0.6
		s0-0.4,0.1-0.5c0.1-0.2,0.3-0.4,0.5-0.4c0,0,0.1,0,0.2,0C375,2,375,2,375.1,2z"/>
	<path d="M399.8,22.7c0,0.2,0.1,0.5,0.1,0.7c0,0.2-0.1,0.4-0.3,0.5c-0.1,0.1-0.3,0.1-0.5,0.1s-0.3,0-0.5,0h-1.8c-0.2,0-0.4,0-0.6,0
		c-0.2,0-0.3-0.1-0.4-0.1c-0.2-0.1-0.3-0.2-0.3-0.4c-0.1-0.2-0.2-0.3-0.3-0.4c0,0-0.1-0.1-0.2-0.1s-0.2,0-0.3,0
		c-0.1,0-0.2,0.1-0.3,0.2c-0.1,0.1-0.2,0.1-0.3,0.2c-0.1,0.1-0.2,0.2-0.4,0.2c-0.1,0.1-0.3,0.1-0.4,0.2c-0.3,0.1-0.6,0.2-0.9,0.3
		c-0.3,0.1-0.6,0.2-1,0.2c-0.2,0-0.3,0.1-0.4,0.1c-0.1,0-0.3,0-0.4,0c-0.1,0-0.1,0-0.2,0c-0.1,0-0.1,0-0.2,0h-0.4
		c-0.2,0-0.4,0-0.7,0h-0.3c-0.2,0-0.3-0.1-0.4,0c-0.1,0-0.3,0-0.4,0c-0.2,0-0.4-0.1-0.6-0.1c-0.2,0-0.4-0.1-0.6-0.2
		c-0.6-0.2-1.2-0.6-1.6-0.9c-0.4-0.4-0.8-0.9-1.1-1.5c-0.1-0.2-0.1-0.3-0.2-0.5c-0.1-0.2-0.1-0.4-0.1-0.6c0-0.1-0.1-0.2,0-0.3
		c0-0.1,0-0.2,0-0.3c0-0.1,0-0.2,0-0.4c0-0.2,0-0.4,0-0.4c0-0.2,0.1-0.4,0.1-0.6c0.1-0.2,0.1-0.5,0.2-0.7c0.1-0.3,0.2-0.5,0.3-0.7
		c0.4-0.6,0.8-1.1,1.3-1.4c0.5-0.3,1.1-0.6,1.8-0.9c0.3-0.1,0.6-0.2,0.9-0.2c0.3,0,0.6-0.1,0.9-0.2c0.2,0,0.4-0.1,0.6-0.1
		c0.2,0,0.4,0,0.6-0.1c0.2,0,0.3-0.1,0.5,0c0.2,0,0.3,0,0.5,0c0.2,0,0.3-0.1,0.5-0.1s0.3,0,0.5-0.1c0.5-0.1,0.9-0.2,1.3-0.3
		c0.4-0.1,0.7-0.3,1-0.6c0.2-0.2,0.3-0.4,0.4-0.7c0-0.1,0-0.1,0-0.2s0-0.1,0-0.1c0,0,0-0.1,0-0.2s0-0.2,0-0.2c0-0.1,0-0.2,0-0.3
		s0-0.2,0-0.2c-0.2-0.7-0.7-1.1-1.4-1.3c-0.2-0.1-0.4-0.1-0.7-0.1s-0.6,0-0.8,0c-0.3,0-0.6,0-0.8,0.1c-0.3,0-0.5,0.1-0.7,0.2
		c-0.1,0-0.3,0.1-0.4,0.2c-0.1,0.1-0.2,0.2-0.3,0.2c-0.1,0.1-0.2,0.2-0.3,0.4c-0.1,0.2-0.2,0.3-0.2,0.4c-0.1,0.2-0.2,0.4-0.3,0.6
		c-0.1,0.2-0.2,0.3-0.5,0.4c-0.2,0-0.4,0.1-0.6,0.1s-0.4,0-0.6,0h-1.2c-0.1,0-0.2,0-0.3,0c-0.1,0-0.2,0-0.3,0H385c0,0-0.1,0-0.2,0
		c-0.1,0-0.1,0-0.2-0.1c-0.2,0-0.3-0.2-0.4-0.4c0-0.1,0-0.2,0-0.3c0-0.1,0-0.2,0.1-0.3c0.1-0.2,0.1-0.5,0.2-0.7
		c0.1-0.2,0.2-0.4,0.3-0.6c0.1-0.1,0.1-0.2,0.2-0.3c0.1-0.1,0.1-0.2,0.2-0.3c0.2-0.2,0.4-0.5,0.7-0.7c0,0,0.1-0.1,0.2-0.2
		c0.1-0.1,0.2-0.2,0.3-0.2c0.1-0.1,0.2-0.1,0.3-0.2c0.4-0.2,0.8-0.4,1.2-0.6c0.4-0.1,0.8-0.3,1.3-0.4c0.3-0.1,0.5-0.1,0.8-0.1
		c0.3,0,0.6-0.1,0.9-0.1c0.1,0,0.2,0,0.4,0c0.2,0,0.3,0,0.3,0c0.9,0,1.8,0,2.6,0.1s1.6,0.3,2.2,0.5c0.7,0.2,1.2,0.6,1.7,1
		s0.9,0.9,1.1,1.6c0.2,0.4,0.2,0.8,0.3,1.3c0,0.5,0,1,0,1.5v7.3c0,0.4,0,0.8,0,1.3c0,0.4,0,0.8,0.1,1.2c0,0.1,0,0.1,0,0.2
		C399.7,22.5,399.7,22.6,399.8,22.7z M394.9,17.6c0-0.1,0-0.2,0-0.4c0-0.1,0-0.3,0-0.4c0-0.1-0.1-0.3-0.1-0.4c0-0.1,0-0.2-0.1-0.3
		c-0.1-0.1-0.3-0.1-0.5-0.1c-0.1,0-0.2,0-0.2,0c-0.1,0-0.1,0-0.2,0c-0.2,0-0.3,0.1-0.5,0.1c-0.2,0-0.4,0.1-0.5,0.1
		c-0.1,0-0.2,0-0.3,0c-0.3,0.1-0.6,0.1-0.9,0.1c-0.3,0-0.6,0.1-0.8,0.2c-0.2,0-0.3,0.1-0.5,0.1c-0.2,0-0.3,0.1-0.5,0.1
		c-0.5,0.2-0.8,0.5-1.2,0.9c-0.3,0.4-0.4,0.9-0.3,1.6c0,0.4,0.2,0.7,0.4,0.9c0.2,0.2,0.4,0.4,0.7,0.6c0.3,0.1,0.6,0.2,1,0.3
		s0.7,0.1,1.1,0c0.4,0,0.8-0.1,1.1-0.2c0.6-0.2,1-0.5,1.3-0.8s0.6-0.9,0.8-1.4c0-0.2,0.1-0.3,0.1-0.5c0-0.2,0-0.3,0.1-0.5V17.6z"/>
	<path d="M404.3,0.6h2.4c0.2,0,0.4,0,0.6,0c0.2,0,0.3,0.1,0.5,0.2c0.1,0.2,0.2,0.4,0.2,0.6c0,0.3,0,0.5,0,0.8v2.9v11.8v5
		c0,0.3,0,0.6,0,0.9c0,0.3,0,0.6-0.1,0.8c-0.1,0.2-0.3,0.3-0.6,0.4c-0.1,0-0.3,0.1-0.4,0s-0.3,0-0.5,0h-1.6c-0.2,0-0.5,0-0.7,0
		c-0.2,0-0.4-0.1-0.5-0.2c-0.1-0.1-0.2-0.3-0.2-0.5s0-0.5,0-0.7v-2.9V7.3V2.8c0-0.3,0-0.6,0-1c0-0.4,0-0.7,0.1-0.9
		c0-0.1,0.1-0.2,0.2-0.2c0.1,0,0.2-0.1,0.2-0.1c0,0,0.1,0,0.2,0C404.2,0.6,404.2,0.6,404.3,0.6z"/>
	<path d="M429,0.1c4.2-0.1,7.2,1.2,8.8,3.8c0.2,0.4,0.4,0.7,0.5,1.1c0.1,0.4,0.2,0.8,0.3,1.2c0,0.2,0.1,0.4,0,0.6
		c0,0.2-0.1,0.4-0.1,0.5c-0.1,0.1-0.3,0.2-0.5,0.2c-0.2,0-0.4,0-0.7,0h-2.1c-0.2,0-0.4,0-0.6,0c-0.2,0-0.4,0-0.5-0.1
		c-0.3-0.1-0.4-0.3-0.5-0.5c-0.1-0.2-0.2-0.5-0.3-0.7c-0.1-0.2-0.2-0.4-0.4-0.7c-0.2-0.2-0.3-0.4-0.5-0.6c-0.3-0.2-0.6-0.4-0.9-0.6
		c-0.3-0.1-0.6-0.2-1-0.3C430.4,4.1,430,4,429.6,4c-0.4,0-0.8,0-1.2,0s-0.7,0.1-1,0.3c-0.5,0.2-0.9,0.5-1.2,0.8
		c-0.3,0.3-0.5,0.7-0.6,1.3c0,0.2-0.1,0.3,0,0.5c0,0.2,0.1,0.3,0.1,0.4c0.2,0.5,0.4,0.8,0.7,1c0.3,0.2,0.7,0.4,1.1,0.5
		c0.2,0.1,0.5,0.2,0.7,0.2c0.3,0.1,0.5,0.1,0.8,0.2c0.6,0.2,1.2,0.4,1.8,0.5c0.6,0.1,1.2,0.3,1.9,0.5c0.1,0,0.2,0.1,0.3,0.1
		s0.2,0,0.3,0.1c0.4,0.2,0.9,0.3,1.4,0.4c0.5,0.1,0.9,0.3,1.3,0.6c0.6,0.4,1.1,0.7,1.5,1.1s0.8,0.9,1.2,1.4c0.1,0.2,0.2,0.4,0.3,0.6
		c0.1,0.2,0.2,0.4,0.2,0.7c0,0.1,0,0.1,0,0.2c0,0.1,0,0.1,0,0.1c0.1,0.4,0.1,0.8,0.1,1.3c0,0.1,0,0.2,0,0.3v0.6
		c0,0.2-0.1,0.5-0.1,0.7c0,0.2-0.1,0.4-0.1,0.7c-0.1,0.4-0.3,0.8-0.4,1.1c-0.2,0.3-0.3,0.6-0.6,1c-0.1,0.1-0.2,0.2-0.3,0.3
		c-0.1,0.1-0.2,0.2-0.2,0.3c-0.1,0.1-0.2,0.3-0.4,0.4c-0.1,0.1-0.3,0.2-0.4,0.3c-0.1,0.1-0.2,0.2-0.3,0.3c-0.1,0.1-0.2,0.2-0.4,0.3
		c-0.4,0.2-0.8,0.4-1.2,0.6c-0.4,0.2-0.8,0.3-1.3,0.5c-0.3,0.1-0.6,0.2-1,0.2s-0.7,0.1-1,0.1c-0.2,0-0.3,0.1-0.4,0
		c-0.1,0-0.3,0-0.4,0h-0.3c0,0-0.1,0-0.2,0c-0.1,0-0.1,0-0.2,0c-0.1,0-0.3,0-0.6,0c-0.3,0-0.4,0-0.6,0H429c-0.2,0-0.3-0.1-0.5,0
		c-0.2,0-0.3,0-0.4,0c-0.1,0-0.2,0-0.3,0c-0.1,0-0.2,0-0.3,0c-0.3-0.1-0.5-0.1-0.8-0.2c-0.3,0-0.5-0.1-0.8-0.2
		c-1.1-0.3-2-0.8-2.8-1.3s-1.5-1.2-2-2.1c-0.4-0.5-0.6-1.1-0.8-1.9c0-0.1-0.1-0.3-0.1-0.4s0-0.3-0.1-0.4c0-0.2-0.1-0.4-0.1-0.6
		s0-0.4,0.1-0.6c0.1-0.2,0.3-0.3,0.5-0.3c0.2,0,0.4,0,0.7,0h2.1c0.2,0,0.4,0,0.6,0c0.2,0,0.4,0,0.5,0.1c0.2,0.1,0.4,0.3,0.4,0.5
		c0,0.3,0.1,0.5,0.2,0.8c0.1,0.3,0.2,0.5,0.3,0.7c0.1,0.2,0.3,0.4,0.4,0.6c0.1,0.1,0.2,0.3,0.4,0.4c0.1,0.1,0.3,0.2,0.4,0.3
		c0.5,0.3,1.1,0.6,1.8,0.8c0.2,0,0.3,0.1,0.4,0.1c0.1,0,0.3,0,0.5,0.1h0.2c0.2,0,0.4,0.1,0.7,0.1s0.5,0,0.7-0.1c0.1,0,0.2,0,0.3,0
		c0.1,0,0.2,0,0.3,0c0.1,0,0.2,0,0.3-0.1c0.7-0.2,1.3-0.5,1.8-0.8s0.7-0.9,0.9-1.6c0-0.2,0-0.3,0-0.5s-0.1-0.3-0.1-0.5
		c-0.2-0.6-0.6-1-1.1-1.4c-0.1,0-0.2-0.1-0.4-0.2c-0.3-0.2-0.7-0.4-1.1-0.5c-0.4-0.1-0.8-0.2-1.2-0.4c-0.2,0-0.3-0.1-0.4-0.1
		c-0.1,0-0.3-0.1-0.5-0.1c-0.4-0.1-0.7-0.2-1.1-0.3c-0.4-0.1-0.7-0.2-1-0.3c-0.1,0-0.2-0.1-0.3-0.1s-0.1,0-0.2-0.1
		c-0.2,0-0.3-0.1-0.5-0.1c-0.1,0-0.3-0.1-0.5-0.1c-0.5-0.2-1-0.4-1.4-0.5c-0.5-0.2-0.9-0.4-1.3-0.6c-0.5-0.3-1-0.7-1.4-1.1
		c-0.4-0.4-0.7-0.9-1-1.5c-0.1-0.2-0.2-0.4-0.2-0.6c0-0.2-0.1-0.4-0.2-0.7c0-0.2-0.1-0.5-0.1-0.9c0-0.4,0-0.7,0-0.9
		c0-0.1,0-0.2,0-0.4c0.1-0.2,0.1-0.5,0.2-0.7s0.1-0.4,0.2-0.7c0.3-0.8,0.7-1.4,1.3-2s1.1-1,1.8-1.5c0.4-0.3,0.9-0.5,1.4-0.6
		s1-0.3,1.6-0.4c0.2,0,0.4-0.1,0.6-0.1c0.2,0,0.4,0,0.6-0.1c0.1,0,0.2,0,0.3,0C428.9,0.1,429,0.1,429,0.1z"/>
	<path d="M444.4,2h2.2c0.3,0,0.6,0,0.9,0c0.3,0,0.4,0.2,0.5,0.4c0,0.1,0.1,0.2,0.1,0.4c0,0.2,0,0.3,0,0.5v1.5c0,0.1,0,0.2,0,0.4
		c0,0.1,0,0.3,0,0.4v0.4c0,0.2,0,0.3,0,0.5c0,0.1,0.1,0.3,0.2,0.4c0.2,0.2,0.4,0.3,0.8,0.3c0.4,0,0.8,0,1.2,0c0.1,0,0.3,0,0.4,0
		s0.3,0,0.4,0.1c0.2,0.1,0.4,0.3,0.4,0.6c0,0.3,0,0.6,0,1c0,0.2,0,0.3,0,0.5c0,0.2,0,0.3,0,0.4c-0.1,0.4-0.3,0.5-0.7,0.6
		c-0.4,0-0.7,0-1.2,0c-0.1,0-0.2,0-0.3,0c-0.1,0-0.2,0-0.2,0c-0.1,0-0.2,0-0.2,0c-0.1,0-0.1,0-0.2,0c-0.2,0-0.3,0.1-0.4,0.3
		c-0.1,0.1-0.1,0.3-0.2,0.5c0,0.1,0,0.2,0,0.4c0,0.1,0,0.3,0,0.4v2v3.8c0,0.5,0,1,0,1.4c0,0.4,0.2,0.8,0.4,1.1
		c0.1,0.1,0.3,0.2,0.4,0.3c0.2,0.1,0.4,0.1,0.6,0.1c0.1,0,0.1,0,0.2,0c0.1,0,0.1,0,0.2,0h0.4c0.2,0,0.4,0,0.6,0
		c0.2,0,0.3,0.1,0.4,0.3c0.1,0.1,0.1,0.3,0.1,0.5s0,0.4,0,0.6c0,0.5,0,0.9,0,1.3c0,0.4-0.2,0.6-0.5,0.8c-0.1,0-0.2,0.1-0.3,0
		c-0.1,0-0.2,0-0.3,0H450c0,0-0.1,0-0.2,0c-0.1,0-0.2,0-0.2,0c-0.1,0-0.2,0-0.3,0c-0.1,0-0.2,0-0.3,0c-0.1,0-0.2,0-0.3,0
		c-0.1,0-0.2,0-0.3,0h-0.4c-0.1,0-0.2,0-0.4,0c-0.1,0-0.3,0-0.4,0c-0.2,0-0.3,0-0.4-0.1c-0.1,0-0.3,0-0.4-0.1
		c-0.2-0.1-0.5-0.1-0.7-0.2c-0.2-0.1-0.4-0.2-0.6-0.3c-0.1,0-0.1-0.1-0.2-0.1c-0.1-0.1-0.1-0.1-0.2-0.2c0,0-0.1-0.1-0.2-0.1
		c-0.1-0.1-0.1-0.1-0.2-0.1c-0.3-0.4-0.5-0.9-0.7-1.4c0-0.1-0.1-0.2,0-0.2c0-0.1,0-0.2,0-0.3c0,0,0-0.1,0-0.2c0-0.1,0-0.1,0-0.2
		v-0.3c0-0.1,0-0.2,0-0.3s0-0.2,0-0.3v-1.2v-4.9v-1.7c0-0.2,0-0.3,0-0.5c0-0.2,0-0.3,0-0.4c-0.1-0.3-0.2-0.5-0.5-0.6
		c-0.2-0.1-0.5-0.1-0.9-0.1c-0.4,0-0.7,0-1-0.1c-0.2-0.1-0.3-0.2-0.3-0.3c0-0.1-0.1-0.3-0.1-0.5V8.5c0-0.4,0-0.7,0.1-1
		c0-0.2,0.2-0.4,0.6-0.5c0.1,0,0.2-0.1,0.3,0c0.1,0,0.2,0,0.3,0c0.3,0,0.6,0,0.9,0c0.3,0,0.5-0.2,0.6-0.4c0.1-0.2,0.1-0.3,0.1-0.5
		s0-0.4,0-0.6v-2c0-0.2,0-0.4,0-0.6s0-0.4,0.1-0.5c0.1-0.2,0.3-0.4,0.5-0.4c0,0,0.1,0,0.2,0C444.2,2,444.3,2,444.4,2z"/>
	<path d="M469,22.7c0,0.2,0.1,0.5,0.1,0.7c0,0.2-0.1,0.4-0.3,0.5c-0.1,0.1-0.3,0.1-0.5,0.1c-0.2,0-0.4,0-0.5,0H466
		c-0.2,0-0.4,0-0.6,0c-0.2,0-0.3-0.1-0.4-0.1c-0.2-0.1-0.3-0.2-0.3-0.4c-0.1-0.2-0.2-0.3-0.3-0.4c0,0-0.1-0.1-0.2-0.1
		c-0.1,0-0.2,0-0.3,0c-0.1,0-0.2,0.1-0.3,0.2c-0.1,0.1-0.2,0.1-0.3,0.2c-0.1,0.1-0.2,0.2-0.4,0.2c-0.1,0.1-0.3,0.1-0.4,0.2
		c-0.3,0.1-0.6,0.2-0.9,0.3c-0.3,0.1-0.6,0.2-1,0.2c-0.2,0-0.3,0.1-0.4,0.1c-0.1,0-0.3,0-0.4,0c-0.1,0-0.1,0-0.2,0
		c-0.1,0-0.1,0-0.2,0H459c-0.2,0-0.4,0-0.7,0h-0.3c-0.2,0-0.3-0.1-0.4,0c-0.1,0-0.3,0-0.4,0c-0.2,0-0.4-0.1-0.6-0.1
		c-0.2,0-0.4-0.1-0.6-0.2c-0.6-0.2-1.2-0.6-1.6-0.9c-0.4-0.4-0.8-0.9-1.1-1.5c-0.1-0.2-0.1-0.3-0.2-0.5c-0.1-0.2-0.1-0.4-0.1-0.6
		c0-0.1-0.1-0.2,0-0.3c0-0.1,0-0.2,0-0.3c0-0.1,0-0.2,0-0.4c0-0.2,0-0.4,0-0.4c0-0.2,0.1-0.4,0.1-0.6c0.1-0.2,0.1-0.5,0.2-0.7
		c0.1-0.3,0.2-0.5,0.3-0.7c0.4-0.6,0.8-1.1,1.3-1.4c0.5-0.3,1.1-0.6,1.8-0.9c0.3-0.1,0.6-0.2,0.9-0.2c0.3,0,0.6-0.1,0.9-0.2
		c0.2,0,0.4-0.1,0.6-0.1c0.2,0,0.4,0,0.6-0.1c0.2,0,0.3-0.1,0.5,0c0.2,0,0.3,0,0.5,0c0.2,0,0.3-0.1,0.5-0.1c0.2,0,0.3,0,0.5-0.1
		c0.5-0.1,0.9-0.2,1.3-0.3c0.4-0.1,0.7-0.3,1-0.6c0.2-0.2,0.3-0.4,0.4-0.7c0-0.1,0-0.1,0-0.2c0,0,0-0.1,0-0.1c0,0,0-0.1,0-0.2
		s0-0.2,0-0.2c0-0.1,0-0.2,0-0.3c0-0.1,0-0.2,0-0.2c-0.2-0.7-0.7-1.1-1.4-1.3c-0.2-0.1-0.4-0.1-0.7-0.1s-0.6,0-0.8,0
		c-0.3,0-0.6,0-0.8,0.1c-0.3,0-0.5,0.1-0.7,0.2c-0.1,0-0.3,0.1-0.4,0.2c-0.1,0.1-0.2,0.2-0.3,0.2c-0.1,0.1-0.2,0.2-0.3,0.4
		c-0.1,0.2-0.2,0.3-0.2,0.4c-0.1,0.2-0.2,0.4-0.3,0.6c-0.1,0.2-0.2,0.3-0.5,0.4c-0.2,0-0.4,0.1-0.6,0.1c-0.2,0-0.4,0-0.6,0h-1.2
		c-0.1,0-0.2,0-0.3,0c-0.1,0-0.2,0-0.3,0h-0.3c0,0-0.1,0-0.2,0c-0.1,0-0.1,0-0.2-0.1c-0.2,0-0.3-0.2-0.4-0.4c0-0.1,0-0.2,0-0.3
		c0-0.1,0-0.2,0.1-0.3c0.1-0.2,0.1-0.5,0.2-0.7c0.1-0.2,0.2-0.4,0.3-0.6c0.1-0.1,0.1-0.2,0.2-0.3c0.1-0.1,0.1-0.2,0.2-0.3
		c0.2-0.2,0.4-0.5,0.7-0.7c0,0,0.1-0.1,0.2-0.2c0.1-0.1,0.2-0.2,0.3-0.2c0.1-0.1,0.2-0.1,0.3-0.2c0.4-0.2,0.8-0.4,1.2-0.6
		c0.4-0.1,0.8-0.3,1.3-0.4c0.3-0.1,0.5-0.1,0.8-0.1c0.3,0,0.6-0.1,0.9-0.1c0.1,0,0.2,0,0.4,0c0.2,0,0.3,0,0.3,0c0.9,0,1.8,0,2.6,0.1
		s1.6,0.3,2.2,0.5c0.7,0.2,1.2,0.6,1.7,1c0.5,0.4,0.9,0.9,1.1,1.6c0.2,0.4,0.2,0.8,0.3,1.3c0,0.5,0,1,0,1.5v7.3c0,0.4,0,0.8,0,1.3
		c0,0.4,0,0.8,0.1,1.2c0,0.1,0,0.1,0,0.2C469,22.5,469,22.6,469,22.7z M464.2,17.6c0-0.1,0-0.2,0-0.4c0-0.1,0-0.3,0-0.4
		c0-0.1-0.1-0.3-0.1-0.4c0-0.1,0-0.2-0.1-0.3c-0.1-0.1-0.3-0.1-0.5-0.1c-0.1,0-0.2,0-0.2,0c-0.1,0-0.1,0-0.2,0
		c-0.2,0-0.3,0.1-0.5,0.1c-0.2,0-0.3,0.1-0.5,0.1c-0.1,0-0.2,0-0.3,0c-0.3,0.1-0.6,0.1-0.9,0.1c-0.3,0-0.6,0.1-0.8,0.2
		c-0.2,0-0.3,0.1-0.5,0.1c-0.2,0-0.3,0.1-0.5,0.1c-0.5,0.2-0.8,0.5-1.2,0.9c-0.3,0.4-0.4,0.9-0.3,1.6c0,0.4,0.2,0.7,0.4,0.9
		c0.2,0.2,0.4,0.4,0.7,0.6c0.3,0.1,0.6,0.2,1,0.3c0.4,0.1,0.7,0.1,1.1,0c0.4,0,0.8-0.1,1.1-0.2c0.6-0.2,1-0.5,1.3-0.8
		s0.6-0.9,0.8-1.4c0-0.2,0.1-0.3,0.1-0.5s0-0.3,0.1-0.5V17.6z"/>
	<path d="M474.7,2h2.2c0.3,0,0.6,0,0.9,0c0.3,0,0.4,0.2,0.5,0.4c0,0.1,0.1,0.2,0.1,0.4c0,0.2,0,0.3,0,0.5v1.5c0,0.1,0,0.2,0,0.4
		c0,0.1,0,0.3,0,0.4v0.4c0,0.2,0,0.3,0,0.5c0,0.1,0.1,0.3,0.2,0.4c0.2,0.2,0.4,0.3,0.8,0.3c0.4,0,0.8,0,1.2,0c0.1,0,0.3,0,0.4,0
		c0.1,0,0.3,0,0.4,0.1c0.2,0.1,0.4,0.3,0.4,0.6s0,0.6,0,1c0,0.2,0,0.3,0,0.5c0,0.2,0,0.3,0,0.4c-0.1,0.4-0.3,0.5-0.7,0.6
		c-0.3,0-0.7,0-1.2,0c-0.1,0-0.2,0-0.3,0c-0.1,0-0.2,0-0.2,0c-0.1,0-0.2,0-0.2,0c-0.1,0-0.1,0-0.2,0c-0.2,0-0.3,0.1-0.4,0.3
		c-0.1,0.1-0.1,0.3-0.2,0.5c0,0.1,0,0.2,0,0.4s0,0.3,0,0.4v2v3.8c0,0.5,0,1,0,1.4c0,0.4,0.2,0.8,0.4,1.1c0.1,0.1,0.3,0.2,0.4,0.3
		s0.4,0.1,0.6,0.1c0.1,0,0.1,0,0.2,0c0.1,0,0.1,0,0.2,0h0.4c0.2,0,0.4,0,0.6,0s0.3,0.1,0.4,0.3c0.1,0.1,0.1,0.3,0.1,0.5s0,0.4,0,0.6
		c0,0.5,0,0.9,0,1.3c0,0.4-0.2,0.6-0.5,0.8c-0.1,0-0.2,0.1-0.3,0c-0.1,0-0.2,0-0.3,0h-0.3c0,0-0.1,0-0.2,0c-0.1,0-0.2,0-0.2,0
		c-0.1,0-0.2,0-0.3,0c-0.1,0-0.2,0-0.3,0s-0.2,0-0.3,0c-0.1,0-0.2,0-0.3,0h-0.4c-0.1,0-0.2,0-0.4,0c-0.1,0-0.3,0-0.4,0
		c-0.2,0-0.3,0-0.4-0.1c-0.1,0-0.3,0-0.4-0.1c-0.2-0.1-0.5-0.1-0.7-0.2c-0.2-0.1-0.4-0.2-0.6-0.3c-0.1,0-0.1-0.1-0.2-0.1
		c-0.1-0.1-0.1-0.1-0.2-0.2c0,0-0.1-0.1-0.2-0.1c-0.1-0.1-0.1-0.1-0.2-0.1c-0.3-0.4-0.5-0.9-0.7-1.4c0-0.1-0.1-0.2,0-0.2
		c0-0.1,0-0.2,0-0.3c0,0,0-0.1,0-0.2c0-0.1,0-0.1,0-0.2v-0.3c0-0.1,0-0.2,0-0.3c0-0.1,0-0.2,0-0.3v-1.2v-4.9v-1.7c0-0.2,0-0.3,0-0.5
		c0-0.2,0-0.3,0-0.4c-0.1-0.3-0.2-0.5-0.5-0.6c-0.2-0.1-0.5-0.1-0.9-0.1c-0.4,0-0.7,0-1-0.1c-0.2-0.1-0.3-0.2-0.3-0.3
		c0-0.1-0.1-0.3-0.1-0.5V8.5c0-0.4,0-0.7,0.1-1s0.2-0.4,0.6-0.5c0.1,0,0.2-0.1,0.3,0c0.1,0,0.2,0,0.3,0c0.3,0,0.6,0,0.9,0
		s0.5-0.2,0.6-0.4c0.1-0.2,0.1-0.3,0.1-0.5c0-0.2,0-0.4,0-0.6v-2c0-0.2,0-0.4,0-0.6s0-0.4,0.1-0.5c0.1-0.2,0.3-0.4,0.5-0.4
		c0,0,0.1,0,0.2,0C474.6,2,474.7,2,474.7,2z"/>
	<path d="M488.6,0.8c0.2,0.2,0.2,0.4,0.2,0.8c0,0.4,0,0.7,0,1c0,0.3,0,0.6,0,0.9c0,0.3-0.1,0.5-0.2,0.6c-0.1,0.1-0.3,0.2-0.5,0.2
		c-0.2,0-0.4,0-0.7,0h-1.8c-0.2,0-0.5,0-0.6,0c-0.2,0-0.3-0.1-0.5-0.2c-0.1-0.1-0.1-0.2-0.2-0.4c0-0.2-0.1-0.4-0.1-0.6
		c0-0.2,0-0.5,0-0.7c0-0.2,0-0.4,0-0.6c0-0.2,0-0.3,0-0.5c0-0.1,0-0.3,0.1-0.4c0-0.1,0.1-0.2,0.2-0.2c0.1,0,0.2-0.1,0.2-0.1
		c0,0,0.1,0,0.2,0c0.1,0,0.1,0,0.2,0h2.4c0.2,0,0.4,0,0.6,0C488.3,0.6,488.5,0.7,488.6,0.8z M488.8,22.2c0,0.4,0,0.8,0,1.1
		c0,0.3-0.2,0.5-0.6,0.6c-0.1,0-0.3,0.1-0.4,0c-0.2,0-0.3,0-0.5,0h-1.8c-0.2,0-0.4,0-0.6,0c-0.2,0-0.3-0.1-0.4-0.2
		c-0.1-0.2-0.2-0.3-0.2-0.6c0-0.2,0-0.5,0-0.7V8.5c0-0.2,0-0.4,0-0.7s0-0.4,0.1-0.5c0.1-0.2,0.3-0.3,0.6-0.3c0,0,0.1,0,0.2,0
		c0.1,0,0.1,0,0.2,0h1.6c0.1,0,0.3,0,0.4,0c0.2,0,0.3,0,0.4,0h0.3c0.1,0,0.3,0.1,0.4,0.1c0.1,0,0.2,0.1,0.3,0.2
		c0.1,0.1,0.1,0.3,0.1,0.5c0,0.2,0,0.4,0,0.6V22.2z"/>
	<path d="M498.9,6.6c1.6,0,3.1,0.1,4.3,0.5c1.2,0.4,2.1,1.1,2.8,2.1c0.2,0.2,0.3,0.5,0.4,0.7c0.1,0.3,0.2,0.5,0.3,0.8
		c0,0.1,0.1,0.3,0.1,0.4c0,0.2,0,0.3-0.1,0.4c-0.1,0.1-0.2,0.2-0.4,0.3c-0.1,0-0.2,0.1-0.4,0.1s-0.3,0-0.5,0h-1.4
		c-0.2,0-0.3,0-0.5,0c-0.2,0-0.3,0-0.4,0c-0.2,0-0.4-0.1-0.5-0.3c-0.1-0.1-0.2-0.3-0.3-0.4c-0.1-0.1-0.2-0.3-0.2-0.5
		c-0.1-0.2-0.2-0.3-0.3-0.4c-0.2-0.2-0.4-0.3-0.6-0.4c-0.2-0.1-0.5-0.2-0.8-0.2c-0.2,0-0.4-0.1-0.7-0.1c-0.3,0-0.5,0-0.7,0h-0.2
		c-0.1,0-0.2,0-0.3,0c-0.1,0-0.2,0-0.3,0c-0.4,0.1-0.7,0.3-0.9,0.4c-0.2,0.2-0.4,0.5-0.5,0.8c0,0.2,0,0.3,0,0.4s0.1,0.2,0.1,0.3
		c0.2,0.3,0.3,0.5,0.5,0.6c0.2,0.2,0.5,0.3,0.7,0.4c0.4,0.2,0.9,0.3,1.4,0.4c0.5,0.1,1,0.2,1.5,0.3c0.5,0.1,1,0.2,1.5,0.3
		c0.5,0.1,1,0.3,1.4,0.4c0.2,0.1,0.4,0.2,0.6,0.2c0.2,0.1,0.4,0.1,0.5,0.2c0.4,0.3,0.8,0.5,1.1,0.9c0.3,0.3,0.6,0.7,0.8,1.1
		c0.1,0.2,0.1,0.3,0.2,0.5c0,0.2,0.1,0.3,0.1,0.5c0,0.1,0,0.3,0,0.6c0,0.3,0,0.5,0,0.6v0.2c0,0.1-0.1,0.3-0.1,0.4c0,0.1,0,0.2,0,0.3
		c-0.2,0.7-0.4,1.2-0.7,1.7c-0.4,0.5-0.8,1-1.3,1.3s-1.1,0.6-1.7,0.9c-0.2,0.1-0.5,0.2-0.8,0.2c-0.3,0-0.5,0.1-0.8,0.2
		c-0.2,0-0.4,0.1-0.6,0.1c-0.2,0-0.4,0-0.6,0.1h-0.6c-0.1,0-0.4,0.1-0.7,0.1c-0.3,0-0.5,0-0.7-0.1c-0.1,0-0.1,0-0.2,0
		c-0.1,0-0.2,0-0.2,0c-0.3,0-0.5-0.1-0.8-0.1c-0.3,0-0.5-0.1-0.8-0.1c-0.9-0.2-1.6-0.5-2.3-0.8c-0.7-0.3-1.2-0.8-1.7-1.4
		c-0.3-0.4-0.6-0.9-0.8-1.4c0-0.1-0.1-0.3-0.1-0.5c0-0.1-0.1-0.3-0.1-0.5c0-0.2,0-0.4,0-0.5c0.1-0.2,0.2-0.3,0.3-0.3
		c0.1,0,0.2-0.1,0.4-0.1c0.2,0,0.3,0,0.5,0h1.5c0.2,0,0.3,0,0.5,0c0.2,0,0.3,0,0.5,0.1c0.2,0.1,0.4,0.2,0.5,0.4
		c0.1,0.2,0.2,0.4,0.3,0.6c0,0.1,0.1,0.3,0.2,0.4c0.1,0.2,0.2,0.3,0.3,0.3c0.3,0.2,0.5,0.4,0.8,0.5c0.2,0.1,0.5,0.2,0.9,0.3
		c0.1,0,0.2,0.1,0.3,0c0.1,0,0.2,0,0.3,0c0.2,0,0.4,0.1,0.6,0c0.2,0,0.4,0,0.5-0.1c0.1,0,0.2,0,0.3,0s0.2,0,0.3-0.1
		c0.3-0.1,0.6-0.2,0.8-0.4c0.3-0.2,0.5-0.3,0.6-0.6c0.1-0.2,0.2-0.4,0.3-0.8c0-0.2,0-0.3,0-0.4c0-0.1-0.1-0.2-0.1-0.3
		c-0.2-0.3-0.3-0.5-0.6-0.7c-0.2-0.2-0.5-0.3-0.8-0.4c-0.4-0.2-0.9-0.3-1.3-0.4c-0.5-0.1-0.9-0.2-1.4-0.4c-0.2,0-0.4-0.1-0.5-0.1
		c-0.2,0-0.4-0.1-0.5-0.1c-0.7-0.2-1.4-0.4-2-0.6c-0.6-0.2-1.2-0.5-1.7-0.8c-0.6-0.4-1.1-1-1.3-1.8c0-0.2-0.1-0.4-0.1-0.6
		c0-0.2-0.1-0.3-0.1-0.6c0-0.2,0-0.4,0-0.6c0-0.1,0.1-0.2,0-0.3c0-0.1,0-0.2,0-0.3c0-0.2,0.1-0.5,0.1-0.7s0.1-0.4,0.2-0.6
		c0.3-0.6,0.7-1.1,1.2-1.5c0.5-0.4,1.1-0.7,1.7-1c0.2-0.1,0.5-0.2,0.8-0.2c0.3-0.1,0.5-0.1,0.8-0.2c0.1,0,0.3-0.1,0.4-0.1
		c0.1,0,0.3,0,0.4,0c0.2,0,0.4,0,0.6,0C498.6,6.6,498.8,6.6,498.9,6.6z"/>
	<path d="M512.4,2h2.2c0.3,0,0.6,0,0.9,0c0.3,0,0.4,0.2,0.5,0.4c0,0.1,0.1,0.2,0.1,0.4c0,0.2,0,0.3,0,0.5v1.5c0,0.1,0,0.2,0,0.4
		c0,0.1,0,0.3,0,0.4v0.4c0,0.2,0,0.3,0,0.5c0,0.1,0.1,0.3,0.2,0.4c0.2,0.2,0.4,0.3,0.8,0.3c0.4,0,0.8,0,1.2,0c0.1,0,0.3,0,0.4,0
		c0.1,0,0.3,0,0.4,0.1c0.2,0.1,0.4,0.3,0.4,0.6s0,0.6,0,1c0,0.2,0,0.3,0,0.5c0,0.2,0,0.3,0,0.4c-0.1,0.4-0.3,0.5-0.7,0.6
		c-0.3,0-0.7,0-1.2,0c-0.1,0-0.2,0-0.3,0c-0.1,0-0.2,0-0.2,0c-0.1,0-0.2,0-0.2,0c-0.1,0-0.1,0-0.2,0c-0.2,0-0.3,0.1-0.4,0.3
		c-0.1,0.1-0.1,0.3-0.2,0.5c0,0.1,0,0.2,0,0.4s0,0.3,0,0.4v2v3.8c0,0.5,0,1,0,1.4c0,0.4,0.2,0.8,0.4,1.1c0.1,0.1,0.3,0.2,0.4,0.3
		s0.4,0.1,0.6,0.1c0.1,0,0.1,0,0.2,0c0.1,0,0.1,0,0.2,0h0.4c0.2,0,0.4,0,0.6,0s0.3,0.1,0.4,0.3c0.1,0.1,0.1,0.3,0.1,0.5s0,0.4,0,0.6
		c0,0.5,0,0.9,0,1.3c0,0.4-0.2,0.6-0.5,0.8c-0.1,0-0.2,0.1-0.3,0c-0.1,0-0.2,0-0.3,0H518c0,0-0.1,0-0.2,0c-0.1,0-0.2,0-0.2,0
		c-0.1,0-0.2,0-0.3,0c-0.1,0-0.2,0-0.3,0s-0.2,0-0.3,0c-0.1,0-0.2,0-0.3,0h-0.4c-0.1,0-0.2,0-0.4,0c-0.1,0-0.3,0-0.4,0
		c-0.2,0-0.3,0-0.4-0.1c-0.1,0-0.3,0-0.4-0.1c-0.2-0.1-0.5-0.1-0.7-0.2c-0.2-0.1-0.4-0.2-0.6-0.3c-0.1,0-0.1-0.1-0.2-0.1
		c-0.1-0.1-0.1-0.1-0.2-0.2c0,0-0.1-0.1-0.2-0.1c-0.1-0.1-0.1-0.1-0.2-0.1c-0.3-0.4-0.5-0.9-0.7-1.4c0-0.1-0.1-0.2,0-0.2
		c0-0.1,0-0.2,0-0.3c0,0,0-0.1,0-0.2c0-0.1,0-0.1,0-0.2v-0.3c0-0.1,0-0.2,0-0.3c0-0.1,0-0.2,0-0.3v-1.2v-4.9v-1.7c0-0.2,0-0.3,0-0.5
		c0-0.2,0-0.3,0-0.4c-0.1-0.3-0.2-0.5-0.5-0.6c-0.2-0.1-0.5-0.1-0.9-0.1c-0.4,0-0.7,0-1-0.1c-0.2-0.1-0.3-0.2-0.3-0.3
		c0-0.1-0.1-0.3-0.1-0.5V8.5c0-0.4,0-0.7,0.1-1s0.2-0.4,0.6-0.5c0.1,0,0.2-0.1,0.3,0c0.1,0,0.2,0,0.3,0c0.3,0,0.6,0,0.9,0
		s0.5-0.2,0.6-0.4c0.1-0.2,0.1-0.3,0.1-0.5c0-0.2,0-0.4,0-0.6v-2c0-0.2,0-0.4,0-0.6s0-0.4,0.1-0.5c0.1-0.2,0.3-0.4,0.5-0.4
		c0,0,0.1,0,0.2,0C512.3,2,512.3,2,512.4,2z"/>
	<path d="M526.2,0.8c0.2,0.2,0.2,0.4,0.2,0.8c0,0.4,0,0.7,0,1c0,0.3,0,0.6,0,0.9c0,0.3-0.1,0.5-0.2,0.6c-0.1,0.1-0.3,0.2-0.5,0.2
		c-0.2,0-0.4,0-0.7,0h-1.8c-0.2,0-0.5,0-0.6,0c-0.2,0-0.3-0.1-0.5-0.2c-0.1-0.1-0.1-0.2-0.2-0.4c0-0.2-0.1-0.4-0.1-0.6
		c0-0.2,0-0.5,0-0.7s0-0.4,0-0.6c0-0.2,0-0.3,0-0.5c0-0.1,0-0.3,0.1-0.4c0-0.1,0.1-0.2,0.2-0.2c0.1,0,0.2-0.1,0.2-0.1
		c0,0,0.1,0,0.2,0c0.1,0,0.1,0,0.2,0h2.4c0.2,0,0.4,0,0.6,0C526,0.6,526.1,0.7,526.2,0.8z M526.4,22.2c0,0.4,0,0.8,0,1.1
		c0,0.3-0.2,0.5-0.6,0.6c-0.1,0-0.3,0.1-0.4,0c-0.2,0-0.3,0-0.5,0h-1.8c-0.2,0-0.4,0-0.6,0c-0.2,0-0.3-0.1-0.4-0.2
		c-0.1-0.2-0.2-0.3-0.2-0.6c0-0.2,0-0.5,0-0.7V8.5c0-0.2,0-0.4,0-0.7s0-0.4,0.1-0.5c0.1-0.2,0.3-0.3,0.6-0.3c0,0,0.1,0,0.2,0
		c0.1,0,0.1,0,0.2,0h1.6c0.1,0,0.3,0,0.4,0c0.2,0,0.3,0,0.4,0h0.3c0.1,0,0.3,0.1,0.4,0.1c0.1,0,0.2,0.1,0.3,0.2
		c0.1,0.1,0.1,0.3,0.1,0.5c0,0.2,0,0.4,0,0.6V22.2z"/>
	<path d="M537.9,6.6c1.8,0,3.3,0.2,4.4,0.8c1.2,0.6,2.1,1.4,2.8,2.4c0.3,0.5,0.6,1.1,0.8,1.8c0,0.1,0.1,0.3,0.1,0.4
		c0,0.2,0,0.3,0,0.5c-0.1,0.2-0.2,0.4-0.5,0.4s-0.5,0-0.8,0h-1.7c-0.2,0-0.4,0-0.6,0c-0.2,0-0.4,0-0.5-0.1c-0.2-0.1-0.3-0.2-0.4-0.4
		c-0.1-0.2-0.2-0.4-0.3-0.6c-0.1-0.2-0.3-0.5-0.4-0.7c-0.2-0.2-0.3-0.4-0.5-0.5c-0.3-0.2-0.6-0.3-1-0.5c-0.1,0-0.3-0.1-0.4-0.1
		c-0.1,0-0.3,0-0.4-0.1h-0.3c-0.4,0-0.8,0-1,0.1c-0.6,0.2-1.1,0.5-1.5,0.9c-0.4,0.4-0.7,0.9-1,1.5c-0.1,0.2-0.2,0.5-0.2,0.8
		s-0.1,0.6-0.2,0.9c0,0.1,0,0.2,0,0.3s0,0.2,0,0.3c0,0.2-0.1,0.5,0,0.9s0,0.7,0.1,0.9c0,0.2,0,0.3,0,0.4c0,0.2,0.1,0.3,0.1,0.5
		c0,0.2,0,0.3,0.1,0.5c0.2,0.5,0.4,1,0.6,1.4c0.2,0.4,0.5,0.8,0.9,1.1c0.1,0.1,0.2,0.1,0.4,0.2c0.2,0.2,0.5,0.3,0.7,0.3
		c0.3,0,0.6,0.1,0.9,0.1c0,0,0.1,0,0.2,0c0.1,0,0.2,0,0.2,0h0.3c0.2,0,0.3-0.1,0.4-0.1c0.1,0,0.3-0.1,0.4-0.1
		c0.7-0.3,1.2-0.7,1.5-1.2c0.1-0.1,0.2-0.2,0.2-0.4c0.1-0.1,0.1-0.3,0.2-0.4c0.1-0.2,0.2-0.5,0.2-0.6c0.1-0.2,0.2-0.3,0.5-0.4
		c0.2-0.1,0.5-0.1,1-0.1c0.4,0,0.8,0,1.1,0c0.2,0,0.3,0,0.5,0c0.2,0,0.3,0,0.4,0h0.3c0.1,0,0.2,0,0.3,0c0.1,0,0.2,0,0.2,0.1
		c0.1,0.1,0.2,0.2,0.2,0.4c0,0.2,0,0.3,0,0.5c-0.2,0.7-0.4,1.4-0.7,1.9c-0.9,1.7-2.3,2.9-4.3,3.5c-0.2,0.1-0.4,0.1-0.7,0.1
		c-0.2,0-0.5,0.1-0.7,0.1c-0.1,0-0.3,0-0.4,0c-0.1,0-0.3,0-0.4,0h-0.4c-0.1,0-0.3,0.1-0.5,0c-0.2,0-0.4,0-0.5,0
		c-0.2,0-0.3-0.1-0.5,0c-0.1,0-0.3,0-0.4,0c-0.1,0-0.2,0-0.3,0c-0.1,0-0.2,0-0.3,0c-0.2-0.1-0.5-0.1-0.7-0.2
		c-0.2-0.1-0.4-0.1-0.6-0.2c-1-0.4-1.9-1-2.6-1.7c-0.7-0.7-1.3-1.5-1.7-2.6c-0.1-0.2-0.2-0.4-0.3-0.6c-0.1-0.2-0.1-0.5-0.2-0.7
		c0-0.1,0-0.2,0-0.2s0-0.2-0.1-0.3c0-0.2-0.1-0.3-0.1-0.5s0-0.3-0.1-0.5v-0.6c0-0.1-0.1-0.2-0.1-0.4c0-0.1,0-0.3,0.1-0.4
		c0-0.1,0-0.2,0-0.3c0-0.1,0-0.2,0-0.3c0-0.2,0.1-0.3,0-0.4c0-0.1,0-0.3,0-0.4c0.1-0.4,0.2-0.8,0.3-1.1c0.1-0.4,0.2-0.7,0.3-1.1
		c0.5-1.1,1.1-2,1.8-2.8c0.7-0.7,1.7-1.3,2.8-1.8c0.3-0.1,0.6-0.2,1-0.3c0.3-0.1,0.7-0.1,1-0.2c0.2,0,0.3,0,0.5,0
		S537.7,6.6,537.9,6.6z"/>
	<path d="M555.4,6.6c1.6,0,3.1,0.1,4.3,0.5c1.2,0.4,2.1,1.1,2.8,2.1c0.2,0.2,0.3,0.5,0.4,0.7c0.1,0.3,0.2,0.5,0.3,0.8
		c0,0.1,0.1,0.3,0.1,0.4c0,0.2,0,0.3-0.1,0.4c-0.1,0.1-0.2,0.2-0.4,0.3c-0.1,0-0.2,0.1-0.4,0.1c-0.2,0-0.3,0-0.5,0h-1.4
		c-0.2,0-0.3,0-0.5,0c-0.2,0-0.3,0-0.4,0c-0.2,0-0.4-0.1-0.5-0.3s-0.2-0.3-0.3-0.4c-0.1-0.1-0.2-0.3-0.2-0.5
		c-0.1-0.2-0.2-0.3-0.3-0.4c-0.2-0.2-0.4-0.3-0.6-0.4c-0.2-0.1-0.5-0.2-0.8-0.2c-0.2,0-0.4-0.1-0.7-0.1c-0.3,0-0.5,0-0.7,0h-0.2
		c-0.1,0-0.2,0-0.3,0c-0.1,0-0.2,0-0.3,0c-0.4,0.1-0.7,0.3-0.9,0.4c-0.2,0.2-0.4,0.5-0.5,0.8c0,0.2,0,0.3,0,0.4s0.1,0.2,0.1,0.3
		c0.2,0.3,0.3,0.5,0.5,0.6c0.2,0.2,0.5,0.3,0.7,0.4c0.4,0.2,0.9,0.3,1.4,0.4c0.5,0.1,1,0.2,1.5,0.3c0.5,0.1,1,0.2,1.5,0.3
		c0.5,0.1,1,0.3,1.4,0.4c0.2,0.1,0.4,0.2,0.6,0.2c0.2,0.1,0.4,0.1,0.5,0.2c0.4,0.3,0.8,0.5,1.1,0.9c0.3,0.3,0.6,0.7,0.8,1.1
		c0.1,0.2,0.1,0.3,0.2,0.5c0,0.2,0.1,0.3,0.1,0.5c0,0.1,0,0.3,0,0.6c0,0.3,0,0.5,0,0.6v0.2c0,0.1-0.1,0.3-0.1,0.4c0,0.1,0,0.2,0,0.3
		c-0.2,0.7-0.4,1.2-0.7,1.7c-0.3,0.5-0.8,1-1.3,1.3c-0.5,0.3-1.1,0.6-1.7,0.9c-0.2,0.1-0.5,0.2-0.8,0.2s-0.5,0.1-0.8,0.2
		c-0.2,0-0.4,0.1-0.6,0.1c-0.2,0-0.4,0-0.6,0.1h-0.6c-0.1,0-0.4,0.1-0.7,0.1s-0.5,0-0.7-0.1c-0.1,0-0.1,0-0.2,0c-0.1,0-0.2,0-0.2,0
		c-0.3,0-0.5-0.1-0.8-0.1c-0.3,0-0.5-0.1-0.8-0.1c-0.9-0.2-1.6-0.5-2.3-0.8c-0.7-0.3-1.2-0.8-1.7-1.4c-0.3-0.4-0.6-0.9-0.8-1.4
		c0-0.1-0.1-0.3-0.1-0.5c0-0.1-0.1-0.3-0.1-0.5c0-0.2,0-0.4,0-0.5c0.1-0.2,0.2-0.3,0.3-0.3c0.1,0,0.2-0.1,0.4-0.1s0.3,0,0.5,0h1.5
		c0.2,0,0.3,0,0.5,0c0.2,0,0.3,0,0.5,0.1c0.2,0.1,0.4,0.2,0.5,0.4c0.1,0.2,0.2,0.4,0.3,0.6c0,0.1,0.1,0.3,0.2,0.4
		c0.1,0.2,0.2,0.3,0.3,0.3c0.3,0.2,0.5,0.4,0.8,0.5c0.2,0.1,0.5,0.2,0.9,0.3c0.1,0,0.2,0.1,0.3,0c0.1,0,0.2,0,0.3,0
		c0.2,0,0.4,0.1,0.6,0c0.2,0,0.4,0,0.5-0.1c0.1,0,0.2,0,0.3,0c0.1,0,0.2,0,0.3-0.1c0.3-0.1,0.6-0.2,0.8-0.4c0.3-0.2,0.5-0.3,0.6-0.6
		c0.1-0.2,0.2-0.4,0.3-0.8c0-0.2,0-0.3,0-0.4c0-0.1-0.1-0.2-0.1-0.3c-0.2-0.3-0.3-0.5-0.6-0.7c-0.2-0.2-0.5-0.3-0.8-0.4
		c-0.4-0.2-0.9-0.3-1.3-0.4c-0.5-0.1-0.9-0.2-1.4-0.4c-0.2,0-0.4-0.1-0.5-0.1c-0.2,0-0.4-0.1-0.5-0.1c-0.7-0.2-1.4-0.4-2-0.6
		c-0.6-0.2-1.2-0.5-1.7-0.8c-0.6-0.4-1.1-1-1.3-1.8c0-0.2-0.1-0.4-0.1-0.6c0-0.2-0.1-0.3-0.1-0.6c0-0.2,0-0.4,0-0.6
		c0-0.1,0.1-0.2,0-0.3c0-0.1,0-0.2,0-0.3c0-0.2,0.1-0.5,0.1-0.7s0.1-0.4,0.2-0.6c0.3-0.6,0.7-1.1,1.2-1.5c0.5-0.4,1.1-0.7,1.7-1
		c0.2-0.1,0.5-0.2,0.8-0.2s0.5-0.1,0.8-0.2c0.1,0,0.3-0.1,0.4-0.1c0.1,0,0.3,0,0.4,0c0.2,0,0.4,0,0.6,0
		C555.1,6.6,555.2,6.6,555.4,6.6z"/>
	<path class="st0" d="M243,43.1c-0.2-0.1-0.3-0.4-0.3-0.7c0-0.3,0-0.7,0-1c0-0.2,0-0.4,0-0.6s0-0.4,0.1-0.5c0.1-0.2,0.3-0.3,0.5-0.4
		c0,0,0.1,0,0.1,0c0.1,0,0.1,0,0.1,0c0.4,0,0.7,0,1.1,0c0.3,0,0.5,0.2,0.7,0.4c0.1,0.1,0.1,0.3,0.1,0.5c0,0.2,0,0.4,0,0.6
		c0,0.4,0,0.8,0,1.1c0,0.4-0.2,0.6-0.4,0.7c-0.1,0-0.2,0.1-0.3,0.1c-0.1,0-0.2,0-0.4,0c-0.2,0-0.5,0-0.7,0
		C243.3,43.3,243.1,43.2,243,43.1z M245.4,61.7c0,0.2,0,0.4,0,0.7c0,0.2,0,0.4-0.1,0.5c-0.1,0.1-0.2,0.2-0.3,0.2s-0.3,0.1-0.5,0.1
		H244c-0.3,0-0.5,0-0.7,0c-0.2,0-0.4-0.1-0.5-0.3c-0.1-0.1-0.1-0.3-0.1-0.5c0-0.2,0-0.4,0-0.6V48c0-0.2,0-0.5,0-0.7s0.1-0.4,0.2-0.5
		c0.1-0.1,0.2-0.2,0.3-0.2c0.1,0,0.2-0.1,0.4-0.1c0,0,0.1,0,0.1,0c0.1,0,0.1,0,0.1,0c0.3,0,0.6,0,0.9,0c0.3,0,0.5,0.1,0.6,0.3
		c0.1,0.1,0.2,0.3,0.2,0.5c0,0.2,0,0.4,0,0.6V61.7z"/>
	<path class="st0" d="M257.7,46.1c1.4,0,2.5,0.1,3.3,0.6c0.8,0.4,1.5,1,2,1.9c0.1,0.2,0.2,0.5,0.3,0.7c0.1,0.3,0.1,0.5,0.2,0.8
		c0.1,0.4,0.2,0.9,0.2,1.3c0,0.5,0,1,0,1.5v3.5v5.1c0,0.4,0,0.7,0,1.1c0,0.4-0.2,0.6-0.4,0.7c-0.1,0-0.2,0.1-0.3,0.1
		c-0.1,0-0.2,0-0.4,0c-0.3,0-0.6,0-0.8,0c-0.3,0-0.4-0.1-0.6-0.3c-0.1-0.2-0.2-0.3-0.2-0.6c0-0.2,0-0.5,0-0.7v-2.8v-5.3
		c0-0.6,0-1.2,0-1.8c0-0.6-0.1-1.1-0.3-1.5c-0.2-0.4-0.4-0.8-0.8-1.1c-0.4-0.3-0.8-0.5-1.2-0.6c-0.1,0-0.3-0.1-0.4-0.1
		c-0.1,0-0.3,0-0.4-0.1c-0.1,0-0.3,0-0.5,0c-0.2,0-0.4,0-0.5,0c-0.1,0-0.2,0.1-0.2,0c-0.1,0-0.1,0-0.2,0c-0.3,0.1-0.6,0.1-0.8,0.2
		c-0.3,0.1-0.5,0.2-0.7,0.3c-0.1,0-0.2,0.1-0.2,0.1c-0.1,0-0.1,0.1-0.2,0.1c-0.8,0.5-1.3,1.4-1.7,2.5c-0.1,0.2-0.1,0.4-0.1,0.5
		c0,0.2-0.1,0.4-0.1,0.5c0,0.1-0.1,0.2,0,0.3c0,0.1,0,0.2,0,0.3v0.7c0,0.1,0,0.1,0,0.2c0,0.1,0,0.2,0,0.3v1v3.1v2.9
		c0,0.2,0,0.5,0,0.7c0,0.3-0.1,0.5-0.2,0.6c-0.1,0.2-0.3,0.3-0.6,0.3c-0.3,0-0.6,0-0.8,0c-0.2,0-0.3,0-0.5,0c-0.2,0-0.3-0.1-0.4-0.2
		c-0.2-0.1-0.3-0.3-0.3-0.6s0-0.6,0-0.9v-3.9v-7.9v-2c0-0.2,0-0.4,0-0.6c0-0.2,0-0.3,0.1-0.5c0.1-0.1,0.2-0.2,0.3-0.3
		c0.1,0,0.2,0,0.4-0.1c0.2,0,0.3,0,0.5,0c0.2,0,0.3,0,0.5,0c0.2,0,0.3,0.1,0.3,0.1c0.2,0.2,0.3,0.3,0.3,0.6c0,0.2,0,0.5,0.1,0.8
		c0,0.1,0.1,0.2,0.3,0.3c0.3,0,0.5-0.1,0.6-0.3s0.3-0.4,0.5-0.5c0.3-0.2,0.6-0.4,0.9-0.6c0.3-0.2,0.7-0.3,1.1-0.5
		c0.2-0.1,0.4-0.1,0.6-0.1c0.2,0,0.4-0.1,0.6-0.1c0.1,0,0.2,0,0.3,0S257.6,46.1,257.7,46.1z"/>
	<path class="st0" d="M295.8,61.6c0,0.1,0.1,0.2,0.2,0.4s0.1,0.3,0.1,0.5s0,0.3,0,0.5c0,0.1-0.1,0.2-0.3,0.3c-0.1,0-0.2,0.1-0.4,0.1
		c-0.2,0-0.3,0-0.5,0c-0.3,0-0.6,0-1,0c-0.3,0-0.6-0.1-0.8-0.2c-0.2-0.1-0.4-0.4-0.5-0.7s-0.2-0.6-0.3-0.9c-0.2-0.6-0.5-1.2-0.7-1.8
		c-0.2-0.6-0.4-1.2-0.7-1.8c-0.1-0.2-0.1-0.4-0.2-0.6c-0.1-0.2-0.1-0.3-0.2-0.5c-0.1-0.2-0.2-0.3-0.3-0.4c-0.1-0.1-0.3-0.2-0.5-0.3
		c-0.1,0-0.2-0.1-0.4,0c-0.1,0-0.3,0-0.4,0h-6.2c-0.2,0-0.4,0-0.7,0c-0.2,0-0.5,0-0.7,0s-0.4,0.1-0.6,0.1c-0.2,0-0.3,0.1-0.4,0.3
		c-0.2,0.2-0.3,0.5-0.4,0.7s-0.2,0.6-0.3,0.8c-0.2,0.5-0.4,1-0.6,1.6c-0.2,0.5-0.4,1.1-0.6,1.6c0,0.1-0.1,0.3-0.1,0.4
		c-0.1,0.2-0.1,0.3-0.2,0.5c-0.1,0.2-0.1,0.3-0.2,0.5c-0.1,0.1-0.2,0.2-0.2,0.3c-0.2,0.1-0.4,0.2-0.7,0.2c-0.3,0-0.6,0-0.9,0
		c-0.2,0-0.3,0-0.5,0s-0.3-0.1-0.4-0.1c-0.1-0.1-0.2-0.2-0.2-0.3c0-0.1,0-0.3,0-0.4c0-0.1,0.1-0.3,0.1-0.4c0.1-0.1,0.1-0.2,0.1-0.3
		c0.3-0.7,0.6-1.4,0.8-2.1c0.2-0.7,0.5-1.4,0.8-2.1c0.2-0.5,0.4-1,0.6-1.4c0.2-0.5,0.4-0.9,0.6-1.4c0.7-1.6,1.3-3.2,1.9-4.8
		c0.6-1.6,1.2-3.2,1.9-4.8c0.2-0.6,0.5-1.1,0.7-1.7c0.2-0.6,0.4-1.2,0.7-1.7c0.1-0.2,0.2-0.5,0.3-0.8c0.1-0.3,0.2-0.5,0.4-0.6
		c0.1-0.1,0.2-0.2,0.4-0.2c0,0,0.1,0,0.1,0c0.1,0,0.1,0,0.1,0c0.4,0,0.9,0,1.4,0c0.5,0,0.9,0.1,1.1,0.2c0.2,0.1,0.3,0.3,0.4,0.6
		c0.1,0.3,0.2,0.6,0.3,0.8c0.2,0.5,0.4,1,0.6,1.5c0.2,0.5,0.4,1,0.6,1.5c0.2,0.4,0.3,0.9,0.5,1.3s0.3,0.9,0.5,1.3
		c0.7,1.6,1.3,3.2,1.9,4.8c0.6,1.6,1.2,3.2,1.9,4.8c0.1,0.2,0.2,0.4,0.2,0.6c0.1,0.2,0.1,0.4,0.2,0.6c0.2,0.6,0.5,1.1,0.7,1.7
		C295.3,60.5,295.6,61,295.8,61.6z M288.8,53.6c0.2-0.1,0.3-0.2,0.4-0.3c0.1-0.2,0.1-0.3,0-0.5c0-0.2-0.1-0.4-0.2-0.6
		c-0.1-0.2-0.1-0.3-0.2-0.5c0-0.1-0.1-0.2-0.1-0.2c0-0.1,0-0.1-0.1-0.2c-0.1-0.2-0.1-0.4-0.2-0.5c-0.1-0.2-0.1-0.4-0.2-0.6
		c-0.3-0.8-0.6-1.6-0.9-2.4s-0.5-1.6-0.9-2.4c-0.1-0.2-0.2-0.5-0.3-0.7s-0.2-0.5-0.3-0.7c0-0.1-0.1-0.2-0.1-0.3
		c-0.1-0.1-0.2-0.1-0.3-0.1c0,0-0.1,0.1-0.1,0.1s-0.1,0.1-0.1,0.1c-0.1,0.1-0.2,0.2-0.2,0.3s-0.1,0.2-0.1,0.4
		c-0.1,0.2-0.2,0.5-0.3,0.7s-0.2,0.5-0.3,0.7c-0.4,0.9-0.7,1.7-1,2.6c-0.3,0.9-0.6,1.7-0.9,2.6c0,0.1-0.1,0.2-0.1,0.3
		c0,0.1-0.1,0.2-0.1,0.3c-0.1,0.2-0.1,0.4-0.2,0.5c-0.1,0.2-0.1,0.4-0.2,0.5c0,0.1-0.1,0.2,0,0.4c0,0.1,0,0.2,0.1,0.3
		c0.1,0.2,0.3,0.3,0.7,0.3c0.3,0,0.7,0,1,0h3.5c0.2,0,0.5,0,0.9,0C288.4,53.7,288.6,53.7,288.8,53.6z"/>
	<path class="st0" d="M303.6,46c1.6,0,2.9,0.2,4,0.5c1.1,0.4,1.9,1.1,2.5,2c0.2,0.2,0.3,0.5,0.4,0.7c0.1,0.3,0.2,0.5,0.3,0.8
		c0,0.2,0.1,0.3,0,0.5c0,0.2-0.1,0.3-0.1,0.4c0,0-0.1,0.1-0.2,0.1s-0.1,0.1-0.2,0.1c-0.1,0-0.2,0.1-0.3,0c-0.1,0-0.2,0-0.3,0
		c-0.2,0-0.4,0-0.7,0c-0.3,0-0.5-0.1-0.6-0.1c-0.2-0.1-0.3-0.3-0.3-0.4c-0.1-0.2-0.1-0.4-0.2-0.5c-0.2-0.3-0.5-0.7-0.8-1
		c-0.2-0.2-0.5-0.3-0.8-0.4c-0.3-0.1-0.6-0.2-0.9-0.3c-0.1,0-0.2-0.1-0.3,0c-0.1,0-0.2,0-0.3,0c-0.1,0-0.3-0.1-0.5-0.1
		s-0.4,0-0.5,0.1h-0.2c-0.1,0-0.2,0-0.3,0c-0.1,0-0.2,0-0.3,0c-0.6,0.1-1,0.3-1.4,0.6s-0.6,0.6-0.8,1.2c0,0.2,0,0.3,0,0.5
		c0,0.2,0.1,0.3,0.1,0.4c0.1,0.3,0.3,0.6,0.5,0.7c0.2,0.1,0.4,0.3,0.7,0.5c0.4,0.2,0.7,0.4,1.2,0.5c0.4,0.1,0.9,0.2,1.3,0.3
		c0.3,0.1,0.6,0.2,0.9,0.2c0.3,0,0.6,0.1,0.9,0.2c0.5,0.1,0.9,0.3,1.3,0.4c0.4,0.1,0.9,0.3,1.3,0.4c0.1,0,0.2,0.1,0.3,0.1
		c0.1,0,0.2,0.1,0.3,0.2c0.4,0.3,0.8,0.6,1.1,0.9s0.6,0.7,0.8,1.2c0,0.2,0.1,0.4,0.1,0.6c0,0.2,0.1,0.3,0.1,0.5c0,0.2,0,0.3,0,0.5
		v0.3c0,0.2-0.1,0.3-0.1,0.5c0,0.2,0,0.3-0.1,0.5c-0.1,0.2-0.1,0.5-0.2,0.7c-0.1,0.2-0.2,0.4-0.3,0.6c-0.4,0.6-0.8,1-1.3,1.4
		c-0.5,0.3-1.2,0.6-1.8,0.9c-0.2,0.1-0.4,0.1-0.6,0.1c-0.2,0-0.4,0.1-0.6,0.1c-0.2,0-0.4,0.1-0.7,0.1s-0.4,0-0.7,0.1h-0.3
		c-0.1,0-0.3,0-0.5,0s-0.4,0-0.5,0h-0.4c-0.1,0-0.3-0.1-0.4,0c-0.2,0-0.3,0-0.4,0c-0.1,0-0.3,0-0.4,0c-0.2,0-0.3-0.1-0.5-0.1
		c-0.2,0-0.3-0.1-0.5-0.1c-0.7-0.2-1.3-0.5-1.8-0.8c-0.5-0.3-0.9-0.8-1.3-1.3c-0.2-0.3-0.4-0.6-0.5-0.9s-0.3-0.6-0.4-1
		c0-0.1-0.1-0.3,0-0.5c0-0.2,0-0.3,0.1-0.4c0.1-0.1,0.2-0.2,0.3-0.3c0.1,0,0.3-0.1,0.5-0.1c0.2,0,0.4,0,0.6,0c0.2,0,0.4,0,0.6,0.1
		c0.2,0,0.3,0.1,0.4,0.1c0.2,0.1,0.3,0.3,0.3,0.5s0.1,0.4,0.2,0.6c0.2,0.5,0.5,0.9,0.9,1.1c0.3,0.2,0.6,0.4,0.9,0.5s0.7,0.2,1,0.3
		l0.7,0.1h0.2c0.2,0,0.4,0.1,0.6,0.1s0.5,0,0.6-0.1c0.2,0,0.3,0,0.4,0c0.1,0,0.3,0,0.4,0s0.3,0,0.4,0c0.6-0.2,1.1-0.4,1.5-0.7
		s0.6-0.8,0.8-1.4c0-0.1,0.1-0.2,0-0.4c0-0.1,0-0.2-0.1-0.3c-0.1-0.4-0.3-0.7-0.5-0.9c-0.2-0.2-0.4-0.4-0.8-0.6
		c-0.2-0.1-0.4-0.2-0.7-0.3c-0.2-0.1-0.5-0.2-0.7-0.3c-0.1,0-0.1,0-0.2,0c-0.1,0-0.1,0-0.2-0.1c-0.7-0.2-1.5-0.4-2.3-0.5
		c-0.8-0.1-1.5-0.3-2.2-0.6c-0.2-0.1-0.4-0.2-0.6-0.2c-0.2-0.1-0.4-0.2-0.6-0.3c-0.4-0.2-0.8-0.5-1.1-0.8c-0.4-0.3-0.6-0.7-0.8-1.1
		c-0.1-0.2-0.1-0.3-0.1-0.5c0-0.2-0.1-0.3-0.1-0.5c-0.1-0.3-0.1-0.6-0.1-0.9c0-0.3,0.1-0.6,0.1-0.9c0-0.1,0.1-0.2,0.1-0.3
		c0-0.1,0-0.2,0.1-0.2c0.2-0.5,0.5-0.9,0.8-1.3c0.3-0.4,0.7-0.7,1.2-1c0.3-0.2,0.7-0.4,1.1-0.5s0.8-0.2,1.2-0.3c0.2,0,0.3,0,0.4-0.1
		c0.1,0,0.3,0,0.5-0.1c0.1,0,0.2,0,0.3,0C303.4,46.1,303.5,46.1,303.6,46z"/>
	<path class="st0" d="M315.3,43.1c-0.2-0.1-0.3-0.4-0.3-0.7c0-0.3,0-0.7,0-1c0-0.2,0-0.4,0-0.6s0-0.4,0.1-0.5
		c0.1-0.2,0.3-0.3,0.5-0.4c0,0,0.1,0,0.1,0c0.1,0,0.1,0,0.1,0c0.4,0,0.7,0,1.1,0c0.3,0,0.5,0.2,0.7,0.4c0.1,0.1,0.1,0.3,0.1,0.5
		c0,0.2,0,0.4,0,0.6c0,0.4,0,0.8,0,1.1c0,0.4-0.2,0.6-0.4,0.7c-0.1,0-0.2,0.1-0.3,0.1c-0.1,0-0.2,0-0.4,0c-0.2,0-0.5,0-0.7,0
		C315.6,43.3,315.4,43.2,315.3,43.1z M317.7,61.7c0,0.2,0,0.4,0,0.7c0,0.2,0,0.4-0.1,0.5c-0.1,0.1-0.2,0.2-0.3,0.2s-0.3,0.1-0.5,0.1
		h-0.5c-0.3,0-0.5,0-0.7,0c-0.2,0-0.4-0.1-0.5-0.3c-0.1-0.1-0.1-0.3-0.1-0.5c0-0.2,0-0.4,0-0.6V48c0-0.2,0-0.5,0-0.7
		s0.1-0.4,0.2-0.5c0.1-0.1,0.2-0.2,0.3-0.2c0.1,0,0.2-0.1,0.4-0.1c0,0,0.1,0,0.1,0c0.1,0,0.1,0,0.1,0c0.3,0,0.6,0,0.9,0
		c0.3,0,0.5,0.1,0.6,0.3c0.1,0.1,0.2,0.3,0.2,0.5c0,0.2,0,0.4,0,0.6V61.7z"/>
	<path class="st0" d="M337,62.1c0.1,0.3,0,0.6-0.1,0.9c-0.1,0.2-0.3,0.4-0.5,0.5c-0.1,0-0.2,0.1-0.3,0.1c-0.1,0-0.2,0-0.4,0.1
		c-0.5,0.1-1,0.1-1.4-0.1c-0.5-0.2-0.8-0.4-1-0.6c-0.1-0.2-0.2-0.3-0.3-0.5s-0.2-0.4-0.3-0.5c0,0-0.1-0.1-0.1-0.1
		c-0.1,0-0.1-0.1-0.2,0c-0.2,0.1-0.5,0.2-0.7,0.4s-0.4,0.3-0.6,0.5c-0.3,0.2-0.6,0.3-0.9,0.5c-0.3,0.1-0.7,0.3-1.1,0.4
		c-0.2,0.1-0.5,0.1-0.7,0.1c-0.3,0-0.5,0.1-0.7,0.1c-0.1,0-0.2,0-0.3,0c-0.1,0-0.2,0-0.2,0c-0.2,0-0.5,0-0.7,0h-0.3
		c-0.1,0-0.2,0-0.3,0c-0.1,0-0.2,0-0.3-0.1c-0.1,0-0.2,0-0.2,0c-0.1,0-0.1,0-0.2,0c-0.2,0-0.4-0.1-0.5-0.1c-0.2,0-0.3-0.1-0.5-0.1
		c-0.7-0.3-1.2-0.6-1.6-1c-0.4-0.4-0.7-0.9-1-1.5c-0.2-0.5-0.3-1.1-0.3-1.7v-0.7c0-0.1,0-0.2,0-0.3c0-0.1,0-0.2,0-0.4
		c0.1-0.2,0.2-0.5,0.3-0.7c0.1-0.2,0.2-0.5,0.3-0.7c0.4-0.6,0.9-1.1,1.6-1.4c0.7-0.3,1.4-0.6,2.2-0.8c0.3-0.1,0.6-0.2,1-0.2
		c0.3,0,0.7-0.1,1-0.2c0.2,0,0.3-0.1,0.4-0.1c0.1,0,0.3,0,0.5-0.1c0.2,0,0.3-0.1,0.5-0.1c0.2,0,0.3,0,0.5-0.1
		c0.5-0.1,1.1-0.2,1.5-0.3c0.5-0.1,0.9-0.3,1.1-0.7c0.1-0.2,0.2-0.4,0.3-0.7c0.1-0.3,0.1-0.6,0-0.9c-0.1-0.5-0.3-0.9-0.6-1.2
		s-0.6-0.5-1.1-0.7c-0.3-0.1-0.6-0.2-0.9-0.2c-0.4,0-0.7-0.1-1.1-0.1s-0.8,0-1.1,0.1c-0.4,0-0.7,0.1-1,0.2c-0.4,0.1-0.7,0.3-1.1,0.6
		c-0.2,0.1-0.3,0.3-0.5,0.5c-0.1,0.2-0.3,0.4-0.4,0.7c-0.1,0.2-0.1,0.4-0.2,0.6s-0.2,0.4-0.3,0.5c-0.1,0.1-0.2,0.1-0.4,0.1
		c-0.2,0-0.4,0-0.6,0s-0.4,0-0.6,0c-0.2,0-0.4-0.1-0.4-0.1c-0.1-0.1-0.2-0.2-0.2-0.3c0-0.2,0-0.3,0-0.5c0.1-0.3,0.1-0.6,0.2-0.8
		c0.1-0.3,0.2-0.5,0.3-0.7c0.4-0.8,0.9-1.4,1.6-1.8c0.6-0.4,1.4-0.8,2.4-1c0.2,0,0.4-0.1,0.7-0.1c0.2,0,0.5-0.1,0.7-0.1
		c0.1,0,0.2,0,0.4,0c0.2,0,0.3,0,0.4,0c1.5,0,2.9,0.2,4,0.5c1.1,0.4,1.9,1.1,2.4,2.1c0.2,0.4,0.3,0.9,0.3,1.5s0,1.2,0,1.8v7.3
		c0,0.3,0,0.6,0,0.9c0,0.3,0.1,0.5,0.2,0.7c0.1,0.2,0.3,0.3,0.4,0.3c0.2,0.1,0.4,0.1,0.6,0.2c0.2,0,0.3,0.1,0.4,0.3
		c0,0.1,0.1,0.1,0.1,0.2S337,62,337,62.1z M332.3,58.5c0.1-0.3,0.2-0.7,0.2-1.1c0-0.4,0-0.8,0-1.3c0-0.2,0-0.5,0-0.7
		c0-0.2-0.1-0.3-0.3-0.5c-0.1,0-0.2-0.1-0.5-0.1c0,0-0.1,0.1-0.2,0.1c-0.1,0-0.2,0-0.3,0.1c-0.2,0-0.4,0.1-0.6,0.1
		c-0.2,0-0.4,0.1-0.7,0.1c-0.1,0-0.1,0-0.2,0c-0.1,0-0.2,0-0.2,0c-0.3,0.1-0.7,0.1-1.1,0.1c-0.4,0-0.7,0.1-1.1,0.1
		c-0.2,0-0.3,0.1-0.5,0.1s-0.3,0.1-0.5,0.1c-0.4,0.1-0.7,0.2-1,0.4c-0.3,0.2-0.6,0.4-0.8,0.6c-0.2,0.2-0.4,0.5-0.5,0.9
		c-0.1,0.3-0.2,0.7-0.1,1.2c0,0.2,0,0.4,0.1,0.6c0.1,0.2,0.2,0.4,0.3,0.5c0.2,0.2,0.4,0.4,0.7,0.6s0.6,0.3,0.9,0.4
		c0.1,0,0.2,0,0.3,0c0.1,0,0.2,0,0.3,0c0.2,0,0.3,0.1,0.6,0.1c0.2,0,0.4,0,0.6,0c0.1,0,0.3-0.1,0.4,0s0.3,0,0.4,0
		c0.2,0,0.3-0.1,0.5-0.1c0.2,0,0.3-0.1,0.5-0.1c0.6-0.3,1.2-0.6,1.6-1S332.1,59.1,332.3,58.5z"/>
	<path class="st0" d="M363.7,62.1c0.1,0.3,0,0.6-0.1,0.9c-0.1,0.2-0.3,0.4-0.5,0.5c-0.1,0-0.2,0.1-0.3,0.1c-0.1,0-0.2,0-0.4,0.1
		c-0.5,0.1-1,0.1-1.4-0.1c-0.5-0.2-0.8-0.4-1-0.6c-0.1-0.2-0.2-0.3-0.3-0.5s-0.2-0.4-0.3-0.5c0,0-0.1-0.1-0.1-0.1
		c-0.1,0-0.1-0.1-0.2,0c-0.2,0.1-0.5,0.2-0.7,0.4s-0.4,0.3-0.6,0.5c-0.3,0.2-0.6,0.3-0.9,0.5c-0.3,0.1-0.7,0.3-1.1,0.4
		c-0.2,0.1-0.5,0.1-0.7,0.1c-0.3,0-0.5,0.1-0.7,0.1c-0.1,0-0.2,0-0.3,0c-0.1,0-0.2,0-0.2,0c-0.2,0-0.5,0-0.7,0h-0.3
		c-0.1,0-0.2,0-0.3,0c-0.1,0-0.2,0-0.3-0.1c-0.1,0-0.2,0-0.2,0c-0.1,0-0.1,0-0.2,0c-0.2,0-0.4-0.1-0.5-0.1c-0.2,0-0.3-0.1-0.5-0.1
		c-0.7-0.3-1.2-0.6-1.6-1c-0.4-0.4-0.7-0.9-1-1.5c-0.2-0.5-0.3-1.1-0.3-1.7v-0.7c0-0.1,0-0.2,0-0.3c0-0.1,0-0.2,0-0.4
		c0.1-0.2,0.2-0.5,0.3-0.7c0.1-0.2,0.2-0.5,0.3-0.7c0.4-0.6,0.9-1.1,1.6-1.4c0.7-0.3,1.4-0.6,2.2-0.8c0.3-0.1,0.6-0.2,1-0.2
		c0.3,0,0.7-0.1,1-0.2c0.2,0,0.3-0.1,0.4-0.1c0.1,0,0.3,0,0.5-0.1c0.2,0,0.3-0.1,0.5-0.1c0.2,0,0.3,0,0.5-0.1
		c0.5-0.1,1.1-0.2,1.5-0.3c0.5-0.1,0.9-0.3,1.1-0.7c0.1-0.2,0.2-0.4,0.3-0.7c0.1-0.3,0.1-0.6,0-0.9c-0.1-0.5-0.3-0.9-0.6-1.2
		s-0.6-0.5-1.1-0.7c-0.3-0.1-0.6-0.2-0.9-0.2c-0.4,0-0.7-0.1-1.1-0.1s-0.8,0-1.1,0.1c-0.4,0-0.7,0.1-1,0.2c-0.4,0.1-0.7,0.3-1.1,0.6
		c-0.2,0.1-0.3,0.3-0.5,0.5c-0.1,0.2-0.3,0.4-0.4,0.7c-0.1,0.2-0.1,0.4-0.2,0.6s-0.2,0.4-0.3,0.5c-0.1,0.1-0.2,0.1-0.4,0.1
		c-0.2,0-0.4,0-0.6,0s-0.4,0-0.6,0c-0.2,0-0.4-0.1-0.4-0.1c-0.1-0.1-0.2-0.2-0.2-0.3c0-0.2,0-0.3,0-0.5c0.1-0.3,0.1-0.6,0.2-0.8
		c0.1-0.3,0.2-0.5,0.3-0.7c0.4-0.8,0.9-1.4,1.6-1.8c0.6-0.4,1.4-0.8,2.4-1c0.2,0,0.4-0.1,0.7-0.1c0.2,0,0.5-0.1,0.7-0.1
		c0.1,0,0.2,0,0.4,0c0.2,0,0.3,0,0.4,0c1.5,0,2.9,0.2,4,0.5c1.1,0.4,1.9,1.1,2.4,2.1c0.2,0.4,0.3,0.9,0.3,1.5s0,1.2,0,1.8v7.3
		c0,0.3,0,0.6,0,0.9c0,0.3,0.1,0.5,0.2,0.7c0.1,0.2,0.3,0.3,0.4,0.3c0.2,0.1,0.4,0.1,0.6,0.2c0.2,0,0.3,0.1,0.4,0.3
		c0,0.1,0.1,0.1,0.1,0.2S363.7,62,363.7,62.1z M359,58.5c0.1-0.3,0.2-0.7,0.2-1.1c0-0.4,0-0.8,0-1.3c0-0.2,0-0.5,0-0.7
		c0-0.2-0.1-0.3-0.3-0.5c-0.1,0-0.2-0.1-0.5-0.1c0,0-0.1,0.1-0.2,0.1c-0.1,0-0.2,0-0.3,0.1c-0.2,0-0.4,0.1-0.6,0.1
		c-0.2,0-0.4,0.1-0.7,0.1c-0.1,0-0.1,0-0.2,0c-0.1,0-0.2,0-0.2,0c-0.3,0.1-0.7,0.1-1.1,0.1c-0.4,0-0.7,0.1-1.1,0.1
		c-0.2,0-0.3,0.1-0.5,0.1s-0.3,0.1-0.5,0.1c-0.4,0.1-0.7,0.2-1,0.4c-0.3,0.2-0.6,0.4-0.8,0.6c-0.2,0.2-0.4,0.5-0.5,0.9
		c-0.1,0.3-0.2,0.7-0.1,1.2c0,0.2,0,0.4,0.1,0.6c0.1,0.2,0.2,0.4,0.3,0.5c0.2,0.2,0.4,0.4,0.7,0.6s0.6,0.3,0.9,0.4
		c0.1,0,0.2,0,0.3,0c0.1,0,0.2,0,0.3,0c0.2,0,0.3,0.1,0.6,0.1c0.2,0,0.4,0,0.6,0c0.1,0,0.3-0.1,0.4,0s0.3,0,0.4,0
		c0.2,0,0.3-0.1,0.5-0.1c0.2,0,0.3-0.1,0.5-0.1c0.6-0.3,1.2-0.6,1.6-1S358.8,59.1,359,58.5z"/>
	<path class="st0" d="M374.4,46.1c1.4,0,2.5,0.1,3.3,0.6c0.8,0.4,1.5,1,2,1.9c0.1,0.2,0.2,0.5,0.3,0.7c0.1,0.3,0.1,0.5,0.2,0.8
		c0.1,0.4,0.2,0.9,0.2,1.3c0,0.5,0,1,0,1.5v3.5v5.1c0,0.4,0,0.7,0,1.1c0,0.4-0.2,0.6-0.4,0.7c-0.1,0-0.2,0.1-0.3,0.1
		c-0.1,0-0.2,0-0.4,0c-0.3,0-0.6,0-0.8,0c-0.3,0-0.4-0.1-0.6-0.3c-0.1-0.2-0.2-0.3-0.2-0.6c0-0.2,0-0.5,0-0.7v-2.8v-5.3
		c0-0.6,0-1.2,0-1.8c0-0.6-0.1-1.1-0.3-1.5c-0.2-0.4-0.4-0.8-0.8-1.1c-0.4-0.3-0.8-0.5-1.2-0.6c-0.1,0-0.3-0.1-0.4-0.1
		c-0.1,0-0.3,0-0.4-0.1c-0.1,0-0.3,0-0.5,0c-0.2,0-0.4,0-0.5,0c-0.1,0-0.2,0.1-0.2,0c-0.1,0-0.1,0-0.2,0c-0.3,0.1-0.6,0.1-0.8,0.2
		c-0.3,0.1-0.5,0.2-0.7,0.3c-0.1,0-0.2,0.1-0.2,0.1c-0.1,0-0.1,0.1-0.2,0.1c-0.8,0.5-1.3,1.4-1.7,2.5c-0.1,0.2-0.1,0.4-0.1,0.5
		c0,0.2-0.1,0.4-0.1,0.5c0,0.1-0.1,0.2,0,0.3c0,0.1,0,0.2,0,0.3v0.7c0,0.1,0,0.1,0,0.2c0,0.1,0,0.2,0,0.3v1v3.1v2.9
		c0,0.2,0,0.5,0,0.7c0,0.3-0.1,0.5-0.2,0.6c-0.1,0.2-0.3,0.3-0.6,0.3c-0.3,0-0.6,0-0.8,0c-0.2,0-0.3,0-0.5,0c-0.2,0-0.3-0.1-0.4-0.2
		c-0.2-0.1-0.3-0.3-0.3-0.6s0-0.6,0-0.9v-3.9v-7.9v-2c0-0.2,0-0.4,0-0.6c0-0.2,0-0.3,0.1-0.5c0.1-0.1,0.2-0.2,0.3-0.3
		c0.1,0,0.2,0,0.4-0.1c0.2,0,0.3,0,0.5,0c0.2,0,0.3,0,0.5,0c0.2,0,0.3,0.1,0.3,0.1c0.2,0.2,0.3,0.3,0.3,0.6c0,0.2,0,0.5,0.1,0.8
		c0,0.1,0.1,0.2,0.3,0.3c0.3,0,0.5-0.1,0.6-0.3s0.3-0.4,0.5-0.5c0.3-0.2,0.6-0.4,0.9-0.6c0.3-0.2,0.7-0.3,1.1-0.5
		c0.2-0.1,0.4-0.1,0.6-0.1c0.2,0,0.4-0.1,0.6-0.1c0.1,0,0.2,0,0.3,0S374.3,46.1,374.4,46.1z"/>
	<path class="st0" d="M399.8,61.5c0,0.3,0,0.6,0,0.8s-0.1,0.5-0.2,0.7c-0.1,0.2-0.3,0.2-0.5,0.2c-0.3,0-0.5,0-0.8,0
		c-0.1,0-0.3,0-0.4,0c-0.1,0-0.2,0-0.3,0c-0.2,0-0.3-0.1-0.4-0.3c-0.1-0.1-0.1-0.2-0.1-0.4c0-0.2,0-0.3-0.1-0.5c0,0,0-0.1-0.1-0.1
		c0,0-0.1-0.1-0.1-0.1c-0.2,0-0.4,0-0.5,0.1s-0.2,0.2-0.4,0.3c-0.4,0.3-0.9,0.6-1.3,0.8c-0.4,0.2-0.8,0.3-1.4,0.4
		c-0.5,0.1-1,0.1-1.6,0.1c-0.5,0-1.1,0-1.6-0.1c-0.5-0.1-1-0.2-1.4-0.4c-1.1-0.5-2.1-1.1-2.8-2c-0.7-0.8-1.2-1.8-1.6-3.1
		c-0.1-0.2-0.1-0.4-0.2-0.6c0-0.2-0.1-0.4-0.1-0.6c0-0.1,0-0.2,0-0.3s0-0.2,0-0.3c0-0.1-0.1-0.2,0-0.3c0-0.1,0-0.2,0-0.3v-0.3
		c0-0.1-0.1-0.3-0.1-0.4c0-0.2,0-0.3,0.1-0.4v-0.4c0-0.2,0.1-0.3,0-0.5c0-0.2,0-0.3,0-0.5c0-0.1,0-0.2,0-0.3s0-0.2,0-0.3
		c0.1-0.2,0.1-0.4,0.2-0.6c0-0.2,0.1-0.4,0.2-0.6c0.3-0.8,0.7-1.6,1.1-2.2c0.4-0.7,1-1.2,1.6-1.7c0.4-0.3,0.8-0.5,1.2-0.7
		c0.4-0.2,0.8-0.3,1.3-0.5c0.2,0,0.3,0,0.4-0.1c0.1,0,0.3-0.1,0.4-0.1h0.3c0.2,0,0.4-0.1,0.8-0.1c0.3,0,0.6,0,0.8,0.1
		c0.1,0,0.2,0,0.4,0c0.2,0.1,0.5,0.1,0.7,0.1c0.2,0,0.5,0.1,0.7,0.2c0.3,0.1,0.6,0.3,0.9,0.4c0.3,0.2,0.6,0.3,0.8,0.5
		c0.1,0.1,0.3,0.2,0.4,0.3c0.1,0.1,0.3,0.2,0.6,0.1c0-0.1,0.1-0.1,0.1-0.2c0,0,0.1-0.1,0.1-0.2c0.1-0.2,0.1-0.4,0.1-0.8
		c0-0.3,0-0.6,0-0.8v-3.8c0-0.3,0-0.7,0-1c0-0.4,0.1-0.7,0.2-0.8c0.1-0.2,0.2-0.3,0.4-0.3c0,0,0.1,0,0.2,0c0.1,0,0.1,0,0.2,0
		c0.3,0,0.6,0,1,0c0.3,0,0.6,0.1,0.7,0.3c0.1,0.2,0.2,0.4,0.2,0.7c0,0.3,0,0.5,0,0.8V61.5z M397.1,55.3c0-0.1,0.1-0.3,0.1-0.4
		c0-0.2,0-0.3-0.1-0.4V54c0-0.2-0.1-0.4-0.1-0.6c0-0.2-0.1-0.4-0.1-0.6c0-0.2-0.1-0.3-0.1-0.5c0-0.2-0.1-0.3-0.1-0.5
		c-0.3-0.7-0.6-1.2-1-1.7c-0.4-0.5-0.9-0.9-1.6-1.2c-0.2-0.1-0.4-0.2-0.7-0.2c-0.2-0.1-0.5-0.1-0.7-0.1c-0.2,0-0.4-0.1-0.6-0.1
		s-0.4,0-0.6,0c-0.1,0-0.2,0-0.3,0c-0.1,0-0.2,0-0.3,0c-0.2,0-0.4,0.1-0.5,0.1c-0.2,0-0.4,0.1-0.5,0.2c-0.7,0.3-1.3,0.7-1.7,1.3
		c-0.4,0.6-0.8,1.3-1,2c-0.1,0.2-0.1,0.5-0.2,0.7c0,0.3-0.1,0.5-0.1,0.7c0,0.1,0,0.2,0,0.2c0,0.1,0,0.2,0,0.2c0,0.1-0.1,0.2,0,0.4
		c0,0.1,0,0.3,0,0.4c0,0.2,0,0.5,0,0.7c0,0.2,0,0.4,0.1,0.6c0,0.1,0,0.2,0,0.3c0,0.2,0.1,0.3,0.1,0.5c0,0.2,0.1,0.3,0.1,0.5
		c0.2,0.8,0.6,1.4,1,2c0.4,0.5,0.9,1,1.6,1.3c0.2,0.1,0.4,0.2,0.6,0.3c0.2,0.1,0.4,0.1,0.7,0.2c0.1,0,0.2,0.1,0.3,0
		c0.1,0,0.2,0,0.3,0c0.1,0,0.2,0,0.3,0c0.1,0,0.2,0,0.3,0h0.3c0.1,0,0.2,0,0.3,0c0.2,0,0.3-0.1,0.5-0.1s0.3-0.1,0.5-0.1
		c0.7-0.3,1.3-0.7,1.8-1.2c0.4-0.5,0.8-1.1,1.1-1.8c0.1-0.2,0.2-0.5,0.2-0.7c0-0.2,0.1-0.5,0.2-0.7c0-0.1,0.1-0.2,0.1-0.2
		s0-0.2,0-0.2c0-0.1,0-0.3,0-0.4C397.1,55.6,397.1,55.5,397.1,55.3z"/>
	<path class="st0" d="M415.2,41.3c0.3,0,0.7,0,1,0c0.3,0,0.6,0.1,0.7,0.3c0.1,0.1,0.2,0.3,0.2,0.5c0,0.2,0,0.5,0,0.7v1.9
		c0,0.2,0,0.4,0,0.5c0,0.2,0,0.3,0,0.5c0.1,0.3,0.3,0.5,0.6,0.6c0.1,0,0.2,0,0.3,0c0.1,0,0.2,0,0.3,0c0.2,0,0.5,0,0.9,0
		c0.3,0,0.6,0,0.8,0.1c0.2,0.1,0.3,0.3,0.4,0.4c0,0.1,0.1,0.2,0.1,0.3c0,0.1,0,0.2,0,0.3c0,0.2,0,0.5,0,0.7c0,0.2-0.1,0.4-0.2,0.5
		c-0.1,0.1-0.3,0.2-0.5,0.2c-0.2,0-0.5,0-0.7,0c-0.3,0-0.5,0-0.7,0c-0.2,0-0.4,0-0.6,0.1c-0.2,0.1-0.3,0.2-0.3,0.3
		c-0.1,0.2-0.1,0.3-0.1,0.5c0,0.2,0,0.4,0,0.7s0,0.5,0,0.7v6.5c0,0.5,0,1,0,1.5c0,0.5,0.1,0.9,0.3,1.2c0.1,0.2,0.3,0.3,0.4,0.4
		c0.2,0.1,0.4,0.1,0.6,0.2c0.1,0,0.1,0,0.2,0c0.1,0,0.1,0,0.2,0h0.4c0.2,0,0.4,0,0.6,0c0.2,0,0.3,0.1,0.4,0.2c0,0.1,0.1,0.2,0.1,0.3
		c0,0.2,0.1,0.3,0.1,0.5c0,0.2,0,0.3,0,0.5s-0.1,0.3-0.1,0.4c-0.1,0.2-0.3,0.3-0.5,0.3c-0.2,0-0.4,0.1-0.6,0s-0.4,0-0.6,0
		c-0.1,0-0.3,0-0.4,0s-0.3,0-0.4,0h-0.4c-0.1,0-0.2,0-0.3,0s-0.2,0-0.3,0c-0.4-0.1-0.8-0.2-1.1-0.4c-0.3-0.1-0.6-0.4-0.8-0.7
		c-0.3-0.4-0.5-1-0.5-1.7c0-0.7-0.1-1.4-0.1-2.1v-8.6c-0.1-0.3-0.1-0.5-0.2-0.6s-0.2-0.2-0.5-0.3c-0.1,0-0.2,0-0.3,0
		c-0.1,0-0.2,0-0.3,0h-0.5c-0.3,0-0.5,0-0.7-0.1s-0.3-0.2-0.4-0.4c0-0.1-0.1-0.2-0.1-0.3c0-0.1,0-0.2,0-0.3c0-0.3,0-0.6,0.1-0.8
		c0-0.2,0.2-0.4,0.4-0.5c0.2-0.1,0.6-0.1,0.9-0.1c0.4,0,0.7,0,1-0.1c0.2-0.1,0.3-0.3,0.5-0.5c0-0.1,0.1-0.3,0.1-0.5s0-0.4,0-0.6v-2
		c0-0.2,0-0.4,0-0.5c0-0.2,0-0.3,0.1-0.5c0.1-0.2,0.3-0.3,0.5-0.4c0.1,0,0.1,0,0.2,0C415.1,41.3,415.1,41.3,415.2,41.3z"/>
	<path class="st0" d="M424.5,40c0.3,0,0.6,0,1,0c0.3,0,0.6,0.1,0.7,0.3c0.1,0.2,0.2,0.4,0.2,0.7s0,0.6,0,0.9v3.5v1
		c0,0.1,0,0.2,0,0.3c0,0.1,0,0.2,0,0.3c0,0.1,0,0.1,0,0.2c0,0.1,0,0.2,0,0.2c0,0.2,0.1,0.3,0.1,0.5c0,0.2,0.1,0.2,0.3,0.2
		c0,0,0.1-0.1,0.1-0.1c0.1,0,0.1,0,0.1-0.1c0.1-0.1,0.3-0.2,0.4-0.3c0.1-0.1,0.2-0.2,0.4-0.3c0.2-0.2,0.5-0.3,0.8-0.5
		c0.3-0.1,0.6-0.3,0.9-0.4c0.2,0,0.4-0.1,0.6-0.1c0.2,0,0.4-0.1,0.6-0.1c0.1,0,0.2-0.1,0.3,0c0.1,0,0.2,0,0.3,0
		c0.1,0,0.3-0.1,0.5-0.1c0.3,0,0.4,0,0.5,0.1c0.1,0,0.2,0,0.3,0s0.2,0,0.3,0c0.2,0,0.3,0.1,0.5,0.1c0.2,0,0.3,0.1,0.5,0.1
		c0.1,0,0.2,0.1,0.3,0.1c0.1,0,0.2,0,0.3,0.1c0.2,0.1,0.5,0.2,0.7,0.3c0.2,0.1,0.4,0.3,0.7,0.4c0.2,0.2,0.4,0.4,0.6,0.7
		c0.1,0.2,0.3,0.4,0.4,0.6s0.2,0.4,0.3,0.7c0.1,0.2,0.1,0.3,0.1,0.5c0,0.2,0.1,0.3,0.1,0.5c0,0.1,0.1,0.2,0.1,0.3s0,0.2,0,0.4
		c0,0.1,0.1,0.2,0,0.3c0,0.1,0,0.2,0,0.3v0.3c0,0.1,0,0.2,0,0.4s0,0.3,0,0.4v1.4v6.8c0,0.2,0,0.4,0,0.6c0,0.3,0,0.5,0,0.7
		c0,0.2,0,0.4-0.1,0.6c0,0.2-0.1,0.3-0.2,0.4c-0.2,0.1-0.4,0.2-0.9,0.2c-0.3,0-0.6,0-0.8,0s-0.5-0.1-0.6-0.3
		c-0.1-0.2-0.2-0.3-0.2-0.5s0-0.4,0-0.7v-2.4v-5.2c0-0.6,0-1.2,0-1.9c0-0.7-0.1-1.2-0.2-1.7c-0.3-0.7-0.7-1.3-1.3-1.6
		c-0.2-0.1-0.4-0.2-0.6-0.3c-0.2-0.1-0.4-0.1-0.7-0.2c-0.1,0-0.2,0-0.4,0c-0.1,0-0.2,0-0.3-0.1c-0.1,0-0.2,0-0.3,0
		c-0.1,0-0.2,0-0.3,0c-0.1,0-0.2,0-0.3,0c-0.2,0-0.4,0.1-0.6,0.1s-0.4,0.1-0.6,0.2c-0.7,0.3-1.3,0.7-1.8,1.2s-0.8,1.2-1,2
		c0,0.2-0.1,0.3-0.1,0.5c0,0.2-0.1,0.4-0.1,0.5c0,0.1,0,0.1,0,0.2c0,0.1,0,0.1,0,0.2c0,0.1,0,0.2,0,0.3c0,0.1,0,0.2,0,0.3v6.6
		c0,0.2,0,0.4,0,0.6c0,0.2,0,0.5,0,0.7c0,0.2,0,0.4,0,0.6c0,0.2-0.1,0.3-0.1,0.4c-0.1,0.1-0.2,0.2-0.3,0.2c-0.1,0-0.3,0-0.4,0.1H425
		c-0.2,0-0.5,0-0.7,0c-0.2,0-0.4-0.1-0.5-0.2c-0.1-0.2-0.2-0.4-0.2-0.6c0-0.3,0-0.5,0-0.8v-3V45v-3.2c0-0.2,0-0.5,0-0.8
		c0-0.3,0-0.5,0.1-0.6c0.1-0.2,0.3-0.3,0.5-0.3c0,0,0.1,0,0.1,0S424.4,40,424.5,40z"/>
	<path class="st0" d="M456.5,54.2c0,0.2,0,0.5,0,0.7c0,0.3-0.1,0.5-0.2,0.6c-0.1,0.1-0.3,0.1-0.5,0.2c-0.2,0-0.4,0-0.7,0
		s-0.5,0-0.8,0c-0.3,0-0.5,0-0.7,0h-8.4c-0.2,0-0.4,0-0.5,0c-0.2,0-0.3,0-0.4,0.1c-0.1,0-0.2,0.1-0.3,0.3c0,0.1-0.1,0.2-0.1,0.3
		s0,0.2,0,0.3c0,0.1,0,0.2,0,0.3c0,0.1,0,0.2,0,0.3c0,0.2,0.1,0.4,0.1,0.5c0,0.2,0.1,0.4,0.2,0.5c0.5,1.2,1.3,2,2.5,2.5
		c0.1,0.1,0.3,0.1,0.4,0.2c0.2,0,0.3,0.1,0.5,0.1c0.1,0,0.2,0,0.3,0c0.3,0.1,0.7,0.1,1.2,0.1s0.9,0,1.2-0.1c0.3-0.1,0.6-0.2,0.8-0.3
		c0.3-0.1,0.5-0.2,0.7-0.4c0.2-0.2,0.4-0.3,0.6-0.5c0.2-0.2,0.3-0.4,0.5-0.7c0.1-0.2,0.2-0.4,0.3-0.7s0.3-0.4,0.5-0.5
		c0.1,0,0.2-0.1,0.4-0.1c0.2,0,0.4,0,0.6,0c0.2,0,0.4,0,0.6,0c0.2,0,0.3,0.1,0.4,0.1c0.2,0.2,0.3,0.4,0.2,0.8
		c-0.2,0.6-0.4,1.1-0.7,1.6c-0.4,0.7-0.9,1.3-1.5,1.7s-1.3,0.8-2.1,1.1c-0.2,0.1-0.4,0.1-0.7,0.2c-0.2,0-0.4,0.1-0.7,0.1
		c-0.1,0-0.2,0-0.3,0s-0.2,0-0.3,0h-0.3c-0.1,0-0.2,0-0.4,0s-0.3,0-0.3,0h-0.3c-0.1,0-0.2,0-0.3,0c-0.1,0-0.2,0-0.3,0
		c-0.1,0-0.2,0-0.4,0c-0.1,0-0.3,0-0.4,0c-0.2,0-0.4-0.1-0.6-0.1c-0.2-0.1-0.4-0.1-0.6-0.2c-0.1,0-0.2-0.1-0.2-0.1s-0.1,0-0.2-0.1
		c-0.3-0.2-0.7-0.3-1.1-0.6c-0.6-0.4-1.2-0.9-1.6-1.5c-0.4-0.6-0.8-1.3-1.1-2c-0.1-0.2-0.2-0.5-0.2-0.8c-0.1-0.3-0.1-0.5-0.2-0.8
		c0-0.1,0-0.2,0-0.2s0-0.2,0-0.3c0-0.2-0.1-0.4-0.1-0.6c0-0.2-0.1-0.4-0.1-0.6v-0.5c0-0.1,0-0.2,0-0.4c0-0.2,0-0.3,0-0.4v-0.4
		c0-0.1,0.1-0.2,0-0.3c0-0.1,0-0.2,0-0.3c0.1-0.3,0.2-0.7,0.2-1.1c0.1-0.3,0.1-0.7,0.3-1c0.1-0.2,0.2-0.5,0.3-0.7s0.2-0.5,0.3-0.7
		c0.5-0.8,1-1.4,1.6-2c0.6-0.6,1.4-1,2.3-1.4c0.3-0.1,0.5-0.2,0.8-0.2s0.6-0.1,0.9-0.2c0.1,0,0.2,0,0.3,0c0.1,0,0.2,0,0.3,0
		c0,0,0.1,0,0.2,0s0.1,0,0.2,0c0.9,0,1.7,0.1,2.4,0.3c0.7,0.2,1.3,0.5,1.8,0.8c0.1,0,0.2,0.1,0.3,0.2s0.1,0.1,0.2,0.2
		c0.2,0.1,0.4,0.3,0.5,0.5c0.2,0.2,0.3,0.4,0.5,0.5c0.3,0.5,0.6,0.9,0.9,1.3c0.2,0.2,0.3,0.5,0.4,0.8c0.1,0.3,0.2,0.6,0.3,0.9
		c0.1,0.3,0.2,0.6,0.2,0.9c0.1,0.3,0.1,0.6,0.2,0.9c0,0.2,0,0.3,0,0.5C456.4,53.9,456.4,54,456.5,54.2z M453.3,53.1
		c0.1-0.1,0.1-0.2,0.2-0.3c0-0.1,0-0.3,0-0.4c-0.1-0.5-0.3-0.9-0.6-1.3c-0.3-0.5-0.6-0.9-1-1.3c-0.4-0.3-0.9-0.6-1.4-0.9
		c-0.2,0-0.3-0.1-0.5-0.1c-0.2,0-0.3-0.1-0.5-0.1c-0.2,0-0.4-0.1-0.6-0.1c-0.2,0-0.4,0-0.6,0c-0.1,0-0.1,0.1-0.2,0
		c-0.1,0-0.2,0-0.2,0c-0.2,0-0.3,0.1-0.5,0.1c-0.2,0-0.3,0.1-0.5,0.1c-0.6,0.3-1.1,0.6-1.5,1c-0.4,0.4-0.7,0.9-1,1.5
		c-0.1,0.1-0.1,0.2-0.2,0.4c-0.1,0.2-0.1,0.3-0.2,0.5c0,0.2-0.1,0.4,0,0.6c0,0.2,0.1,0.3,0.2,0.4c0.2,0.1,0.5,0.2,0.9,0.2
		c0.4,0,0.8,0,1.1,0h5c0.3,0,0.7,0,1.2,0C452.8,53.3,453.1,53.2,453.3,53.1z"/>
	<path class="st0" d="M486.3,46.1c0,0.2,0.1,0.4,0.1,0.7c0,0.3,0,0.5-0.1,0.7c0,0.2-0.1,0.3,0,0.4s0,0.3,0,0.4
		c0,0.1-0.1,0.3-0.1,0.4c0,0.1-0.1,0.3-0.1,0.4c0,0.2-0.1,0.3-0.1,0.5c-0.1,0.2-0.1,0.3-0.2,0.5c0,0.1-0.1,0.1-0.1,0.2
		s0,0.1-0.1,0.1c-0.2,0.4-0.5,0.8-0.8,1.2c0,0.1-0.1,0.2-0.2,0.3c-0.1,0.1-0.2,0.2-0.2,0.2c-0.1,0-0.2,0.1-0.2,0.2
		c-0.1,0.1-0.1,0.1-0.2,0.2l-0.7,0.4c-0.2,0.2-0.5,0.3-0.9,0.4s-0.7,0.2-1,0.3c-0.2,0-0.4,0.1-0.5,0.1c-0.2,0-0.4,0-0.5,0.1
		c-0.1,0-0.2,0-0.2,0c-0.1,0-0.1,0-0.2,0c-0.1,0-0.2,0-0.3,0c-0.1,0-0.2,0-0.3,0h-5c-0.3,0-0.7,0-1.1,0c-0.4,0-0.7,0.1-0.9,0.2
		c-0.2,0.2-0.4,0.5-0.3,1s0,0.9,0,1.3V61c0,0.3,0,0.6,0,1.1c0,0.4,0,0.7-0.1,0.9c-0.1,0.1-0.2,0.2-0.3,0.2s-0.3,0.1-0.4,0.1h-0.6
		c-0.3,0-0.6,0-0.9,0c-0.3,0-0.4-0.1-0.6-0.3c-0.1-0.1-0.1-0.3-0.1-0.5s0-0.5,0-0.7V41.8c0-0.2,0-0.5,0-0.8c0-0.3,0-0.5,0.1-0.7
		c0.1-0.1,0.3-0.2,0.5-0.3c0,0,0.1,0,0.1,0c0,0,0.1,0,0.1,0h7.4c0.8,0,1.6,0,2.4,0c0.8,0,1.5,0.1,2.1,0.3c1,0.3,1.8,0.8,2.4,1.3
		c0.6,0.5,1.1,1.2,1.5,2.2c0.1,0.2,0.2,0.5,0.2,0.8c0.1,0.3,0.1,0.5,0.2,0.8c0,0.2,0.1,0.3,0,0.4C486.3,45.9,486.3,46,486.3,46.1z
		 M483.3,47.3c0.1-0.3,0.1-0.7,0-1.1c-0.1-0.4-0.1-0.7-0.2-1c-0.2-0.6-0.5-1.1-0.9-1.5c-0.4-0.4-0.8-0.7-1.4-0.9
		c-0.5-0.2-1-0.3-1.7-0.4c-0.6,0-1.3-0.1-2-0.1H473c0,0-0.1,0-0.1,0s-0.1,0-0.2,0c-0.3,0.1-0.4,0.2-0.5,0.4
		c-0.1,0.2-0.1,0.5-0.1,0.9s0,0.7,0,1v3.9c0,0.3,0,0.7,0,1.1c0,0.4,0,0.7,0.2,0.9c0.1,0.2,0.3,0.3,0.5,0.3s0.5,0,0.8,0h4.4
		c0.3,0,0.7,0,1,0c0.3,0,0.7,0,0.9-0.1c0.6-0.2,1.1-0.3,1.6-0.5c0.4-0.2,0.8-0.5,1.1-1c0.2-0.3,0.3-0.5,0.4-0.8
		c0.1-0.3,0.2-0.6,0.3-1C483.3,47.7,483.3,47.5,483.3,47.3z"/>
	<path class="st0" d="M504.8,62.1c0.1,0.3,0,0.6-0.1,0.9c-0.1,0.2-0.3,0.4-0.5,0.5c-0.1,0-0.2,0.1-0.3,0.1s-0.2,0-0.4,0.1
		c-0.5,0.1-1,0.1-1.4-0.1s-0.8-0.4-1-0.6c-0.1-0.2-0.2-0.3-0.3-0.5c-0.1-0.2-0.2-0.4-0.3-0.5c0,0-0.1-0.1-0.1-0.1
		c-0.1,0-0.1-0.1-0.2,0c-0.2,0.1-0.5,0.2-0.7,0.4s-0.4,0.3-0.6,0.5c-0.3,0.2-0.6,0.3-0.9,0.5c-0.3,0.1-0.7,0.3-1,0.4
		c-0.2,0.1-0.5,0.1-0.7,0.1c-0.3,0-0.5,0.1-0.7,0.1c-0.1,0-0.2,0-0.3,0c-0.1,0-0.2,0-0.2,0c-0.2,0-0.5,0-0.7,0h-0.3
		c-0.1,0-0.2,0-0.3,0s-0.2,0-0.3-0.1c-0.1,0-0.2,0-0.2,0c-0.1,0-0.1,0-0.2,0c-0.2,0-0.4-0.1-0.5-0.1c-0.2,0-0.3-0.1-0.5-0.1
		c-0.7-0.3-1.2-0.6-1.6-1c-0.4-0.4-0.7-0.9-1-1.5c-0.2-0.5-0.3-1.1-0.3-1.7v-0.7c0-0.1,0-0.2,0-0.3c0-0.1,0-0.2,0-0.4
		c0.1-0.2,0.2-0.5,0.3-0.7c0.1-0.2,0.2-0.5,0.3-0.7c0.4-0.6,0.9-1.1,1.6-1.4c0.7-0.3,1.4-0.6,2.2-0.8c0.3-0.1,0.6-0.2,1-0.2
		c0.3,0,0.7-0.1,1-0.2c0.2,0,0.3-0.1,0.4-0.1c0.1,0,0.3,0,0.5-0.1c0.2,0,0.3-0.1,0.5-0.1c0.2,0,0.3,0,0.5-0.1
		c0.5-0.1,1.1-0.2,1.5-0.3c0.5-0.1,0.9-0.3,1.1-0.7c0.1-0.2,0.2-0.4,0.3-0.7c0.1-0.3,0.1-0.6,0-0.9c-0.1-0.5-0.3-0.9-0.6-1.2
		c-0.3-0.3-0.6-0.5-1.1-0.7c-0.3-0.1-0.6-0.2-0.9-0.2c-0.4,0-0.7-0.1-1.1-0.1s-0.8,0-1.1,0.1c-0.4,0-0.7,0.1-1,0.2
		c-0.4,0.1-0.7,0.3-1.1,0.6c-0.2,0.1-0.3,0.3-0.5,0.5c-0.1,0.2-0.3,0.4-0.4,0.7c-0.1,0.2-0.1,0.4-0.2,0.6s-0.2,0.4-0.3,0.5
		c-0.1,0.1-0.2,0.1-0.4,0.1c-0.2,0-0.4,0-0.6,0s-0.4,0-0.6,0s-0.4-0.1-0.4-0.1c-0.1-0.1-0.2-0.2-0.2-0.3c0-0.2,0-0.3,0-0.5
		c0.1-0.3,0.1-0.6,0.2-0.8c0.1-0.3,0.2-0.5,0.3-0.7c0.4-0.8,0.9-1.4,1.6-1.8c0.6-0.4,1.4-0.8,2.4-1c0.2,0,0.4-0.1,0.7-0.1
		c0.2,0,0.5-0.1,0.7-0.1c0.1,0,0.2,0,0.4,0c0.2,0,0.3,0,0.4,0c1.5,0,2.9,0.2,4,0.5c1.1,0.4,1.9,1.1,2.4,2.1c0.2,0.4,0.3,0.9,0.3,1.5
		c0,0.6,0,1.2,0,1.8v7.3c0,0.3,0,0.6,0,0.9c0,0.3,0.1,0.5,0.2,0.7c0.1,0.2,0.3,0.3,0.4,0.3c0.2,0.1,0.4,0.1,0.6,0.2s0.3,0.1,0.4,0.3
		c0,0.1,0.1,0.1,0.1,0.2S504.7,62,504.8,62.1z M500.1,58.5c0.1-0.3,0.2-0.7,0.2-1.1s0-0.8,0-1.3c0-0.2,0-0.5,0-0.7s-0.1-0.3-0.3-0.5
		c-0.1,0-0.2-0.1-0.5-0.1c0,0-0.1,0.1-0.2,0.1s-0.2,0-0.3,0.1c-0.2,0-0.4,0.1-0.6,0.1c-0.2,0-0.4,0.1-0.7,0.1c-0.1,0-0.1,0-0.2,0
		c-0.1,0-0.2,0-0.2,0c-0.3,0.1-0.7,0.1-1.1,0.1c-0.4,0-0.7,0.1-1.1,0.1c-0.2,0-0.3,0.1-0.5,0.1c-0.1,0-0.3,0.1-0.5,0.1
		c-0.3,0.1-0.7,0.2-1,0.4s-0.6,0.4-0.8,0.6c-0.2,0.2-0.4,0.5-0.5,0.9c-0.1,0.3-0.2,0.7-0.1,1.2c0,0.2,0,0.4,0.1,0.6
		c0.1,0.2,0.2,0.4,0.3,0.5c0.2,0.2,0.4,0.4,0.7,0.6s0.6,0.3,0.9,0.4c0.1,0,0.2,0,0.3,0s0.2,0,0.3,0c0.2,0,0.3,0.1,0.6,0.1
		c0.2,0,0.4,0,0.6,0c0.1,0,0.3-0.1,0.4,0c0.1,0,0.3,0,0.4,0c0.2,0,0.3-0.1,0.5-0.1c0.2,0,0.3-0.1,0.5-0.1c0.6-0.3,1.2-0.6,1.6-1
		S499.8,59.1,500.1,58.5z"/>
	<path class="st0" d="M514.2,46c1.6,0,3,0.2,4.1,0.7c1.1,0.5,1.9,1.2,2.6,2.2c0.3,0.4,0.5,1,0.7,1.6c0,0.1,0.1,0.3,0.1,0.4
		c0,0.2,0,0.3,0,0.5c-0.1,0.1-0.2,0.2-0.3,0.3c-0.1,0-0.1,0.1-0.2,0c-0.1,0-0.1,0-0.2,0c-0.1,0-0.2,0-0.3,0c-0.1,0-0.2,0-0.3,0
		c-0.2,0-0.5,0-0.7,0c-0.2,0-0.4-0.1-0.6-0.2c-0.2-0.1-0.3-0.3-0.4-0.6c-0.1-0.2-0.2-0.4-0.3-0.6c-0.3-0.6-0.8-1-1.3-1.3
		c-0.2-0.1-0.4-0.2-0.6-0.3c-0.2-0.1-0.4-0.1-0.6-0.2c-0.3-0.1-0.7-0.1-1.2-0.1c-0.5,0-0.9,0-1.2,0.1c-0.2,0-0.3,0.1-0.4,0.1
		c-0.1,0-0.3,0.1-0.4,0.1c-0.6,0.2-1.1,0.6-1.5,1s-0.8,0.9-1,1.5c-0.1,0.2-0.2,0.4-0.2,0.6c-0.1,0.2-0.1,0.4-0.2,0.7l-0.2,0.9
		c0,0.1,0,0.2,0,0.4c0,0.1,0,0.3,0,0.4v0.3c0,0.1,0,0.2,0,0.4c0,0.2,0,0.3,0,0.4c0,0.1,0,0.2,0,0.3c0,0.1,0,0.2,0,0.3
		c0,0.1,0,0.2,0,0.5c0,0.2,0.1,0.4,0.1,0.6c0,0.2,0.1,0.4,0.1,0.6c0.2,0.7,0.5,1.3,0.8,1.8c0.3,0.5,0.8,1,1.3,1.3
		c0.2,0.1,0.4,0.2,0.6,0.3c0.2,0.1,0.4,0.2,0.7,0.3c0.1,0,0.2,0,0.3,0c0.1,0,0.2,0,0.3,0c0.1,0,0.2,0,0.3,0h0.4c0,0,0,0,0.1,0
		c0,0,0.1,0,0.2,0c0.1,0,0.1,0,0.2,0c0.2,0,0.3-0.1,0.4,0c0.1,0,0.3,0,0.4,0c0.6-0.2,1.1-0.4,1.5-0.7c0.4-0.3,0.8-0.6,1-1.1
		c0.1-0.2,0.2-0.4,0.3-0.6c0.1-0.2,0.2-0.4,0.3-0.6c0-0.2,0.1-0.3,0.1-0.5s0.2-0.3,0.3-0.4c0.1-0.1,0.2-0.1,0.4-0.1
		c0.2,0,0.4-0.1,0.6-0.1c0.2,0,0.4,0,0.7,0c0.2,0,0.4,0.1,0.4,0.1c0.1,0.1,0.2,0.2,0.2,0.4c0,0.2,0,0.4,0,0.6
		c-0.1,0.3-0.2,0.6-0.3,0.9c-0.1,0.3-0.2,0.6-0.4,0.9c-0.3,0.7-0.7,1.2-1.2,1.7c-0.5,0.5-1.1,0.9-1.8,1.2c-0.2,0.1-0.4,0.2-0.6,0.2
		s-0.4,0.1-0.6,0.2c-0.2,0.1-0.5,0.1-0.7,0.1c-0.2,0-0.5,0-0.7,0.1c-0.1,0-0.2,0.1-0.3,0c-0.1,0-0.2,0-0.3,0h-0.3
		c-0.2,0-0.3,0-0.5,0c-0.2,0-0.3,0-0.4,0h-0.2l-0.8-0.1c-0.3-0.1-0.6-0.2-0.8-0.2c-0.3-0.1-0.5-0.2-0.8-0.3c-0.8-0.3-1.4-0.8-2-1.2
		c-0.5-0.5-1-1.1-1.4-1.8c-0.1-0.2-0.2-0.4-0.3-0.6c-0.1-0.2-0.2-0.4-0.3-0.7c-0.1-0.2-0.2-0.5-0.2-0.8c0-0.3-0.1-0.5-0.2-0.8
		c0-0.1,0-0.2,0-0.3s0-0.2,0-0.3c0-0.1-0.1-0.3,0-0.4c0-0.2,0-0.3,0-0.4v-0.3c0-0.1,0-0.3,0-0.5c0-0.2,0-0.3,0-0.5
		c0-0.1,0-0.2,0-0.3c0-0.1,0-0.2,0-0.3c0-0.2,0.1-0.3,0-0.5c0-0.2,0-0.3,0-0.4c0.1-0.4,0.2-0.7,0.2-1.1c0.1-0.4,0.2-0.7,0.3-1
		c0.5-1.1,1-2.1,1.7-2.8s1.6-1.3,2.7-1.7c0.2-0.1,0.5-0.2,0.8-0.2c0.3,0,0.6-0.1,0.9-0.2c0.2,0,0.3,0,0.5,0
		C513.8,46.1,514,46,514.2,46z"/>
	<path class="st0" d="M525.6,43.1c-0.2-0.1-0.3-0.4-0.3-0.7c0-0.3,0-0.7,0-1c0-0.2,0-0.4,0-0.6s0-0.4,0.1-0.5
		c0.1-0.2,0.3-0.3,0.5-0.4c0,0,0.1,0,0.1,0c0.1,0,0.1,0,0.1,0c0.4,0,0.7,0,1,0c0.3,0,0.5,0.2,0.7,0.4c0.1,0.1,0.1,0.3,0.1,0.5
		c0,0.2,0,0.4,0,0.6c0,0.4,0,0.8,0,1.1c0,0.4-0.2,0.6-0.4,0.7c-0.1,0-0.2,0.1-0.3,0.1c-0.1,0-0.2,0-0.4,0c-0.2,0-0.5,0-0.7,0
		C525.9,43.3,525.7,43.2,525.6,43.1z M528,61.7c0,0.2,0,0.4,0,0.7c0,0.2,0,0.4-0.1,0.5c-0.1,0.1-0.2,0.2-0.3,0.2
		c-0.1,0-0.3,0.1-0.5,0.1h-0.5c-0.3,0-0.5,0-0.7,0c-0.2,0-0.4-0.1-0.5-0.3c-0.1-0.1-0.1-0.3-0.1-0.5c0-0.2,0-0.4,0-0.6V48
		c0-0.2,0-0.5,0-0.7s0.1-0.4,0.2-0.5c0.1-0.1,0.2-0.2,0.3-0.2c0.1,0,0.2-0.1,0.4-0.1c0,0,0.1,0,0.1,0c0.1,0,0.1,0,0.1,0
		c0.3,0,0.6,0,0.9,0c0.3,0,0.5,0.1,0.6,0.3c0.1,0.1,0.2,0.3,0.2,0.5c0,0.2,0,0.4,0,0.6V61.7z"/>
	<path class="st0" d="M537.6,39.7c0.4,0,0.8,0,1.2,0c0.4,0,0.7,0.2,0.9,0.4c0.1,0.1,0.1,0.3,0.2,0.5c0,0.2,0,0.4,0,0.6
		c0,0.3-0.1,0.5-0.2,0.7c-0.1,0.1-0.2,0.2-0.4,0.2s-0.3,0-0.5,0c-0.2,0-0.4,0-0.6,0c-0.2,0-0.4,0-0.5,0c-0.6,0.2-1,0.5-1.2,0.8
		c-0.2,0.4-0.3,1-0.3,1.7c0,0.2,0,0.3,0,0.5s0,0.3,0,0.4c0.1,0.3,0.2,0.6,0.4,0.7c0.2,0.1,0.4,0.1,0.7,0.1s0.5,0,0.8,0h0.5
		c0.1,0,0.1,0.1,0.2,0c0.1,0,0.1,0,0.2,0c0.2,0.1,0.4,0.2,0.4,0.4c0.1,0.2,0.1,0.4,0.1,0.7c0,0.1,0,0.2,0,0.3s0,0.2,0,0.3
		c-0.1,0.3-0.2,0.5-0.4,0.7c-0.3,0.1-0.7,0.1-1.1,0.1c-0.4-0.1-0.8,0-1.1,0c-0.2,0-0.3,0.1-0.4,0.2c-0.1,0.1-0.2,0.3-0.2,0.5
		c0,0.2-0.1,0.3,0,0.5c0,0.2,0,0.4,0,0.6v2.2v7v1.6c0,0.1,0,0.3,0,0.4c0,0.2,0,0.3,0,0.4v0.3c0,0.1,0,0.2-0.1,0.3
		c0,0.1-0.1,0.2-0.1,0.2c-0.1,0.2-0.3,0.2-0.5,0.3c-0.2,0-0.5,0-0.7,0h-0.6c-0.1,0-0.2-0.1-0.3-0.1c-0.1,0-0.2-0.1-0.2-0.2
		c0-0.1-0.1-0.2-0.1-0.4v-0.2c0-0.1-0.1-0.2,0-0.3c0-0.1,0-0.2,0-0.3v-1.3v-9c0-0.2,0-0.5,0-0.8c0-0.3,0-0.5,0-0.7
		c0-0.2-0.1-0.4-0.1-0.6c-0.1-0.2-0.2-0.3-0.4-0.4c-0.1-0.1-0.3-0.1-0.4-0.1s-0.3,0-0.5,0s-0.3,0-0.5,0s-0.3,0-0.4-0.1
		c-0.2-0.1-0.3-0.3-0.4-0.6c0-0.1,0-0.2,0-0.3c0-0.1,0-0.2,0-0.3c0-0.3,0-0.6,0.1-0.7c0.1-0.2,0.2-0.3,0.4-0.4
		c0.2-0.1,0.3-0.1,0.5-0.1c0.2,0,0.4,0,0.6,0c0.2,0,0.4,0,0.6-0.1c0.2,0,0.3-0.1,0.4-0.3c0.2-0.2,0.2-0.4,0.2-0.8c0-0.4,0-0.7,0-1
		c0-0.4,0-0.8,0.1-1.2c0.1-0.4,0.1-0.7,0.3-1c0.2-0.5,0.6-1,1-1.3c0.4-0.3,0.9-0.6,1.5-0.8c0.1,0,0.3-0.1,0.4-0.1
		c0.1,0,0.3,0,0.4-0.1c0,0,0.1,0,0.2,0C537.4,39.7,537.5,39.7,537.6,39.7z M542.5,43.1c0.2,0.1,0.3,0.2,0.6,0.2c0.2,0,0.4,0,0.7,0
		c0.1,0,0.3,0,0.4,0c0.1,0,0.2,0,0.3-0.1c0.3-0.1,0.4-0.3,0.4-0.7c0-0.3,0-0.7,0-1.1c0-0.2,0-0.4,0-0.6c0-0.2,0-0.3-0.1-0.5
		c-0.1-0.2-0.3-0.4-0.7-0.4c-0.3,0-0.7,0-1,0c0,0-0.1,0-0.1,0c-0.1,0-0.1,0-0.1,0c-0.3,0.1-0.4,0.2-0.5,0.4
		c-0.1,0.1-0.1,0.3-0.1,0.5s0,0.4,0,0.6c0,0.3,0,0.7,0,1C542.3,42.8,542.3,43,542.5,43.1z M544.9,47.9c0-0.2,0-0.4,0-0.6
		c0-0.2-0.1-0.4-0.2-0.5c-0.1-0.2-0.3-0.3-0.6-0.3c-0.3,0-0.6,0-0.9,0c0,0-0.1,0-0.1,0c-0.1,0-0.1,0-0.1,0c-0.1,0-0.3,0.1-0.4,0.1
		c-0.1,0-0.2,0.1-0.3,0.2c-0.1,0.1-0.2,0.3-0.2,0.5s0,0.5,0,0.7v13.9c0,0.2,0,0.4,0,0.6c0,0.2,0,0.4,0.1,0.5
		c0.1,0.2,0.3,0.3,0.5,0.3c0.2,0,0.5,0,0.7,0h0.5c0.2,0,0.3-0.1,0.5-0.1c0.1,0,0.2-0.1,0.3-0.2c0.1-0.1,0.2-0.3,0.1-0.5
		c0-0.2,0-0.5,0-0.7V47.9z"/>
	<path class="st0" d="M556.1,46c1.6,0,3,0.2,4.1,0.7c1.1,0.5,1.9,1.2,2.6,2.2c0.3,0.4,0.5,1,0.7,1.6c0,0.1,0.1,0.3,0.1,0.4
		c0,0.2,0,0.3,0,0.5c-0.1,0.1-0.2,0.2-0.3,0.3c-0.1,0-0.1,0.1-0.2,0c-0.1,0-0.1,0-0.2,0c-0.1,0-0.2,0-0.3,0c-0.1,0-0.2,0-0.3,0
		c-0.2,0-0.5,0-0.7,0c-0.2,0-0.4-0.1-0.6-0.2c-0.2-0.1-0.3-0.3-0.4-0.6c-0.1-0.2-0.2-0.4-0.3-0.6c-0.3-0.6-0.8-1-1.3-1.3
		c-0.2-0.1-0.4-0.2-0.6-0.3c-0.2-0.1-0.4-0.1-0.6-0.2c-0.3-0.1-0.7-0.1-1.2-0.1c-0.5,0-0.9,0-1.2,0.1c-0.2,0-0.3,0.1-0.4,0.1
		c-0.1,0-0.3,0.1-0.4,0.1c-0.6,0.2-1.1,0.6-1.5,1s-0.8,0.9-1,1.5c-0.1,0.2-0.2,0.4-0.2,0.6c-0.1,0.2-0.1,0.4-0.2,0.7l-0.2,0.9
		c0,0.1,0,0.2,0,0.4c0,0.1,0,0.3,0,0.4v0.3c0,0.1,0,0.2,0,0.4c0,0.2,0,0.3,0,0.4c0,0.1,0,0.2,0,0.3c0,0.1,0,0.2,0,0.3
		c0,0.1,0,0.2,0,0.5c0,0.2,0.1,0.4,0.1,0.6c0,0.2,0.1,0.4,0.1,0.6c0.2,0.7,0.5,1.3,0.8,1.8c0.3,0.5,0.8,1,1.3,1.3
		c0.2,0.1,0.4,0.2,0.6,0.3c0.2,0.1,0.4,0.2,0.7,0.3c0.1,0,0.2,0,0.3,0c0.1,0,0.2,0,0.3,0c0.1,0,0.2,0,0.3,0h0.4c0,0,0,0,0.1,0
		c0,0,0.1,0,0.2,0c0.1,0,0.1,0,0.2,0c0.2,0,0.3-0.1,0.4,0c0.1,0,0.3,0,0.4,0c0.6-0.2,1.1-0.4,1.5-0.7c0.4-0.3,0.8-0.6,1-1.1
		c0.1-0.2,0.2-0.4,0.3-0.6c0.1-0.2,0.2-0.4,0.3-0.6c0-0.2,0.1-0.3,0.1-0.5s0.2-0.3,0.3-0.4c0.1-0.1,0.2-0.1,0.4-0.1
		c0.2,0,0.4-0.1,0.6-0.1c0.2,0,0.4,0,0.7,0c0.2,0,0.4,0.1,0.4,0.1c0.1,0.1,0.2,0.2,0.2,0.4c0,0.2,0,0.4,0,0.6
		c-0.1,0.3-0.2,0.6-0.3,0.9c-0.1,0.3-0.2,0.6-0.4,0.9c-0.3,0.7-0.7,1.2-1.2,1.7c-0.5,0.5-1.1,0.9-1.8,1.2c-0.2,0.1-0.4,0.2-0.6,0.2
		s-0.4,0.1-0.6,0.2c-0.2,0.1-0.5,0.1-0.7,0.1c-0.2,0-0.5,0-0.7,0.1c-0.1,0-0.2,0.1-0.3,0c-0.1,0-0.2,0-0.3,0h-0.3
		c-0.2,0-0.3,0-0.5,0c-0.2,0-0.3,0-0.4,0h-0.2l-0.8-0.1c-0.3-0.1-0.6-0.2-0.8-0.2c-0.3-0.1-0.5-0.2-0.8-0.3c-0.8-0.3-1.4-0.8-2-1.2
		c-0.5-0.5-1-1.1-1.4-1.8c-0.1-0.2-0.2-0.4-0.3-0.6c-0.1-0.2-0.2-0.4-0.3-0.7c-0.1-0.2-0.2-0.5-0.2-0.8c0-0.3-0.1-0.5-0.2-0.8
		c0-0.1,0-0.2,0-0.3s0-0.2,0-0.3c0-0.1-0.1-0.3,0-0.4c0-0.2,0-0.3,0-0.4v-0.3c0-0.1,0-0.3,0-0.5c0-0.2,0-0.3,0-0.5
		c0-0.1,0-0.2,0-0.3c0-0.1,0-0.2,0-0.3c0-0.2,0.1-0.3,0-0.5c0-0.2,0-0.3,0-0.4c0.1-0.4,0.2-0.7,0.2-1.1c0.1-0.4,0.2-0.7,0.3-1
		c0.5-1.1,1-2.1,1.7-2.8s1.6-1.3,2.7-1.7c0.2-0.1,0.5-0.2,0.8-0.2c0.3,0,0.6-0.1,0.9-0.2c0.2,0,0.3,0,0.5,0
		C555.7,46.1,555.9,46,556.1,46z"/>
</g>
</svg>
